Inknut Antiqua-Regular.ufo
<glyph name="exclam" format="1">
  <advance width="349"/>
  <unicode hex="0021"/>
  <outline>
	<contour>
	  <point x="216" y="786" type="line"/>
	  <point x="80" y="736" type="line"/>
	  <point x="80" y="705" type="line"/>
	  <point x="141" y="243" type="line"/>
	  <point x="201" y="243" type="line"/>
	  <point x="254" y="786" type="line"/>
	</contour>
	<component base="period" xOffset="1"/>
  </outline>
</glyph>
<glyph name="numbersign" format="1">
  <advance width="780"/>
  <unicode hex="0023"/>
  <outline>
    <contour>
      <point x="422" y="541" type="line"/>
      <point x="116" y="11" type="line"/>
      <point x="152" y="-10" type="line"/>
      <point x="458" y="520" type="line"/>
    </contour>
    <contour>
      <point x="630" y="541" type="line"/>
      <point x="324" y="11" type="line"/>
      <point x="360" y="-10" type="line"/>
      <point x="666" y="520" type="line"/>
    </contour>
    <contour>
      <point x="750" y="389" type="line"/>
      <point x="174" y="389" type="line"/>
      <point x="148" y="344" type="line"/>
      <point x="724" y="344" type="line"/>
    </contour>
    <contour>
      <point x="632" y="184" type="line"/>
      <point x="56" y="184" type="line"/>
      <point x="30" y="139" type="line"/>
      <point x="606" y="139" type="line"/>
    </contour>
  </outline>
</glyph>
<glyph name="ampersand" format="1">
  <advance width="1255"/>
  <unicode hex="0026"/>
  <outline>
	<contour>
	  <point x="252" y="581"/>
	  <point x="70" y="442"/>
	  <point x="70" y="268" type="curve" smooth="yes"/>
	  <point x="70" y="112"/>
	  <point x="174" y="-10"/>
	  <point x="320" y="-10" type="curve" smooth="yes"/>
	  <point x="357" y="-10"/>
	  <point x="394" y="-9"/>
	  <point x="433" y="-2" type="curve"/>
	  <point x="839" y="319" type="line"/>
	  <point x="912" y="434" type="line"/>
	  <point x="568" y="164" type="line" smooth="yes"/>
	  <point x="474" y="89"/>
	  <point x="420" y="75"/>
	  <point x="378" y="75" type="curve" smooth="yes"/>
	  <point x="257" y="75"/>
	  <point x="200" y="188"/>
	  <point x="200" y="316" type="curve" smooth="yes"/>
	  <point x="200" y="435"/>
	  <point x="243" y="497"/>
	  <point x="323" y="497" type="curve" smooth="yes"/>
	  <point x="359" y="497"/>
	  <point x="395" y="460"/>
	  <point x="395" y="412" type="curve" smooth="yes"/>
	  <point x="395" y="353"/>
	  <point x="373" y="290"/>
	  <point x="256" y="218" type="curve"/>
	  <point x="277" y="178" type="line"/>
	  <point x="414" y="264"/>
	  <point x="531" y="337"/>
	  <point x="531" y="448" type="curve" smooth="yes"/>
	  <point x="531" y="495"/>
	  <point x="472" y="581"/>
	  <point x="391" y="581" type="curve" smooth="yes"/>
	</contour>
	<contour>
	  <point x="950" y="441" type="line"/>
	  <point x="829" y="381"/>
	  <point x="719" y="287"/>
	  <point x="719" y="168" type="curve" smooth="yes"/>
	  <point x="719" y="70"/>
	  <point x="803" y="-10"/>
	  <point x="919" y="-10" type="curve" smooth="yes"/>
	  <point x="946" y="-10"/>
	  <point x="980" y="-9"/>
	  <point x="1015" y="-2" type="curve"/>
	  <point x="1169" y="119" type="line"/>
	  <point x="1139" y="157" type="line"/>
	  <point x="1061" y="96"/>
	  <point x="1010" y="75"/>
	  <point x="977" y="75" type="curve" smooth="yes"/>
	  <point x="891" y="75"/>
	  <point x="849" y="138"/>
	  <point x="849" y="216" type="curve" smooth="yes"/>
	  <point x="849" y="326"/>
	  <point x="881" y="377"/>
	  <point x="950" y="408" type="curve"/>
	</contour>
	<contour>
	  <point x="978" y="749" type="line"/>
	  <point x="978" y="718" type="line"/>
	  <point x="1066" y="683"/>
	  <point x="1122" y="636"/>
	  <point x="1122" y="586" type="curve" smooth="yes"/>
	  <point x="1122" y="534"/>
	  <point x="1058" y="498"/>
	  <point x="1012" y="498" type="curve" smooth="yes"/>
	  <point x="892" y="498"/>
	  <point x="845" y="581"/>
	  <point x="729" y="581" type="curve" smooth="yes"/>
	  <point x="646" y="581"/>
	  <point x="549" y="510"/>
	  <point x="495" y="428" type="curve"/>
	  <point x="505" y="392" type="line"/>
	  <point x="566" y="453"/>
	  <point x="609" y="466"/>
	  <point x="655" y="466" type="curve" smooth="yes"/>
	  <point x="754" y="466"/>
	  <point x="817" y="384"/>
	  <point x="968" y="384" type="curve" smooth="yes"/>
	  <point x="1037" y="384"/>
	  <point x="1192" y="505"/>
	  <point x="1192" y="609" type="curve" smooth="yes"/>
	  <point x="1192" y="668"/>
	  <point x="1127" y="759"/>
	  <point x="1094" y="792" type="curve"/>
	</contour>
  </outline>
</glyph>
<glyph name="quotesingle" format="1">
  <advance width="270"/>
  <unicode hex="0027"/>
  <outline>
    <contour>
      <point x="172" y="786" type="line"/>
      <point x="60" y="742" type="line"/>
      <point x="60" y="711" type="line"/>
      <point x="130" y="434" type="line"/>
      <point x="176" y="435" type="line"/>
      <point x="210" y="786" type="line"/>
    </contour>
  </outline>
</glyph>
<glyph name="parenleft" format="1">
  <advance width="517"/>
  <unicode hex="0028"/>
  <outline>
    <contour>
      <point x="433" y="953" type="line"/>
      <point x="293" y="859"/>
      <point x="70" y="673"/>
      <point x="70" y="355" type="curve" smooth="yes"/>
      <point x="70" y="78"/>
      <point x="214" y="-128"/>
      <point x="429" y="-210" type="curve"/>
      <point x="456" y="-171" type="line"/>
      <point x="280" y="-50"/>
      <point x="205" y="175"/>
      <point x="205" y="403" type="curve" smooth="yes"/>
      <point x="205" y="652"/>
      <point x="308" y="805"/>
      <point x="457" y="914" type="curve"/>
    </contour>
  </outline>
</glyph>
<glyph name="comma" format="1">
  <advance width="370"/>
  <unicode hex="002C"/>
  <outline>
	<contour>
	  <point x="71" y="47" type="line"/>
	  <point x="71" y="16" type="line"/>
	  <point x="198" y="-58" type="line"/>
	  <point x="151" y="11" type="line"/>
	  <point x="151" y="-87"/>
	  <point x="130" y="-139"/>
	  <point x="50" y="-234" type="curve"/>
	  <point x="88" y="-264" type="line"/>
	  <point x="280" y="-20" type="line"/>
	  <point x="242" y="131" type="line"/>
	</contour>
  </outline>
</glyph>
<glyph name="period" format="1">
  <advance width="339"/>
  <unicode hex="002E"/>
  <outline>
	<contour>
	  <point x="141" y="155"/>
	  <point x="90" y="116"/>
	  <point x="90" y="67" type="curve" smooth="yes"/>
	  <point x="90" y="24"/>
	  <point x="119" y="-10"/>
	  <point x="159" y="-10" type="curve" smooth="yes"/>
	  <point x="198" y="-10"/>
	  <point x="249" y="29"/>
	  <point x="249" y="78" type="curve" smooth="yes"/>
	  <point x="249" y="121"/>
	  <point x="221" y="155"/>
	  <point x="180" y="155" type="curve" smooth="yes"/>
	</contour>
  </outline>
</glyph>
<glyph name="slash" format="1">
  <advance width="355"/>
  <unicode hex="002F"/>
  <outline>
    <contour>
      <point x="20" y="-130" type="line"/>
      <point x="71" y="-140" type="line"/>
      <point x="335" y="933" type="line"/>
      <point x="283" y="943" type="line"/>
    </contour>
  </outline>
</glyph>
<glyph name="one" format="1">
  <advance width="494"/>
  <unicode hex="0031"/>
  <outline>
	<contour>
	  <point x="90" y="31" type="line"/>
	  <point x="90" y="0" type="line"/>
	  <point x="394" y="0" type="line"/>
	  <point x="414" y="40" type="line"/>
	  <point x="196" y="114" type="line"/>
	</contour>
	<contour>
	  <point x="187" y="545" type="line"/>
	  <point x="187" y="0" type="line"/>
	  <point x="307" y="0" type="line"/>
	  <point x="307" y="518" type="line"/>
	</contour>
	<contour>
	  <point x="404" y="540" type="line"/>
	  <point x="404" y="571" type="line"/>
	  <point x="100" y="571" type="line"/>
	  <point x="80" y="531" type="line"/>
	  <point x="298" y="457" type="line"/>
	</contour>
  </outline>
</glyph>
<glyph name="two" format="1">
  <advance width="590"/>
  <unicode hex="0032"/>
  <outline>
	<contour>
	  <point x="237" y="581"/>
	  <point x="212" y="580"/>
	  <point x="189" y="573" type="curve"/>
	  <point x="45" y="459" type="line"/>
	  <point x="75" y="421" type="line"/>
	  <point x="148" y="482"/>
	  <point x="196" y="496"/>
	  <point x="227" y="496" type="curve" smooth="yes"/>
	  <point x="304" y="496"/>
	  <point x="356" y="446"/>
	  <point x="356" y="377" type="curve" smooth="yes"/>
	  <point x="356" y="311"/>
	  <point x="295" y="240"/>
	  <point x="44" y="31" type="curve"/>
	  <point x="44" y="0" type="line"/>
	  <point x="483" y="0" type="line"/>
	  <point x="538" y="-18" type="line"/>
	  <point x="538" y="192" type="line"/>
	  <point x="508" y="202" type="line"/>
	  <point x="448" y="49" type="line"/>
	  <point x="526" y="121" type="line"/>
	  <point x="185" y="121" type="line"/>
	  <point x="205" y="101" type="line"/>
	  <point x="412" y="272"/>
	  <point x="486" y="376"/>
	  <point x="486" y="434" type="curve" smooth="yes"/>
	  <point x="486" y="522"/>
	  <point x="395" y="581"/>
	  <point x="255" y="581" type="curve" smooth="yes"/>
	</contour>
  </outline>
</glyph>
<glyph name="three" format="1">
  <advance width="560"/>
  <unicode hex="0033"/>
  <outline>
	<contour>
	  <point x="358" y="-163"/>
	  <point x="490" y="-58"/>
	  <point x="490" y="84" type="curve" smooth="yes"/>
	  <point x="490" y="148"/>
	  <point x="449" y="194"/>
	  <point x="319" y="274" type="curve"/>
	  <point x="226" y="214" type="line"/>
	  <point x="226" y="189" type="line"/>
	  <point x="332" y="123"/>
	  <point x="360" y="91"/>
	  <point x="360" y="37" type="curve" smooth="yes"/>
	  <point x="360" y="-70"/>
	  <point x="294" y="-122"/>
	  <point x="38" y="-216" type="curve"/>
	  <point x="53" y="-264" type="line"/>
	</contour>
	<contour>
	  <point x="273" y="496"/>
	  <point x="318" y="447"/>
	  <point x="318" y="377" type="curve" smooth="yes"/>
	  <point x="318" y="334"/>
	  <point x="300" y="302"/>
	  <point x="226" y="214" type="curve"/>
	  <point x="269" y="193" type="line"/>
	  <point x="400" y="316"/>
	  <point x="443" y="374"/>
	  <point x="448" y="434" type="curve" smooth="yes"/>
	  <point x="448" y="515"/>
	  <point x="342" y="581"/>
	  <point x="213" y="581" type="curve" smooth="yes"/>
	  <point x="199" y="581"/>
	  <point x="184" y="578"/>
	  <point x="171" y="573" type="curve"/>
	  <point x="27" y="459" type="line"/>
	  <point x="57" y="421" type="line"/>
	  <point x="117" y="470"/>
	  <point x="168" y="496"/>
	  <point x="209" y="496" type="curve" smooth="yes"/>
	</contour>
  </outline>
</glyph>
<glyph name="four" format="1">
  <advance width="698"/>
  <unicode hex="0034"/>
  <outline>
	<contour>
	  <point x="30" y="92" type="line"/>
	  <point x="30" y="61" type="line"/>
	  <point x="638" y="61" type="line"/>
	  <point x="673" y="132" type="line"/>
	  <point x="91" y="132" type="line"/>
	  <point x="115" y="89" type="line"/>
	  <point x="460" y="518" type="line"/>
	  <point x="400" y="541" type="line"/>
	</contour>
	<contour>
	  <point x="400" y="541" type="line"/>
	  <point x="400" y="-214" type="line"/>
	  <point x="520" y="-155" type="line"/>
	  <point x="520" y="600" type="line"/>
	</contour>
  </outline>
</glyph>
<glyph name="five" format="1">
  <advance width="626"/>
  <unicode hex="0035"/>
  <outline>
	<contour>
	  <point x="70" y="273" type="line"/>
	  <point x="325" y="161"/>
	  <point x="370" y="113"/>
	  <point x="370" y="37" type="curve" smooth="yes"/>
	  <point x="370" y="-62"/>
	  <point x="324" y="-115"/>
	  <point x="48" y="-216" type="curve"/>
	  <point x="63" y="-264" type="line"/>
	  <point x="263" y="-198"/>
	  <point x="500" y="-107"/>
	  <point x="500" y="84" type="curve" smooth="yes"/>
	  <point x="500" y="171"/>
	  <point x="429" y="238"/>
	  <point x="119" y="374" type="curve"/>
	</contour>
	<contour>
	  <point x="397" y="499" type="line"/>
	  <point x="475" y="571" type="line"/>
	  <point x="134" y="571" type="line"/>
	  <point x="70" y="273" type="line"/>
	  <point x="123" y="321" type="line"/>
	  <point x="166" y="531" type="line"/>
	  <point x="124" y="450" type="line"/>
	  <point x="432" y="450" type="line"/>
	  <point x="487" y="432" type="line"/>
	  <point x="487" y="642" type="line"/>
	  <point x="457" y="652" type="line"/>
	</contour>
  </outline>
</glyph>
<glyph name="six" format="1">
  <advance width="731"/>
  <unicode hex="0036"/>
  <outline>
	<contour>
	  <point x="177" y="680"/>
	  <point x="90" y="505"/>
	  <point x="90" y="298" type="curve" smooth="yes"/>
	  <point x="90" y="125"/>
	  <point x="197" y="-10"/>
	  <point x="350" y="-10" type="curve" smooth="yes"/>
	  <point x="503" y="-10"/>
	  <point x="661" y="139"/>
	  <point x="661" y="283" type="curve" smooth="yes"/>
	  <point x="661" y="423"/>
	  <point x="529" y="529"/>
	  <point x="353" y="529" type="curve"/>
	  <point x="322" y="484" type="line"/>
	  <point x="435" y="447"/>
	  <point x="531" y="364"/>
	  <point x="531" y="236" type="curve" smooth="yes"/>
	  <point x="531" y="128"/>
	  <point x="489" y="74"/>
	  <point x="408" y="74" type="curve" smooth="yes"/>
	  <point x="280" y="74"/>
	  <point x="220" y="202"/>
	  <point x="220" y="345" type="curve" smooth="yes"/>
	  <point x="220" y="507"/>
	  <point x="319" y="665"/>
	  <point x="585" y="842" type="curve"/>
	  <point x="561" y="883" type="line"/>
	</contour>
  </outline>
</glyph>
<glyph name="seven" format="1">
  <advance width="658"/>
  <unicode hex="0037"/>
  <outline>
	<contour>
	  <point x="70" y="389" type="line"/>
	  <point x="100" y="379" type="line"/>
	  <point x="162" y="526" type="line"/>
	  <point x="92" y="450" type="line"/>
	  <point x="523" y="450" type="line"/>
	  <point x="553" y="554" type="line"/>
	  <point x="149" y="-242" type="line"/>
	  <point x="197" y="-264" type="line"/>
	  <point x="598" y="533" type="line"/>
	  <point x="598" y="571" type="line"/>
	  <point x="125" y="571" type="line"/>
	  <point x="70" y="589" type="line"/>
	</contour>
  </outline>
</glyph>
<glyph name="eight" format="1">
  <advance width="732"/>
  <unicode hex="0038"/>
  <outline>
    <contour>
      <point x="274" y="883"/>
      <point x="123" y="748"/>
      <point x="123" y="649" type="curve" smooth="yes"/>
      <point x="123" y="434"/>
      <point x="534" y="381"/>
      <point x="534" y="208" type="curve" smooth="yes"/>
      <point x="534" y="132"/>
      <point x="481" y="60"/>
      <point x="395" y="60" type="curve" smooth="yes"/>
      <point x="292" y="60"/>
      <point x="200" y="161"/>
      <point x="200" y="276" type="curve" smooth="yes"/>
      <point x="200" y="323"/>
      <point x="214" y="358"/>
      <point x="309" y="435" type="curve"/>
      <point x="271" y="465" type="line"/>
      <point x="134" y="363"/>
      <point x="70" y="300"/>
      <point x="70" y="228" type="curve" smooth="yes"/>
      <point x="70" y="96"/>
      <point x="202" y="-10"/>
      <point x="390" y="-10" type="curve" smooth="yes"/>
      <point x="499" y="-10"/>
      <point x="662" y="142"/>
      <point x="662" y="254" type="curve" smooth="yes"/>
      <point x="662" y="468"/>
      <point x="251" y="515"/>
      <point x="251" y="695" type="curve" smooth="yes"/>
      <point x="251" y="763"/>
      <point x="297" y="813"/>
      <point x="355" y="813" type="curve" smooth="yes"/>
      <point x="430" y="813"/>
      <point x="484" y="745"/>
      <point x="484" y="655" type="curve" smooth="yes"/>
      <point x="484" y="609"/>
      <point x="477" y="583"/>
      <point x="392" y="482" type="curve"/>
      <point x="435" y="461" type="line"/>
      <point x="570" y="588"/>
      <point x="599" y="644"/>
      <point x="604" y="702" type="curve" smooth="yes"/>
      <point x="604" y="799"/>
      <point x="513" y="883"/>
      <point x="379" y="883" type="curve" smooth="yes"/>
    </contour>
  </outline>
</glyph>
<glyph name="nine" format="1">
  <advance width="721"/>
  <unicode hex="0039"/>
  <outline>
    <contour>
      <point x="228" y="581"/>
      <point x="70" y="432"/>
      <point x="70" y="288" type="curve" smooth="yes"/>
      <point x="70" y="148"/>
      <point x="198" y="42"/>
      <point x="368" y="42" type="curve"/>
      <point x="399" y="87" type="line"/>
      <point x="291" y="124"/>
      <point x="200" y="207"/>
      <point x="200" y="335" type="curve" smooth="yes"/>
      <point x="200" y="443"/>
      <point x="242" y="497"/>
      <point x="323" y="497" type="curve" smooth="yes"/>
      <point x="451" y="497"/>
      <point x="511" y="384"/>
      <point x="511" y="256" type="curve" smooth="yes"/>
      <point x="511" y="101"/>
      <point x="412" y="-51"/>
      <point x="146" y="-223" type="curve"/>
      <point x="170" y="-264" type="line"/>
      <point x="554" y="-69"/>
      <point x="641" y="101"/>
      <point x="641" y="303" type="curve" smooth="yes"/>
      <point x="641" y="458"/>
      <point x="534" y="581"/>
      <point x="381" y="581" type="curve" smooth="yes"/>
    </contour>
  </outline>
</glyph>
<glyph name="greater" format="1">
  <advance width="471"/>
  <unicode hex="003E"/>
  <outline>
	<contour>
	  <point x="30" y="478" type="line"/>
	  <point x="328" y="253" type="line"/>
	  <point x="334" y="289" type="line"/>
	  <point x="45" y="94" type="line"/>
	  <point x="77" y="63" type="line"/>
	  <point x="441" y="309" type="line"/>
	  <point x="143" y="534" type="line"/>
	</contour>
  </outline>
</glyph>
<glyph name="question" format="1">
  <advance width="484"/>
  <unicode hex="003F"/>
  <outline>
	<contour>
	  <point x="178" y="806"/>
	  <point x="144" y="805"/>
	  <point x="109" y="798" type="curve"/>
	  <point x="10" y="721" type="line"/>
	  <point x="40" y="683" type="line"/>
	  <point x="92" y="713"/>
	  <point x="125" y="721"/>
	  <point x="147" y="721" type="curve" smooth="yes"/>
	  <point x="223" y="721"/>
	  <point x="301" y="631"/>
	  <point x="301" y="582" type="curve" smooth="yes"/>
	  <point x="301" y="523"/>
	  <point x="121" y="462"/>
	  <point x="121" y="370" type="curve" smooth="yes"/>
	  <point x="121" y="329"/>
	  <point x="142" y="295"/>
	  <point x="171" y="266" type="curve"/>
	  <point x="276" y="318" type="line"/>
	  <point x="276" y="349" type="line"/>
	  <point x="252" y="371"/>
	  <point x="234" y="396"/>
	  <point x="234" y="426" type="curve" smooth="yes"/>
	  <point x="234" y="481"/>
	  <point x="414" y="543"/>
	  <point x="414" y="638" type="curve" smooth="yes"/>
	  <point x="414" y="721"/>
	  <point x="277" y="806"/>
	  <point x="205" y="806" type="curve" smooth="yes"/>
	</contour>
	<component base="period" xOffset="31"/>
  </outline>
</glyph>
<glyph name="at" format="1">
  <advance width="1339"/>
  <unicode hex="0040"/>
  <outline>
	<contour>
	  <point x="450" y="816"/>
	  <point x="70" y="587"/>
	  <point x="70" y="245" type="curve" smooth="yes"/>
	  <point x="70" y="-58"/>
	  <point x="252" y="-266"/>
	  <point x="611" y="-264" type="curve"/>
	  <point x="631" y="-224" type="line"/>
	  <point x="331" y="-183"/>
	  <point x="200" y="45"/>
	  <point x="200" y="293" type="curve" smooth="yes"/>
	  <point x="200" y="550"/>
	  <point x="399" y="732"/>
	  <point x="677" y="732" type="curve" smooth="yes"/>
	  <point x="998" y="732"/>
	  <point x="1139" y="534"/>
	  <point x="1139" y="313" type="curve" smooth="yes"/>
	  <point x="1139" y="178"/>
	  <point x="1060" y="84"/>
	  <point x="897" y="52" type="curve"/>
	  <point x="909" y="0" type="line"/>
	  <point x="1080" y="20"/>
	  <point x="1269" y="165"/>
	  <point x="1269" y="360" type="curve" smooth="yes"/>
	  <point x="1269" y="625"/>
	  <point x="1054" y="816"/>
	  <point x="735" y="816" type="curve" smooth="yes"/>
	</contour>
	<contour>
	  <point x="559" y="541"/>
	  <point x="389" y="410"/>
	  <point x="389" y="248" type="curve" smooth="yes"/>
	  <point x="389" y="104"/>
	  <point x="485" y="-10"/>
	  <point x="619" y="-10" type="curve" smooth="yes"/>
	  <point x="641" y="-10"/>
	  <point x="668" y="-9"/>
	  <point x="696" y="-2" type="curve"/>
	  <point x="873" y="138" type="line"/>
	  <point x="843" y="161" type="line"/>
	  <point x="763" y="86"/>
	  <point x="717" y="75"/>
	  <point x="670" y="75" type="curve" smooth="yes"/>
	  <point x="568" y="75"/>
	  <point x="519" y="179"/>
	  <point x="519" y="296" type="curve" smooth="yes"/>
	  <point x="519" y="401"/>
	  <point x="556" y="457"/>
	  <point x="632" y="457" type="curve" smooth="yes"/>
	  <point x="739" y="457"/>
	  <point x="790" y="397"/>
	  <point x="790" y="328" type="curve"/>
	  <point x="890" y="283" type="line"/>
	  <point x="890" y="426"/>
	  <point x="807" y="541"/>
	  <point x="690" y="541" type="curve" smooth="yes"/>
	</contour>
	<contour>
	  <point x="871" y="551" type="line"/>
	  <point x="789" y="437" type="line"/>
	  <point x="789" y="0" type="line"/>
	  <point x="909" y="0" type="line"/>
	  <point x="909" y="551" type="line"/>
	</contour>
  </outline>
</glyph>
<glyph name="A" format="1">
  <advance width="870"/>
  <unicode hex="0041"/>
  <outline>
    <contour>
      <point x="636" y="334" type="line"/>
      <point x="228" y="334" type="line"/>
      <point x="208" y="289" type="line"/>
      <point x="636" y="289" type="line"/>
    </contour>
    <component base="V" xOffset="870" yOffset="786" xScale="-1" yScale="-1"/>
    <contour>
      <point x="852" y="0" type="move" name="ogonek"/>
    </contour>
    <contour>
      <point x="435" y="786" type="move" name="top"/>
    </contour>
  </outline>
</glyph>
<glyph name="B" format="1">
  <advance width="789"/>
  <unicode hex="0042"/>
  <outline>
	<contour>
	  <point x="154" y="786" type="line"/>
	  <point x="154" y="0" type="line"/>
	  <point x="279" y="0" type="line"/>
	  <point x="279" y="786" type="line"/>
	</contour>
	<contour>
	  <point x="230" y="755" type="line"/>
	  <point x="230" y="786" type="line"/>
	  <point x="70" y="786" type="line"/>
	  <point x="50" y="746" type="line"/>
	  <point x="186" y="702" type="line"/>
	</contour>
	<contour>
	  <point x="60" y="31" type="line"/>
	  <point x="60" y="0" type="line"/>
	  <point x="227" y="0" type="line"/>
	  <point x="247" y="40" type="line"/>
	  <point x="166" y="114" type="line"/>
	</contour>
	<contour>
	  <point x="203" y="605" type="line"/>
	  <point x="243" y="683"/>
	  <point x="306" y="732"/>
	  <point x="387" y="732" type="curve" smooth="yes"/>
	  <point x="503" y="732"/>
	  <point x="554" y="651"/>
	  <point x="554" y="553" type="curve" smooth="yes"/>
	  <point x="554" y="476"/>
	  <point x="505" y="432"/>
	  <point x="422" y="432" type="curve" smooth="yes"/>
	  <point x="205" y="432" type="line"/>
	  <point x="205" y="373" type="line"/>
	  <point x="394" y="373" type="line" smooth="yes"/>
	  <point x="517" y="373"/>
	  <point x="689" y="476"/>
	  <point x="689" y="600" type="curve" smooth="yes"/>
	  <point x="689" y="709"/>
	  <point x="602" y="796"/>
	  <point x="465" y="796" type="curve" smooth="yes"/>
	  <point x="381" y="796"/>
	  <point x="332" y="786"/>
	  <point x="186" y="786" type="curve"/>
	</contour>
	<contour>
	  <point x="402" y="374" type="line"/>
	  <point x="534" y="374"/>
	  <point x="594" y="300"/>
	  <point x="594" y="197" type="curve" smooth="yes"/>
	  <point x="594" y="116"/>
	  <point x="533" y="64"/>
	  <point x="437" y="64" type="curve" smooth="yes"/>
	  <point x="326" y="64"/>
	  <point x="250" y="93"/>
	  <point x="205" y="137" type="curve"/>
	  <point x="187" y="0" type="line"/>
	  <point x="296" y="0"/>
	  <point x="322" y="-10"/>
	  <point x="409" y="-10" type="curve" smooth="yes"/>
	  <point x="544" y="-10"/>
	  <point x="729" y="97"/>
	  <point x="729" y="230" type="curve" smooth="yes"/>
	  <point x="729" y="335"/>
	  <point x="645" y="418"/>
	  <point x="514" y="435" type="curve"/>
	</contour>
  </outline>
</glyph>
<glyph name="C" format="1">
  <advance width="820"/>
  <unicode hex="0043"/>
  <outline>
	<contour>
	  <point x="321" y="806"/>
	  <point x="70" y="623"/>
	  <point x="70" y="375" type="curve" smooth="yes"/>
	  <point x="70" y="146"/>
	  <point x="214" y="-20"/>
	  <point x="427" y="-20" type="curve" smooth="yes"/>
	  <point x="469" y="-20"/>
	  <point x="518" y="-18"/>
	  <point x="573" y="2" type="curve"/>
	  <point x="757" y="145" type="line"/>
	  <point x="727" y="193" type="line"/>
	  <point x="609" y="98"/>
	  <point x="534" y="65"/>
	  <point x="485" y="65" type="curve" smooth="yes"/>
	  <point x="292" y="64"/>
	  <point x="205" y="234"/>
	  <point x="205" y="423" type="curve" smooth="yes"/>
	  <point x="205" y="596"/>
	  <point x="308" y="722"/>
	  <point x="442" y="722" type="curve" smooth="yes"/>
	  <point x="535" y="722"/>
	  <point x="620" y="678"/>
	  <point x="686" y="565" type="curve"/>
	  <point x="724" y="565" type="line"/>
	  <point x="724" y="759" type="line"/>
	  <point x="682" y="782"/>
	  <point x="571" y="806"/>
	  <point x="500" y="806" type="curve" smooth="yes"/>
	</contour>
	<contour>
	  <point x="435" y="786" type="move" name="top"/>
	</contour>
	<contour>
	  <point x="430" y="0" type="move" name="bottom"/>
	</contour>
  </outline>
</glyph>
<glyph name="D" format="1">
  <advance width="889"/>
  <unicode hex="0044"/>
  <outline>
	<contour>
	  <point x="60" y="31" type="line"/>
	  <point x="60" y="0" type="line"/>
	  <point x="201" y="0" type="line"/>
	  <point x="221" y="40" type="line"/>
	  <point x="166" y="114" type="line"/>
	</contour>
	<contour>
	  <point x="154" y="786" type="line"/>
	  <point x="154" y="0" type="line"/>
	  <point x="279" y="0" type="line"/>
	  <point x="279" y="786" type="line"/>
	</contour>
	<contour>
	  <point x="203" y="605" type="line"/>
	  <point x="243" y="683"/>
	  <point x="311" y="732"/>
	  <point x="392" y="732" type="curve" smooth="yes"/>
	  <point x="594" y="732"/>
	  <point x="684" y="559"/>
	  <point x="684" y="363" type="curve" smooth="yes"/>
	  <point x="684" y="190"/>
	  <point x="573" y="64"/>
	  <point x="427" y="64" type="curve" smooth="yes"/>
	  <point x="321" y="64"/>
	  <point x="248" y="93"/>
	  <point x="205" y="137" type="curve"/>
	  <point x="187" y="0" type="line"/>
	  <point x="291" y="0"/>
	  <point x="316" y="-10"/>
	  <point x="399" y="-10" type="curve" smooth="yes"/>
	  <point x="574" y="-10"/>
	  <point x="819" y="169"/>
	  <point x="819" y="410" type="curve" smooth="yes"/>
	  <point x="819" y="633"/>
	  <point x="680" y="796"/>
	  <point x="470" y="796" type="curve" smooth="yes"/>
	  <point x="386" y="796"/>
	  <point x="337" y="786"/>
	  <point x="186" y="786" type="curve"/>
	</contour>
	<contour>
	  <point x="230" y="755" type="line"/>
	  <point x="230" y="786" type="line"/>
	  <point x="70" y="786" type="line"/>
	  <point x="50" y="746" type="line"/>
	  <point x="186" y="702" type="line"/>
	</contour>
	<contour>
	  <point x="405" y="786" type="move" name="top"/>
	</contour>
	<contour>
	  <point x="250" y="414" type="move" name="centre"/>
	</contour>
  </outline>
</glyph>
<glyph name="F" format="1">
  <advance width="774"/>
  <unicode hex="0046"/>
  <outline>
	<contour>
	  <point x="154" y="786" type="line"/>
	  <point x="154" y="0" type="line"/>
	  <point x="279" y="0" type="line"/>
	  <point x="279" y="786" type="line"/>
	</contour>
	<contour>
	  <point x="60" y="31" type="line"/>
	  <point x="60" y="0" type="line"/>
	  <point x="414" y="0" type="line"/>
	  <point x="434" y="40" type="line"/>
	  <point x="166" y="114" type="line"/>
	</contour>
	<contour>
	  <point x="218" y="424" type="line"/>
	  <point x="218" y="379" type="line"/>
	  <point x="496" y="379" type="line"/>
	  <point x="496" y="424" type="line"/>
	</contour>
	<contour>
	  <point x="70" y="786" type="line"/>
	  <point x="50" y="746" type="line"/>
	  <point x="268" y="672" type="line"/>
	  <point x="259" y="755" type="line"/>
	  <point x="259" y="786" type="line"/>
	</contour>
	<contour>
	  <point x="509" y="552" type="line"/>
	  <point x="426" y="406" type="line"/>
	  <point x="500" y="258" type="line"/>
	  <point x="540" y="278" type="line"/>
	  <point x="540" y="552" type="line"/>
	</contour>
	<contour>
	  <point x="218" y="786" type="line"/>
	  <point x="218" y="741" type="line"/>
	  <point x="696" y="741" type="line"/>
	  <point x="696" y="786" type="line"/>
	</contour>
	<contour>
	  <point x="629" y="779" type="line"/>
	  <point x="531" y="776" type="line"/>
	  <point x="674" y="564" type="line"/>
	  <point x="704" y="574" type="line"/>
	  <point x="704" y="804" type="line"/>
	</contour>
	<contour>
	  <point x="407" y="786" type="move" name="top"/>
	</contour>
  </outline>
</glyph>
<glyph name="G" format="1">
  <advance width="910"/>
  <unicode hex="0047"/>
  <outline>
	<contour>
	  <point x="333" y="806"/>
	  <point x="70" y="623"/>
	  <point x="70" y="375" type="curve" smooth="yes"/>
	  <point x="70" y="146"/>
	  <point x="222" y="-20"/>
	  <point x="447" y="-20" type="curve" smooth="yes"/>
	  <point x="495" y="-20"/>
	  <point x="550" y="-18"/>
	  <point x="613" y="2" type="curve"/>
	  <point x="797" y="115" type="line"/>
	  <point x="767" y="163" type="line"/>
	  <point x="639" y="58"/>
	  <point x="558" y="65"/>
	  <point x="505" y="65" type="curve" smooth="yes"/>
	  <point x="298" y="64"/>
	  <point x="205" y="234"/>
	  <point x="205" y="423" type="curve" smooth="yes"/>
	  <point x="205" y="596"/>
	  <point x="316" y="722"/>
	  <point x="462" y="722" type="curve" smooth="yes"/>
	  <point x="563" y="722"/>
	  <point x="654" y="678"/>
	  <point x="726" y="565" type="curve"/>
	  <point x="764" y="565" type="line"/>
	  <point x="764" y="759" type="line"/>
	  <point x="718" y="782"/>
	  <point x="597" y="806"/>
	  <point x="520" y="806" type="curve" smooth="yes"/>
	</contour>
	<contour>
	  <point x="645" y="46" type="line"/>
	  <point x="770" y="126" type="line"/>
	  <point x="770" y="377" type="line"/>
	  <point x="645" y="380" type="line"/>
	</contour>
	<contour>
	  <point x="511" y="406" type="line"/>
	  <point x="491" y="366" type="line"/>
	  <point x="759" y="292" type="line"/>
	  <point x="865" y="375" type="line"/>
	  <point x="865" y="406" type="line"/>
	</contour>
	<contour>
	  <point x="470" y="786" type="move" name="top"/>
	</contour>
	<contour>
	  <point x="480" y="0" type="move" name="bottom"/>
	</contour>
  </outline>
</glyph>
<glyph name="I" format="1">
  <advance width="434"/>
  <unicode hex="0049"/>
  <outline>
	<contour>
	  <point x="60" y="31" type="line"/>
	  <point x="60" y="0" type="line"/>
	  <point x="364" y="0" type="line"/>
	  <point x="384" y="40" type="line"/>
	  <point x="166" y="114" type="line"/>
	</contour>
	<contour>
	  <point x="154" y="786" type="line"/>
	  <point x="154" y="0" type="line"/>
	  <point x="279" y="0" type="line"/>
	  <point x="279" y="786" type="line"/>
	</contour>
	<contour>
	  <point x="374" y="755" type="line"/>
	  <point x="374" y="786" type="line"/>
	  <point x="70" y="786" type="line"/>
	  <point x="50" y="746" type="line"/>
	  <point x="268" y="672" type="line"/>
	</contour>
	<contour>
	  <point x="364" y="0" type="move" name="ogonek"/>
	</contour>
	<contour>
	  <point x="217" y="786" type="move" name="top"/>
	</contour>
  </outline>
</glyph>
<glyph name="J" format="1">
  <advance width="424"/>
  <unicode hex="004A"/>
  <outline>
    <contour>
      <point x="154" y="786" type="line"/>
      <point x="154" y="11" type="line" smooth="yes"/>
      <point x="154" y="-87"/>
      <point x="133" y="-139"/>
      <point x="58" y="-234" type="curve"/>
      <point x="96" y="-264" type="line"/>
      <point x="288" y="-20" type="line"/>
      <point x="283" y="-4"/>
      <point x="279" y="45"/>
      <point x="279" y="99" type="curve" smooth="yes"/>
      <point x="279" y="786" type="line"/>
    </contour>
    <contour>
      <point x="50" y="786" type="line"/>
      <point x="30" y="746" type="line"/>
      <point x="268" y="672" type="line"/>
      <point x="374" y="755" type="line"/>
      <point x="374" y="786" type="line"/>
    </contour>
    <contour>
      <point x="217" y="786" type="move" name="top"/>
    </contour>
  </outline>
</glyph>
<glyph name="K" format="1">
  <advance width="860"/>
  <unicode hex="004B"/>
  <outline>
    <contour>
      <point x="548" y="786" type="line"/>
      <point x="528" y="746" type="line"/>
      <point x="662" y="648" type="line"/>
      <point x="714" y="723" type="line"/>
      <point x="337" y="394" type="line"/>
      <point x="647" y="0" type="line"/>
      <point x="828" y="0" type="line"/>
      <point x="848" y="40" type="line"/>
      <point x="695" y="114" type="line"/>
      <point x="774" y="43" type="line"/>
      <point x="438" y="464" type="line"/>
      <point x="440" y="426" type="line"/>
      <point x="817" y="755" type="line"/>
      <point x="817" y="786" type="line"/>
    </contour>
    <contour>
      <point x="60" y="31" type="line"/>
      <point x="60" y="0" type="line"/>
      <point x="364" y="0" type="line"/>
      <point x="384" y="40" type="line"/>
      <point x="166" y="114" type="line"/>
    </contour>
    <contour>
      <point x="154" y="786" type="line"/>
      <point x="154" y="0" type="line"/>
      <point x="279" y="0" type="line"/>
      <point x="279" y="786" type="line"/>
    </contour>
    <contour>
      <point x="70" y="786" type="line"/>
      <point x="50" y="746" type="line"/>
      <point x="268" y="672" type="line"/>
      <point x="374" y="755" type="line"/>
      <point x="374" y="786" type="line"/>
    </contour>
    <contour>
      <point x="455" y="786" type="move" name="top"/>
    </contour>
    <contour>
      <point x="455" y="0" type="move" name="bottom"/>
    </contour>
  </outline>
</glyph>
<glyph name="L" format="1">
  <advance width="784"/>
  <unicode hex="004C"/>
  <outline>
    <contour>
      <point x="60" y="31" type="line"/>
      <point x="60" y="0" type="line"/>
      <point x="201" y="0" type="line"/>
      <point x="221" y="40" type="line"/>
      <point x="166" y="114" type="line"/>
    </contour>
    <contour>
      <point x="154" y="786" type="line"/>
      <point x="154" y="0" type="line"/>
      <point x="279" y="0" type="line"/>
      <point x="279" y="786" type="line"/>
    </contour>
    <contour>
      <point x="374" y="755" type="line"/>
      <point x="374" y="786" type="line"/>
      <point x="70" y="786" type="line"/>
      <point x="50" y="746" type="line"/>
      <point x="268" y="672" type="line"/>
    </contour>
    <contour>
      <point x="706" y="45" type="line"/>
      <point x="218" y="45" type="line"/>
      <point x="218" y="0" type="line"/>
      <point x="706" y="0" type="line"/>
    </contour>
    <contour>
      <point x="714" y="-18" type="line"/>
      <point x="714" y="252" type="line"/>
      <point x="684" y="262" type="line"/>
      <point x="525" y="27" type="line"/>
      <point x="639" y="7" type="line"/>
    </contour>
    <contour>
      <point x="234" y="786" type="move" name="top"/>
    </contour>
    <contour>
      <point x="392" y="0" type="move" name="bottom"/>
    </contour>
    <contour>
      <point x="439" y="444" type="move" name="topright"/>
    </contour>
  </outline>
</glyph>
<glyph name="M" format="1">
  <advance width="1076"/>
  <unicode hex="004D"/>
  <outline>
    <contour>
      <point x="60" y="31" type="line"/>
      <point x="60" y="0" type="line"/>
      <point x="294" y="0" type="line"/>
      <point x="314" y="40" type="line"/>
      <point x="166" y="114" type="line"/>
    </contour>
    <contour>
      <point x="154" y="786" type="line"/>
      <point x="154" y="0" type="line"/>
      <point x="209" y="0" type="line"/>
      <point x="209" y="786" type="line"/>
    </contour>
    <contour>
      <point x="176" y="786" type="line"/>
      <point x="70" y="786" type="line"/>
      <point x="50" y="746" type="line"/>
      <point x="188" y="672" type="line"/>
    </contour>
    <contour>
      <point x="786" y="786" type="line"/>
      <point x="474" y="0" type="line"/>
      <point x="529" y="0" type="line"/>
      <point x="848" y="786" type="line"/>
    </contour>
    <contour>
      <point x="203" y="680" type="line"/>
      <point x="474" y="0" type="line"/>
      <point x="548" y="130" type="line"/>
      <point x="287" y="786" type="line"/>
      <point x="178" y="786" type="line"/>
    </contour>
    <contour>
      <point x="702" y="31" type="line"/>
      <point x="702" y="0" type="line"/>
      <point x="1006" y="0" type="line"/>
      <point x="1026" y="40" type="line"/>
      <point x="808" y="114" type="line"/>
    </contour>
    <contour>
      <point x="796" y="786" type="line"/>
      <point x="796" y="0" type="line"/>
      <point x="921" y="0" type="line"/>
      <point x="921" y="786" type="line"/>
    </contour>
    <contour>
      <point x="1016" y="755" type="line"/>
      <point x="1016" y="786" type="line"/>
      <point x="863" y="786" type="line"/>
      <point x="843" y="746" type="line"/>
      <point x="910" y="672" type="line"/>
    </contour>
  </outline>
</glyph>
<glyph name="N" format="1">
  <advance width="874"/>
  <unicode hex="004E"/>
  <outline>
    <contour>
      <point x="60" y="31" type="line"/>
      <point x="60" y="0" type="line"/>
      <point x="294" y="0" type="line"/>
      <point x="314" y="40" type="line"/>
      <point x="166" y="114" type="line"/>
    </contour>
    <contour>
      <point x="154" y="786" type="line"/>
      <point x="154" y="0" type="line"/>
      <point x="209" y="0" type="line"/>
      <point x="209" y="786" type="line"/>
    </contour>
    <contour>
      <point x="176" y="786" type="line"/>
      <point x="70" y="786" type="line"/>
      <point x="50" y="746" type="line"/>
      <point x="188" y="672" type="line"/>
    </contour>
    <contour>
      <point x="684" y="760" type="line"/>
      <point x="684" y="0" type="line"/>
      <point x="739" y="0" type="line"/>
      <point x="739" y="733" type="line"/>
    </contour>
    <contour>
      <point x="834" y="755" type="line"/>
      <point x="834" y="786" type="line"/>
      <point x="600" y="786" type="line"/>
      <point x="580" y="746" type="line"/>
      <point x="728" y="672" type="line"/>
    </contour>
    <contour>
      <point x="186" y="630" type="line"/>
      <point x="684" y="0" type="line"/>
      <point x="711" y="166" type="line"/>
      <point x="221" y="786" type="line"/>
      <point x="178" y="786" type="line"/>
    </contour>
    <contour>
      <point x="437" y="786" type="move" name="top"/>
    </contour>
    <contour>
      <point x="437" y="0" type="move" name="bottom"/>
    </contour>
  </outline>
</glyph>
<glyph name="O" format="1">
  <advance width="929"/>
  <unicode hex="004F"/>
  <outline>
	<contour>
	  <point x="321" y="806"/>
	  <point x="70" y="623"/>
	  <point x="70" y="375" type="curve" smooth="yes"/>
	  <point x="70" y="146"/>
	  <point x="214" y="-20"/>
	  <point x="429" y="-20" type="curve" smooth="yes"/>
	  <point x="608" y="-20"/>
	  <point x="859" y="163"/>
	  <point x="859" y="410" type="curve" smooth="yes"/>
	  <point x="859" y="639"/>
	  <point x="716" y="806"/>
	  <point x="500" y="806" type="curve" smooth="yes"/>
	</contour>
	<contour>
	  <point x="637" y="722"/>
	  <point x="724" y="554"/>
	  <point x="724" y="363" type="curve" smooth="yes"/>
	  <point x="724" y="190"/>
	  <point x="621" y="64"/>
	  <point x="487" y="64" type="curve" smooth="yes"/>
	  <point x="292" y="64"/>
	  <point x="205" y="234"/>
	  <point x="205" y="423" type="curve" smooth="yes"/>
	  <point x="205" y="596"/>
	  <point x="308" y="722"/>
	  <point x="442" y="722" type="curve" smooth="yes"/>
	</contour>
	<contour>
	  <point x="465" y="786" type="move" name="top"/>
	</contour>
  </outline>
</glyph>
<glyph name="P" format="1">
  <advance width="779"/>
  <unicode hex="0050"/>
  <outline>
	<contour>
	  <point x="154" y="786" type="line"/>
	  <point x="154" y="0" type="line"/>
	  <point x="279" y="0" type="line"/>
	  <point x="279" y="786" type="line"/>
	</contour>
	<contour>
	  <point x="537" y="301"/>
	  <point x="719" y="425"/>
	  <point x="719" y="570" type="curve" smooth="yes"/>
	  <point x="719" y="697"/>
	  <point x="624" y="796"/>
	  <point x="480" y="796" type="curve" smooth="yes"/>
	  <point x="393" y="796"/>
	  <point x="342" y="786"/>
	  <point x="186" y="786" type="curve"/>
	  <point x="203" y="605" type="line"/>
	  <point x="245" y="683"/>
	  <point x="317" y="732"/>
	  <point x="402" y="732" type="curve" smooth="yes"/>
	  <point x="527" y="732"/>
	  <point x="584" y="638"/>
	  <point x="584" y="523" type="curve" smooth="yes"/>
	  <point x="584" y="436"/>
	  <point x="527" y="384"/>
	  <point x="437" y="384" type="curve" smooth="yes"/>
	  <point x="356" y="384" type="line"/>
	  <point x="336" y="344" type="line"/>
	  <point x="383" y="310" type="line"/>
	</contour>
	<contour>
	  <point x="230" y="755" type="line"/>
	  <point x="230" y="786" type="line"/>
	  <point x="70" y="786" type="line"/>
	  <point x="50" y="746" type="line"/>
	  <point x="186" y="702" type="line"/>
	</contour>
	<contour>
	  <point x="60" y="31" type="line"/>
	  <point x="60" y="0" type="line"/>
	  <point x="414" y="0" type="line"/>
	  <point x="434" y="40" type="line"/>
	  <point x="166" y="114" type="line"/>
	</contour>
  </outline>
</glyph>
<glyph name="Q" format="1">
  <advance width="929"/>
  <unicode hex="0051"/>
  <outline>
    <contour>
      <point x="602" y="-46"/>
      <point x="781" y="-264"/>
      <point x="843" y="-264" type="curve" smooth="yes"/>
      <point x="880" y="-264"/>
      <point x="955" y="-239"/>
      <point x="1058" y="-190" type="curve"/>
      <point x="1038" y="-145" type="line"/>
      <point x="903" y="-145" type="line" smooth="yes"/>
      <point x="872" y="-145"/>
      <point x="664" y="9"/>
      <point x="577" y="77" type="curve"/>
      <point x="531" y="35" type="line"/>
    </contour>
    <component base="O"/>
  </outline>
</glyph>
<glyph name="S" format="1">
  <advance width="700"/>
  <unicode hex="0053"/>
  <outline>
    <contour>
      <point x="502" y="111"/>
      <point x="449" y="49"/>
      <point x="363" y="49" type="curve" smooth="yes"/>
      <point x="271" y="49"/>
      <point x="181" y="112"/>
      <point x="113" y="220" type="curve"/>
      <point x="75" y="220" type="line"/>
      <point x="75" y="26" type="line"/>
      <point x="127" y="3"/>
      <point x="271" y="-21"/>
      <point x="358" y="-21" type="curve" smooth="yes"/>
      <point x="467" y="-21"/>
      <point x="630" y="119"/>
      <point x="630" y="223" type="curve" smooth="yes"/>
      <point x="630" y="412"/>
      <point x="208" y="458"/>
      <point x="208" y="608" type="curve" smooth="yes"/>
      <point x="208" y="682"/>
      <point x="254" y="736"/>
      <point x="332" y="736" type="curve" smooth="yes"/>
      <point x="420" y="736"/>
      <point x="499" y="670"/>
      <point x="562" y="565" type="curve"/>
      <point x="600" y="565" type="line"/>
      <point x="600" y="759" type="line"/>
      <point x="550" y="782"/>
      <point x="419" y="806"/>
      <point x="336" y="806" type="curve" smooth="yes"/>
      <point x="231" y="806"/>
      <point x="80" y="665"/>
      <point x="80" y="562" type="curve" smooth="yes"/>
      <point x="80" y="372"/>
      <point x="502" y="320"/>
      <point x="502" y="177" type="curve" smooth="yes"/>
    </contour>
    <contour>
      <point x="340" y="786" type="move" name="top"/>
    </contour>
    <contour>
      <point x="339" y="0" type="move" name="bottom"/>
    </contour>
  </outline>
</glyph>
<glyph name="T" format="1">
  <advance width="832"/>
  <unicode hex="0054"/>
  <outline>
	<contour>
	  <point x="352" y="786" type="line"/>
	  <point x="352" y="0" type="line"/>
	  <point x="477" y="0" type="line"/>
	  <point x="477" y="786" type="line"/>
	</contour>
	<contour>
	  <point x="258" y="31" type="line"/>
	  <point x="258" y="0" type="line"/>
	  <point x="562" y="0" type="line"/>
	  <point x="582" y="40" type="line"/>
	  <point x="364" y="114" type="line"/>
	</contour>
	<contour>
	  <point x="70" y="554" type="line"/>
	  <point x="100" y="544" type="line"/>
	  <point x="243" y="756" type="line"/>
	  <point x="145" y="779" type="line"/>
	  <point x="70" y="804" type="line"/>
	</contour>
	<contour>
	  <point x="78" y="786" type="line"/>
	  <point x="78" y="741" type="line"/>
	  <point x="416" y="741" type="line"/>
	  <point x="416" y="786" type="line"/>
	</contour>
	<contour>
	  <point x="416" y="786" type="line"/>
	  <point x="416" y="741" type="line"/>
	  <point x="754" y="741" type="line"/>
	  <point x="754" y="786" type="line"/>
	</contour>
	<contour>
	  <point x="687" y="779" type="line"/>
	  <point x="589" y="756" type="line"/>
	  <point x="732" y="544" type="line"/>
	  <point x="762" y="554" type="line"/>
	  <point x="762" y="804" type="line"/>
	</contour>
	<contour>
	  <point x="416" y="393" type="move" name="center"/>
	</contour>
	<contour>
	  <point x="406" y="0" type="move" name="bottom"/>
	</contour>
	<contour>
	  <point x="416" y="786" type="move" name="top"/>
	</contour>
  </outline>
</glyph>
<glyph name="U" format="1">
  <advance width="898"/>
  <unicode hex="0055"/>
  <outline>
	<contour>
	  <point x="718" y="323" type="line" smooth="yes"/>
	  <point x="718" y="154"/>
	  <point x="611" y="64"/>
	  <point x="521" y="64" type="curve" smooth="yes"/>
	  <point x="347" y="64"/>
	  <point x="269" y="169"/>
	  <point x="269" y="333" type="curve" smooth="yes"/>
	  <point x="269" y="786" type="line"/>
	  <point x="144" y="786" type="line"/>
	  <point x="144" y="285" type="line" smooth="yes"/>
	  <point x="144" y="110"/>
	  <point x="272" y="-20"/>
	  <point x="453" y="-20" type="curve" smooth="yes"/>
	  <point x="584" y="-20"/>
	  <point x="773" y="85"/>
	  <point x="773" y="310" type="curve" smooth="yes"/>
	  <point x="773" y="786" type="line"/>
	  <point x="718" y="786" type="line"/>
	</contour>
	<contour>
	  <point x="60" y="786" type="line"/>
	  <point x="40" y="746" type="line"/>
	  <point x="258" y="672" type="line"/>
	  <point x="364" y="755" type="line"/>
	  <point x="364" y="786" type="line"/>
	</contour>
	<contour>
	  <point x="634" y="786" type="line"/>
	  <point x="614" y="746" type="line"/>
	  <point x="762" y="672" type="line"/>
	  <point x="868" y="755" type="line"/>
	  <point x="868" y="786" type="line"/>
	</contour>
	<contour>
	  <point x="540" y="0" type="move" name="ogonek"/>
	</contour>
	<contour>
	  <point x="462" y="786" type="move" name="top"/>
	</contour>
  </outline>
</glyph>
<glyph name="V" format="1">
  <advance width="873"/>
  <unicode hex="0056"/>
  <outline>
	<contour>
	  <point x="392" y="-19" type="line"/>
	  <point x="496" y="32" type="line"/>
	  <point x="811" y="755" type="line"/>
	  <point x="740" y="721" type="line"/>
	  <point x="439" y="27" type="line"/>
	  <point x="493" y="49" type="line"/>
	  <point x="214" y="721" type="line"/>
	  <point x="66" y="768" type="line"/>
	</contour>
	<contour>
	  <point x="20" y="786" type="line"/>
	  <point x="0" y="746" type="line"/>
	  <point x="175" y="640" type="line"/>
	  <point x="324" y="755" type="line"/>
	  <point x="324" y="786" type="line"/>
	</contour>
	<contour>
	  <point x="569" y="786" type="line"/>
	  <point x="549" y="746" type="line"/>
	  <point x="767" y="672" type="line"/>
	  <point x="873" y="755" type="line"/>
	  <point x="873" y="786" type="line"/>
	</contour>
  </outline>
</glyph>
<glyph name="W" format="1">
  <advance width="1195"/>
  <unicode hex="0057"/>
  <outline>
	<contour>
	  <point x="764" y="-19" type="line"/>
	  <point x="868" y="32" type="line"/>
	  <point x="1133" y="755" type="line"/>
	  <point x="1062" y="721" type="line"/>
	  <point x="811" y="27" type="line"/>
	  <point x="865" y="49" type="line"/>
	  <point x="646" y="721" type="line"/>
	  <point x="498" y="768" type="line"/>
	</contour>
	<contour>
	  <point x="352" y="-19" type="line"/>
	  <point x="456" y="32" type="line"/>
	  <point x="635" y="538" type="line"/>
	  <point x="594" y="573" type="line"/>
	  <point x="399" y="27" type="line"/>
	  <point x="453" y="49" type="line"/>
	  <point x="214" y="721" type="line"/>
	  <point x="66" y="768" type="line"/>
	</contour>
	<contour>
	  <point x="20" y="786" type="line"/>
	  <point x="0" y="746" type="line"/>
	  <point x="157" y="651" type="line"/>
	  <point x="294" y="755" type="line"/>
	  <point x="294" y="786" type="line"/>
	</contour>
	<contour>
	  <point x="452" y="786" type="line"/>
	  <point x="432" y="746" type="line"/>
	  <point x="602" y="643" type="line"/>
	  <point x="746" y="755" type="line"/>
	  <point x="746" y="786" type="line"/>
	</contour>
	<contour>
	  <point x="891" y="786" type="line"/>
	  <point x="871" y="746" type="line"/>
	  <point x="1089" y="672" type="line"/>
	  <point x="1195" y="755" type="line"/>
	  <point x="1195" y="786" type="line"/>
	</contour>
	<contour>
	  <point x="625" y="786" type="move" name="top"/>
	</contour>
  </outline>
</glyph>
<glyph name="X" format="1">
  <advance width="873"/>
  <unicode hex="0058"/>
  <outline>
    <contour>
      <point x="392" y="351" type="line"/>
      <point x="493" y="419" type="line"/>
      <point x="254" y="721" type="line"/>
      <point x="66" y="768" type="line"/>
    </contour>
    <contour>
      <point x="50" y="786" type="line"/>
      <point x="30" y="746" type="line"/>
      <point x="205" y="640" type="line"/>
      <point x="354" y="755" type="line"/>
      <point x="354" y="786" type="line"/>
    </contour>
    <contour>
      <point x="682" y="721" type="line"/>
      <point x="416" y="398" type="line"/>
      <point x="486" y="402" type="line"/>
      <point x="783" y="755" type="line"/>
    </contour>
    <contour>
      <point x="529" y="786" type="line"/>
      <point x="509" y="746" type="line"/>
      <point x="697" y="672" type="line"/>
      <point x="833" y="755" type="line"/>
      <point x="833" y="786" type="line"/>
    </contour>
    <contour>
      <point x="481" y="435" type="line"/>
      <point x="380" y="367" type="line"/>
      <point x="619" y="65" type="line"/>
      <point x="807" y="18" type="line"/>
    </contour>
    <contour>
      <point x="823" y="0" type="line"/>
      <point x="843" y="40" type="line"/>
      <point x="668" y="146" type="line"/>
      <point x="519" y="31" type="line"/>
      <point x="519" y="0" type="line"/>
    </contour>
    <contour>
      <point x="171" y="65" type="line"/>
      <point x="457" y="388" type="line"/>
      <point x="387" y="384" type="line"/>
      <point x="70" y="31" type="line"/>
    </contour>
    <contour>
      <point x="324" y="0" type="line"/>
      <point x="344" y="40" type="line"/>
      <point x="156" y="114" type="line"/>
      <point x="20" y="31" type="line"/>
      <point x="20" y="0" type="line"/>
    </contour>
  </outline>
</glyph>
<glyph name="Z" format="1">
  <advance width="790"/>
  <unicode hex="005A"/>
  <outline>
	<contour>
	  <point x="100" y="564" type="line"/>
	  <point x="130" y="554" type="line"/>
	  <point x="273" y="766" type="line"/>
	  <point x="175" y="779" type="line"/>
	  <point x="100" y="804" type="line"/>
	</contour>
	<contour>
	  <point x="108" y="786" type="line"/>
	  <point x="108" y="741" type="line"/>
	  <point x="716" y="741" type="line"/>
	  <point x="716" y="786" type="line"/>
	</contour>
	<contour>
	  <point x="706" y="242" type="line"/>
	  <point x="676" y="252" type="line"/>
	  <point x="533" y="40" type="line"/>
	  <point x="631" y="7" type="line"/>
	  <point x="706" y="-18" type="line"/>
	</contour>
	<contour>
	  <point x="698" y="0" type="line"/>
	  <point x="698" y="45" type="line"/>
	  <point x="69" y="45" type="line"/>
	  <point x="69" y="0" type="line"/>
	</contour>
	<contour>
	  <point x="194" y="15" type="line"/>
	  <point x="716" y="741" type="line"/>
	  <point x="595" y="776" type="line"/>
	  <point x="69" y="45" type="line"/>
	</contour>
	<contour>
	  <point x="395" y="786" type="move" name="top"/>
	</contour>
  </outline>
</glyph>
<glyph name="bracketleft" format="1">
  <advance width="435"/>
  <unicode hex="005B"/>
  <outline>
	<contour>
	  <point x="120" y="954" type="line"/>
	  <point x="120" y="-210" type="line"/>
	  <point x="240" y="-210" type="line"/>
	  <point x="240" y="954" type="line"/>
	</contour>
	<contour>
	  <point x="191" y="-165" type="line"/>
	  <point x="191" y="-210" type="line"/>
	  <point x="385" y="-210" type="line"/>
	  <point x="385" y="-165" type="line"/>
	</contour>
	<contour>
	  <point x="191" y="954" type="line"/>
	  <point x="191" y="909" type="line"/>
	  <point x="385" y="909" type="line"/>
	  <point x="385" y="954" type="line"/>
	</contour>
  </outline>
</glyph>
<glyph name="grave" format="1">
  <advance width="380"/>
  <unicode hex="0060"/>
  <outline>
    <contour>
      <point x="79" y="873" type="line"/>
      <point x="60" y="849" type="line"/>
      <point x="280" y="676" type="line"/>
      <point x="320" y="696" type="line"/>
      <point x="213" y="892" type="line"/>
    </contour>
    <contour>
      <point x="259" y="531" type="move" name="_top"/>
    </contour>
  </outline>
</glyph>
<glyph name="a" format="1">
  <advance width="621"/>
  <unicode hex="0061"/>
  <outline>
    <contour>
      <point x="288" y="541"/>
      <point x="254" y="540"/>
      <point x="219" y="533" type="curve"/>
      <point x="75" y="419" type="line"/>
      <point x="105" y="381" type="line"/>
      <point x="178" y="442"/>
      <point x="226" y="456"/>
      <point x="257" y="456" type="curve" smooth="yes"/>
      <point x="330" y="456"/>
      <point x="386" y="429"/>
      <point x="386" y="337" type="curve" smooth="yes"/>
      <point x="386" y="0" type="line"/>
      <point x="506" y="0" type="line"/>
      <point x="506" y="367" type="line" smooth="yes"/>
      <point x="506" y="481"/>
      <point x="435" y="541"/>
      <point x="315" y="541" type="curve" smooth="yes"/>
    </contour>
    <contour>
      <point x="160" y="273" type="line"/>
      <point x="96" y="232"/>
      <point x="60" y="184"/>
      <point x="60" y="136" type="curve" smooth="yes"/>
      <point x="60" y="67"/>
      <point x="98" y="-10"/>
      <point x="223" y="-10" type="curve" smooth="yes"/>
      <point x="237" y="-10"/>
      <point x="258" y="-8"/>
      <point x="273" y="-2" type="curve"/>
      <point x="450" y="138" type="line"/>
      <point x="420" y="161" type="line"/>
      <point x="341" y="86"/>
      <point x="289" y="75"/>
      <point x="255" y="75" type="curve" smooth="yes"/>
      <point x="211" y="75"/>
      <point x="185" y="118"/>
      <point x="185" y="165" type="curve" smooth="yes"/>
      <point x="185" y="189"/>
      <point x="190" y="210"/>
      <point x="209" y="232" type="curve"/>
      <point x="411" y="232" type="line"/>
      <point x="411" y="273" type="line"/>
    </contour>
    <contour>
      <point x="397" y="31" type="line"/>
      <point x="397" y="0" type="line"/>
      <point x="576" y="0" type="line"/>
      <point x="596" y="40" type="line"/>
      <point x="403" y="114" type="line"/>
    </contour>
    <contour>
      <point x="576" y="0" type="move" name="ogonek"/>
    </contour>
    <contour>
      <point x="299" y="531" type="move" name="top"/>
    </contour>
  </outline>
</glyph>
<glyph name="b" format="1">
  <advance width="705"/>
  <unicode hex="0062"/>
  <outline>
    <contour>
      <point x="423" y="541"/>
      <point x="396" y="540"/>
      <point x="368" y="533" type="curve"/>
      <point x="191" y="393" type="line"/>
      <point x="221" y="370" type="line"/>
      <point x="301" y="445"/>
      <point x="347" y="456"/>
      <point x="394" y="456" type="curve" smooth="yes"/>
      <point x="468" y="456"/>
      <point x="505" y="352"/>
      <point x="505" y="235" type="curve" smooth="yes"/>
      <point x="505" y="130"/>
      <point x="468" y="74"/>
      <point x="392" y="74" type="curve" smooth="yes"/>
      <point x="285" y="74"/>
      <point x="234" y="134"/>
      <point x="234" y="203" type="curve"/>
      <point x="134" y="248" type="line"/>
      <point x="134" y="105"/>
      <point x="217" y="-10"/>
      <point x="334" y="-10" type="curve" smooth="yes"/>
      <point x="465" y="-10"/>
      <point x="635" y="121"/>
      <point x="635" y="283" type="curve" smooth="yes"/>
      <point x="635" y="427"/>
      <point x="555" y="541"/>
      <point x="445" y="541" type="curve" smooth="yes"/>
    </contour>
    <contour>
      <point x="114" y="805" type="line"/>
      <point x="114" y="0" type="line"/>
      <point x="152" y="0" type="line"/>
      <point x="234" y="114" type="line"/>
      <point x="234" y="805" type="line"/>
    </contour>
    <contour>
      <point x="196" y="873" type="line"/>
      <point x="25" y="809" type="line"/>
      <point x="25" y="778" type="line"/>
      <point x="197" y="658" type="line"/>
      <point x="234" y="722" type="line"/>
      <point x="234" y="873" type="line"/>
    </contour>
  </outline>
</glyph>
<glyph name="c" format="1">
  <advance width="613"/>
  <unicode hex="0063"/>
  <outline>
	<contour>
	  <point x="228" y="541"/>
	  <point x="70" y="410"/>
	  <point x="70" y="248" type="curve" smooth="yes"/>
	  <point x="70" y="104"/>
	  <point x="166" y="-10"/>
	  <point x="300" y="-10" type="curve" smooth="yes"/>
	  <point x="327" y="-10"/>
	  <point x="361" y="-9"/>
	  <point x="396" y="-2" type="curve"/>
	  <point x="550" y="119" type="line"/>
	  <point x="520" y="157" type="line"/>
	  <point x="442" y="96"/>
	  <point x="391" y="75"/>
	  <point x="358" y="75" type="curve" smooth="yes"/>
	  <point x="251" y="75"/>
	  <point x="200" y="178"/>
	  <point x="200" y="296" type="curve" smooth="yes"/>
	  <point x="200" y="401"/>
	  <point x="231" y="457"/>
	  <point x="293" y="457" type="curve" smooth="yes"/>
	  <point x="366" y="457"/>
	  <point x="436" y="416"/>
	  <point x="487" y="350" type="curve"/>
	  <point x="525" y="350" type="line"/>
	  <point x="525" y="504" type="line"/>
	  <point x="493" y="522"/>
	  <point x="407" y="541"/>
	  <point x="351" y="541" type="curve" smooth="yes"/>
	</contour>
	<contour>
	  <point x="317" y="531" type="move" name="top"/>
	</contour>
	<contour>
	  <point x="316" y="0" type="move" name="bottom"/>
	</contour>
  </outline>
</glyph>
<glyph name="d" format="1">
  <advance width="705"/>
  <unicode hex="0064"/>
  <outline>
	<contour>
	  <point x="240" y="541"/>
	  <point x="70" y="410"/>
	  <point x="70" y="248" type="curve" smooth="yes"/>
	  <point x="70" y="104"/>
	  <point x="166" y="-10"/>
	  <point x="300" y="-10" type="curve" smooth="yes"/>
	  <point x="322" y="-10"/>
	  <point x="349" y="-9"/>
	  <point x="377" y="-2" type="curve"/>
	  <point x="554" y="138" type="line"/>
	  <point x="524" y="161" type="line"/>
	  <point x="444" y="86"/>
	  <point x="398" y="75"/>
	  <point x="351" y="75" type="curve" smooth="yes"/>
	  <point x="249" y="75"/>
	  <point x="200" y="179"/>
	  <point x="200" y="296" type="curve" smooth="yes"/>
	  <point x="200" y="401"/>
	  <point x="237" y="457"/>
	  <point x="313" y="457" type="curve" smooth="yes"/>
	  <point x="420" y="457"/>
	  <point x="471" y="397"/>
	  <point x="471" y="328" type="curve"/>
	  <point x="571" y="283" type="line"/>
	  <point x="571" y="426"/>
	  <point x="488" y="541"/>
	  <point x="371" y="541" type="curve" smooth="yes"/>
	</contour>
	<contour>
	  <point x="481" y="31" type="line"/>
	  <point x="481" y="0" type="line"/>
	  <point x="660" y="0" type="line"/>
	  <point x="680" y="40" type="line"/>
	  <point x="487" y="114" type="line"/>
	</contour>
	<contour>
	  <point x="470" y="779" type="line"/>
	  <point x="470" y="0" type="line"/>
	  <point x="590" y="0" type="line"/>
	  <point x="590" y="873" type="line"/>
	</contour>
	<contour>
	  <point x="552" y="873" type="line"/>
	  <point x="381" y="809" type="line"/>
	  <point x="381" y="778" type="line"/>
	  <point x="553" y="658" type="line"/>
	  <point x="590" y="873" type="line"/>
	</contour>
	<contour>
	  <point x="353" y="266" type="move" name="center"/>
	</contour>
	<contour>
	  <point x="670" y="531" type="move" name="topright"/>
	</contour>
	<contour>
	  <point x="496" y="658" type="move" name="centre"/>
	</contour>
  </outline>
</glyph>
<glyph name="e" format="1">
  <advance width="643"/>
  <unicode hex="0065"/>
  <outline>
	<contour>
	  <point x="240" y="541"/>
	  <point x="70" y="410"/>
	  <point x="70" y="248" type="curve" smooth="yes"/>
	  <point x="70" y="104"/>
	  <point x="166" y="-10"/>
	  <point x="300" y="-10" type="curve" smooth="yes"/>
	  <point x="327" y="-10"/>
	  <point x="361" y="-9"/>
	  <point x="396" y="-2" type="curve"/>
	  <point x="573" y="138" type="line"/>
	  <point x="543" y="176" type="line"/>
	  <point x="454" y="101"/>
	  <point x="396" y="75"/>
	  <point x="358" y="75" type="curve" smooth="yes"/>
	  <point x="251" y="75"/>
	  <point x="200" y="178"/>
	  <point x="200" y="296" type="curve" smooth="yes"/>
	  <point x="200" y="401"/>
	  <point x="237" y="457"/>
	  <point x="313" y="457" type="curve" smooth="yes"/>
	  <point x="416" y="457"/>
	  <point x="421" y="385"/>
	  <point x="437" y="293" type="curve"/>
	  <point x="472" y="309" type="line"/>
	  <point x="163" y="309" type="line"/>
	  <point x="163" y="268" type="line"/>
	  <point x="571" y="268" type="line"/>
	  <point x="571" y="428"/>
	  <point x="500" y="541"/>
	  <point x="371" y="541" type="curve" smooth="yes"/>
	</contour>
	<contour>
	  <point x="398" y="0" type="move" name="ogonek"/>
	</contour>
	<contour>
	  <point x="322" y="0" type="move" name="bottom"/>
	</contour>
	<contour>
	  <point x="322" y="531" type="move" name="top"/>
	</contour>
  </outline>
</glyph>
<glyph name="g" format="1">
  <advance width="640"/>
  <unicode hex="0067"/>
  <outline>
	<contour>
	  <point x="201" y="541"/>
	  <point x="70" y="434"/>
	  <point x="70" y="321" type="curve" smooth="yes"/>
	  <point x="70" y="229"/>
	  <point x="154" y="150"/>
	  <point x="262" y="150" type="curve" smooth="yes"/>
	  <point x="391" y="150"/>
	  <point x="521" y="257"/>
	  <point x="521" y="370" type="curve" smooth="yes"/>
	  <point x="521" y="462"/>
	  <point x="438" y="541"/>
	  <point x="330" y="541" type="curve" smooth="yes"/>
	</contour>
	<contour>
	  <point x="355" y="457"/>
	  <point x="411" y="403"/>
	  <point x="411" y="323" type="curve" smooth="yes"/>
	  <point x="411" y="263"/>
	  <point x="378" y="234"/>
	  <point x="319" y="234" type="curve" smooth="yes"/>
	  <point x="236" y="234"/>
	  <point x="180" y="289"/>
	  <point x="180" y="370" type="curve" smooth="yes"/>
	  <point x="180" y="429"/>
	  <point x="213" y="457"/>
	  <point x="271" y="457" type="curve" smooth="yes"/>
	</contour>
	<contour>
	  <point x="361" y="501" type="line"/>
	  <point x="361" y="460" type="line"/>
	  <point x="610" y="460" type="line"/>
	  <point x="610" y="501" type="line"/>
	</contour>
	<contour>
	  <point x="564" y="21"/>
	  <point x="311" y="48"/>
	  <point x="311" y="105" type="curve" smooth="yes"/>
	  <point x="311" y="130"/>
	  <point x="326" y="154"/>
	  <point x="350" y="173" type="curve"/>
	  <point x="324" y="163" type="line"/>
	  <point x="267" y="145"/>
	  <point x="188" y="100"/>
	  <point x="188" y="59" type="curve" smooth="yes"/>
	  <point x="188" y="-17"/>
	  <point x="440" y="-44"/>
	  <point x="440" y="-124" type="curve" smooth="yes"/>
	  <point x="440" y="-154"/>
	  <point x="401" y="-194"/>
	  <point x="343" y="-194" type="curve" smooth="yes"/>
	  <point x="240" y="-194"/>
	  <point x="167" y="-138"/>
	  <point x="98" y="-53" type="curve"/>
	  <point x="60" y="-53" type="line"/>
	  <point x="60" y="-207" type="line"/>
	  <point x="110" y="-226"/>
	  <point x="235" y="-264"/>
	  <point x="320" y="-264" type="curve" smooth="yes"/>
	  <point x="433" y="-264"/>
	  <point x="564" y="-130"/>
	  <point x="564" y="-70" type="curve" smooth="yes"/>
	</contour>
	<contour>
	  <point x="305" y="621" type="move" name="g"/>
	</contour>
	<contour>
	  <point x="305" y="531" type="move" name="top"/>
	</contour>
  </outline>
</glyph>
<glyph name="h" format="1">
  <advance width="699"/>
  <unicode hex="0068"/>
  <outline>
	<contour>
	  <point x="415" y="541"/>
	  <point x="399" y="540"/>
	  <point x="381" y="533" type="curve"/>
	  <point x="204" y="393" type="line"/>
	  <point x="234" y="370" type="line"/>
	  <point x="304" y="427"/>
	  <point x="346" y="436"/>
	  <point x="386" y="436" type="curve" smooth="yes"/>
	  <point x="444" y="436"/>
	  <point x="464" y="411"/>
	  <point x="464" y="337" type="curve" smooth="yes"/>
	  <point x="464" y="0" type="line"/>
	  <point x="584" y="0" type="line"/>
	  <point x="584" y="387" type="line" smooth="yes"/>
	  <point x="584" y="481"/>
	  <point x="527" y="541"/>
	  <point x="436" y="541" type="curve" smooth="yes"/>
	</contour>
	<contour>
	  <point x="475" y="31" type="line"/>
	  <point x="475" y="0" type="line"/>
	  <point x="654" y="0" type="line"/>
	  <point x="674" y="40" type="line"/>
	  <point x="481" y="114" type="line"/>
	</contour>
	<component base="l"/>
	<contour>
	  <point x="350" y="873" type="move" name="top"/>
	</contour>
	<contour>
	  <point x="223" y="658" type="move" name="centre"/>
	</contour>
  </outline>
</glyph>
<glyph name="k" format="1">
  <advance width="689"/>
  <unicode hex="006B"/>
  <outline>
	<contour>
	  <point x="647" y="500" type="line"/>
	  <point x="647" y="531" type="line"/>
	  <point x="408" y="531" type="line"/>
	  <point x="388" y="491" type="line"/>
	  <point x="495" y="413" type="line"/>
	  <point x="547" y="474" type="line"/>
	  <point x="297" y="264" type="line"/>
	  <point x="485" y="0" type="line"/>
	  <point x="654" y="0" type="line"/>
	  <point x="674" y="40" type="line"/>
	  <point x="481" y="114" type="line"/>
	  <point x="607" y="43" type="line"/>
	  <point x="393" y="334" type="line"/>
	  <point x="397" y="290" type="line"/>
	</contour>
	<component base="l"/>
	<contour>
	  <point x="355" y="0" type="move" name="bottom"/>
	</contour>
  </outline>
</glyph>
<glyph name="m" format="1">
  <advance width="1039"/>
  <unicode hex="006D"/>
  <outline>
	<contour>
	  <point x="425" y="541"/>
	  <point x="409" y="540"/>
	  <point x="391" y="533" type="curve"/>
	  <point x="224" y="393" type="line"/>
	  <point x="254" y="370" type="line"/>
	  <point x="319" y="427"/>
	  <point x="359" y="436"/>
	  <point x="396" y="436" type="curve" smooth="yes"/>
	  <point x="454" y="436"/>
	  <point x="474" y="411"/>
	  <point x="474" y="337" type="curve" smooth="yes"/>
	  <point x="474" y="0" type="line"/>
	  <point x="594" y="0" type="line"/>
	  <point x="594" y="387" type="line" smooth="yes"/>
	  <point x="594" y="481"/>
	  <point x="537" y="541"/>
	  <point x="446" y="541" type="curve" smooth="yes"/>
	</contour>
	<contour>
	  <point x="55" y="31" type="line"/>
	  <point x="55" y="0" type="line"/>
	  <point x="334" y="0" type="line"/>
	  <point x="354" y="40" type="line"/>
	  <point x="161" y="114" type="line"/>
	</contour>
	<contour>
	  <point x="144" y="456" type="line"/>
	  <point x="144" y="0" type="line"/>
	  <point x="264" y="0" type="line"/>
	  <point x="264" y="399" type="line"/>
	</contour>
	<contour>
	  <point x="485" y="31" type="line"/>
	  <point x="485" y="0" type="line"/>
	  <point x="664" y="0" type="line"/>
	  <point x="684" y="40" type="line"/>
	  <point x="491" y="114" type="line"/>
	</contour>
	<contour>
	  <point x="55" y="466" type="line"/>
	  <point x="55" y="435" type="line"/>
	  <point x="227" y="335" type="line"/>
	  <point x="264" y="399" type="line"/>
	  <point x="226" y="550" type="line"/>
	</contour>
	<contour>
	  <point x="755" y="541"/>
	  <point x="739" y="540"/>
	  <point x="721" y="533" type="curve"/>
	  <point x="554" y="393" type="line"/>
	  <point x="584" y="370" type="line"/>
	  <point x="649" y="427"/>
	  <point x="689" y="436"/>
	  <point x="726" y="436" type="curve" smooth="yes"/>
	  <point x="784" y="436"/>
	  <point x="804" y="411"/>
	  <point x="804" y="337" type="curve" smooth="yes"/>
	  <point x="804" y="0" type="line"/>
	  <point x="924" y="0" type="line"/>
	  <point x="924" y="387" type="line" smooth="yes"/>
	  <point x="924" y="481"/>
	  <point x="867" y="541"/>
	  <point x="776" y="541" type="curve" smooth="yes"/>
	</contour>
	<contour>
	  <point x="815" y="31" type="line"/>
	  <point x="815" y="0" type="line"/>
	  <point x="994" y="0" type="line"/>
	  <point x="1014" y="40" type="line"/>
	  <point x="821" y="114" type="line"/>
	</contour>
  </outline>
</glyph>
<glyph name="n" format="1">
  <advance width="719"/>
  <unicode hex="006E"/>
  <outline>
	<contour>
	  <point x="435" y="541"/>
	  <point x="419" y="540"/>
	  <point x="401" y="533" type="curve"/>
	  <point x="224" y="393" type="line"/>
	  <point x="254" y="370" type="line"/>
	  <point x="324" y="427"/>
	  <point x="366" y="436"/>
	  <point x="406" y="436" type="curve" smooth="yes"/>
	  <point x="464" y="436"/>
	  <point x="484" y="411"/>
	  <point x="484" y="337" type="curve" smooth="yes"/>
	  <point x="484" y="0" type="line"/>
	  <point x="604" y="0" type="line"/>
	  <point x="604" y="387" type="line" smooth="yes"/>
	  <point x="604" y="481"/>
	  <point x="547" y="541"/>
	  <point x="456" y="541" type="curve" smooth="yes"/>
	</contour>
	<contour>
	  <point x="55" y="31" type="line"/>
	  <point x="55" y="0" type="line"/>
	  <point x="334" y="0" type="line"/>
	  <point x="354" y="40" type="line"/>
	  <point x="161" y="114" type="line"/>
	</contour>
	<contour>
	  <point x="144" y="456" type="line"/>
	  <point x="144" y="0" type="line"/>
	  <point x="264" y="0" type="line"/>
	  <point x="264" y="399" type="line"/>
	</contour>
	<contour>
	  <point x="495" y="31" type="line"/>
	  <point x="495" y="0" type="line"/>
	  <point x="674" y="0" type="line"/>
	  <point x="694" y="40" type="line"/>
	  <point x="501" y="114" type="line"/>
	</contour>
	<contour>
	  <point x="55" y="466" type="line"/>
	  <point x="55" y="435" type="line"/>
	  <point x="227" y="335" type="line"/>
	  <point x="264" y="399" type="line"/>
	  <point x="226" y="550" type="line"/>
	</contour>
	<contour>
	  <point x="350" y="531" type="move" name="top"/>
	</contour>
	<contour>
	  <point x="390" y="0" type="move" name="bottom"/>
	</contour>
  </outline>
</glyph>
<glyph name="o" format="1">
  <advance width="671"/>
  <unicode hex="006F"/>
  <outline>
	<contour>
	  <point x="240" y="541"/>
	  <point x="70" y="410"/>
	  <point x="70" y="248" type="curve" smooth="yes"/>
	  <point x="70" y="104"/>
	  <point x="166" y="-10"/>
	  <point x="300" y="-10" type="curve" smooth="yes"/>
	  <point x="431" y="-10"/>
	  <point x="601" y="121"/>
	  <point x="601" y="283" type="curve" smooth="yes"/>
	  <point x="601" y="426"/>
	  <point x="506" y="541"/>
	  <point x="371" y="541" type="curve" smooth="yes"/>
	</contour>
	<contour>
	  <point x="420" y="457"/>
	  <point x="471" y="354"/>
	  <point x="471" y="236" type="curve" smooth="yes"/>
	  <point x="471" y="130"/>
	  <point x="434" y="74"/>
	  <point x="358" y="74" type="curve" smooth="yes"/>
	  <point x="251" y="74"/>
	  <point x="200" y="178"/>
	  <point x="200" y="296" type="curve" smooth="yes"/>
	  <point x="200" y="401"/>
	  <point x="237" y="457"/>
	  <point x="313" y="457" type="curve" smooth="yes"/>
	</contour>
	<contour>
	  <point x="336" y="531" type="move" name="top"/>
	</contour>
  </outline>
</glyph>
<glyph name="r" format="1">
  <advance width="519"/>
  <unicode hex="0072"/>
  <outline>
    <contour>
      <point x="55" y="466" type="line"/>
      <point x="55" y="435" type="line"/>
      <point x="227" y="335" type="line"/>
      <point x="264" y="399" type="line"/>
      <point x="226" y="550" type="line"/>
    </contour>
    <contour>
      <point x="55" y="31" type="line"/>
      <point x="55" y="0" type="line"/>
      <point x="384" y="0" type="line"/>
      <point x="404" y="40" type="line"/>
      <point x="161" y="114" type="line"/>
    </contour>
    <contour>
      <point x="395" y="541"/>
      <point x="379" y="540"/>
      <point x="361" y="533" type="curve"/>
      <point x="224" y="393" type="line"/>
      <point x="254" y="370" type="line"/>
      <point x="305" y="427"/>
      <point x="339" y="436"/>
      <point x="366" y="436" type="curve" smooth="yes"/>
      <point x="390" y="436"/>
      <point x="403" y="423"/>
      <point x="409" y="390" type="curve"/>
      <point x="447" y="390" type="line"/>
      <point x="513" y="473" type="line"/>
      <point x="495" y="516"/>
      <point x="460" y="541"/>
      <point x="416" y="541" type="curve" smooth="yes"/>
    </contour>
    <contour>
      <point x="144" y="0" type="line"/>
      <point x="264" y="0" type="line"/>
      <point x="264" y="399" type="line"/>
      <point x="144" y="456" type="line"/>
    </contour>
    <contour>
      <point x="270" y="531" type="move" name="top"/>
    </contour>
    <contour>
      <point x="208" y="0" type="move" name="bottom"/>
    </contour>
  </outline>
</glyph>
<glyph name="s" format="1">
  <advance width="559"/>
  <unicode hex="0073"/>
  <outline>
    <contour>
      <point x="377" y="77"/>
      <point x="348" y="50"/>
      <point x="303" y="50" type="curve" smooth="yes"/>
      <point x="239" y="50"/>
      <point x="170" y="97"/>
      <point x="123" y="181" type="curve"/>
      <point x="85" y="181" type="line"/>
      <point x="85" y="27" type="line"/>
      <point x="123" y="9"/>
      <point x="232" y="-10"/>
      <point x="298" y="-10" type="curve" smooth="yes"/>
      <point x="375" y="-10"/>
      <point x="490" y="88"/>
      <point x="490" y="164" type="curve" smooth="yes"/>
      <point x="490" y="288"/>
      <point x="203" y="325"/>
      <point x="203" y="423" type="curve" smooth="yes"/>
      <point x="203" y="455"/>
      <point x="229" y="481"/>
      <point x="272" y="481" type="curve" smooth="yes"/>
      <point x="332" y="481"/>
      <point x="390" y="431"/>
      <point x="432" y="350" type="curve"/>
      <point x="470" y="350" type="line"/>
      <point x="470" y="504" type="line"/>
      <point x="434" y="522"/>
      <point x="338" y="541"/>
      <point x="276" y="541" type="curve" smooth="yes"/>
      <point x="199" y="541"/>
      <point x="90" y="442"/>
      <point x="90" y="367" type="curve" smooth="yes"/>
      <point x="90" y="242"/>
      <point x="377" y="199"/>
      <point x="377" y="108" type="curve" smooth="yes"/>
    </contour>
    <contour>
      <point x="290" y="531" type="move" name="top"/>
    </contour>
    <contour>
      <point x="275" y="0" type="move" name="bottom"/>
    </contour>
  </outline>
</glyph>
<glyph name="u" format="1">
  <advance width="699"/>
  <unicode hex="0075"/>
  <outline>
	<contour>
	  <point x="124" y="480" type="line"/>
	  <point x="124" y="144" type="line" smooth="yes"/>
	  <point x="124" y="50"/>
	  <point x="181" y="-10"/>
	  <point x="272" y="-10" type="curve" smooth="yes"/>
	  <point x="293" y="-10"/>
	  <point x="309" y="-9"/>
	  <point x="327" y="-2" type="curve"/>
	  <point x="494" y="138" type="line"/>
	  <point x="464" y="161" type="line"/>
	  <point x="399" y="104"/>
	  <point x="359" y="95"/>
	  <point x="322" y="95" type="curve" smooth="yes"/>
	  <point x="264" y="95"/>
	  <point x="244" y="120"/>
	  <point x="244" y="194" type="curve" smooth="yes"/>
	  <point x="244" y="531" type="line"/>
	</contour>
	<contour>
	  <point x="206" y="550" type="line"/>
	  <point x="35" y="466" type="line"/>
	  <point x="35" y="435" type="line"/>
	  <point x="207" y="335" type="line"/>
	  <point x="244" y="399" type="line"/>
	  <point x="244" y="550" type="line"/>
	</contour>
	<contour>
	  <point x="465" y="31" type="line"/>
	  <point x="465" y="0" type="line"/>
	  <point x="644" y="0" type="line"/>
	  <point x="664" y="40" type="line"/>
	  <point x="471" y="114" type="line"/>
	</contour>
	<contour>
	  <point x="454" y="481" type="line"/>
	  <point x="454" y="0" type="line"/>
	  <point x="574" y="0" type="line"/>
	  <point x="574" y="531" type="line"/>
	</contour>
	<contour>
	  <point x="536" y="550" type="line"/>
	  <point x="365" y="466" type="line"/>
	  <point x="365" y="435" type="line"/>
	  <point x="537" y="335" type="line"/>
	  <point x="574" y="399" type="line"/>
	  <point x="574" y="550" type="line"/>
	</contour>
	<contour>
	  <point x="644" y="0" type="move" name="ogonek"/>
	</contour>
	<contour>
	  <point x="355" y="531" type="move" name="top"/>
	</contour>
  </outline>
</glyph>
<glyph name="w" format="1">
  <advance width="899"/>
  <unicode hex="0077"/>
  <outline>
    <contour>
      <point x="314" y="466" type="line"/>
      <point x="314" y="435" type="line"/>
      <point x="486" y="335" type="line"/>
      <point x="380" y="446" type="line"/>
      <point x="563" y="0" type="line"/>
      <point x="639" y="0" type="line"/>
      <point x="862" y="500" type="line"/>
      <point x="862" y="531" type="line"/>
      <point x="643" y="531" type="line"/>
      <point x="623" y="491" type="line"/>
      <point x="786" y="373" type="line"/>
      <point x="795" y="466" type="line"/>
      <point x="615" y="47" type="line"/>
      <point x="659" y="68" type="line"/>
      <point x="523" y="399" type="line"/>
      <point x="485" y="550" type="line"/>
    </contour>
    <contour>
      <point x="5" y="466" type="line"/>
      <point x="5" y="435" type="line"/>
      <point x="177" y="335" type="line"/>
      <point x="71" y="446" type="line"/>
      <point x="254" y="0" type="line"/>
      <point x="330" y="0" type="line"/>
      <point x="486" y="309" type="line"/>
      <point x="456" y="360" type="line"/>
      <point x="310" y="47" type="line"/>
      <point x="350" y="68" type="line"/>
      <point x="214" y="399" type="line"/>
      <point x="176" y="550" type="line"/>
    </contour>
    <contour>
      <point x="450" y="531" type="move" name="top"/>
    </contour>
  </outline>
</glyph>
<glyph name="x" format="1">
  <advance width="618"/>
  <unicode hex="0078"/>
  <outline>
    <contour>
      <point x="592" y="500" type="line"/>
      <point x="592" y="531" type="line"/>
      <point x="373" y="531" type="line"/>
      <point x="353" y="491" type="line"/>
      <point x="469" y="408" type="line"/>
      <point x="491" y="466" type="line"/>
      <point x="289" y="277" type="line"/>
      <point x="309" y="230" type="line"/>
    </contour>
    <contour>
      <point x="19" y="30" type="line"/>
      <point x="19" y="-1" type="line"/>
      <point x="238" y="-1" type="line"/>
      <point x="258" y="39" type="line"/>
      <point x="141" y="124" type="line"/>
      <point x="120" y="64" type="line"/>
      <point x="322" y="253" type="line"/>
      <point x="302" y="300" type="line"/>
    </contour>
    <contour>
      <point x="434" y="0" type="line"/>
      <point x="583" y="0" type="line"/>
      <point x="603" y="40" type="line"/>
      <point x="420" y="154" type="line"/>
      <point x="554" y="43" type="line"/>
      <point x="353" y="304" type="line"/>
      <point x="259" y="234" type="line"/>
    </contour>
    <contour>
      <point x="184" y="531" type="line"/>
      <point x="35" y="531" type="line"/>
      <point x="15" y="491" type="line"/>
      <point x="198" y="377" type="line"/>
      <point x="63" y="488" type="line"/>
      <point x="264" y="227" type="line"/>
      <point x="359" y="297" type="line"/>
    </contour>
  </outline>
</glyph>
<glyph name="braceleft" format="1">
  <advance width="496"/>
  <unicode hex="007B"/>
  <outline>
	<contour>
	  <point x="292" y="903"/>
	  <point x="225" y="809"/>
	  <point x="225" y="701" type="curve" smooth="yes"/>
	  <point x="225" y="573" type="line" smooth="yes"/>
	  <point x="225" y="468"/>
	  <point x="194" y="412"/>
	  <point x="132" y="412" type="curve" smooth="yes"/>
	  <point x="40" y="412" type="line"/>
	  <point x="40" y="345" type="line"/>
	  <point x="74" y="333" type="line"/>
	  <point x="193" y="333"/>
	  <point x="345" y="459"/>
	  <point x="345" y="621" type="curve" smooth="yes"/>
	  <point x="345" y="764" type="line" smooth="yes"/>
	  <point x="345" y="842"/>
	  <point x="361" y="895"/>
	  <point x="396" y="915" type="curve"/>
	  <point x="372" y="954" type="line"/>
	</contour>
	<contour>
	  <point x="40" y="399" type="line"/>
	  <point x="40" y="332" type="line"/>
	  <point x="132" y="332" type="line" smooth="yes"/>
	  <point x="194" y="332"/>
	  <point x="225" y="276"/>
	  <point x="225" y="171" type="curve" smooth="yes"/>
	  <point x="225" y="43" type="line" smooth="yes"/>
	  <point x="225" y="-65"/>
	  <point x="292" y="-159"/>
	  <point x="372" y="-210" type="curve"/>
	  <point x="396" y="-171" type="line"/>
	  <point x="361" y="-151"/>
	  <point x="345" y="-98"/>
	  <point x="345" y="-20" type="curve" smooth="yes"/>
	  <point x="345" y="123" type="line" smooth="yes"/>
	  <point x="345" y="285"/>
	  <point x="193" y="411"/>
	  <point x="74" y="411" type="curve"/>
	</contour>
  </outline>
</glyph>
<glyph name="exclamdown" format="1">
  <advance width="349"/>
  <unicode hex="00A1"/>
  <outline>
	<contour>
	  <point x="148" y="289" type="line"/>
	  <point x="95" y="-254" type="line"/>
	  <point x="133" y="-254" type="line"/>
	  <point x="269" y="-204" type="line"/>
	  <point x="269" y="-173" type="line"/>
	  <point x="208" y="289" type="line"/>
	</contour>
	<component base="period" xOffset="13" yOffset="386"/>
  </outline>
</glyph>
<glyph name="sterling" format="1">
  <advance width="721"/>
  <unicode hex="00A3"/>
  <outline>
	<contour>
	  <point x="322" y="806"/>
	  <point x="164" y="675"/>
	  <point x="164" y="513" type="curve" smooth="yes"/>
	  <point x="164" y="165" type="line"/>
	  <point x="43" y="38" type="line"/>
	  <point x="43" y="0" type="line"/>
	  <point x="586" y="0" type="line"/>
	  <point x="641" y="-18" type="line"/>
	  <point x="641" y="192" type="line"/>
	  <point x="611" y="202" type="line"/>
	  <point x="551" y="49" type="line"/>
	  <point x="629" y="121" type="line"/>
	  <point x="178" y="121" type="line"/>
	  <point x="184" y="110" type="line"/>
	  <point x="245" y="165"/>
	  <point x="284" y="247"/>
	  <point x="284" y="314" type="curve" smooth="yes"/>
	  <point x="284" y="561" type="line" smooth="yes"/>
	  <point x="284" y="666"/>
	  <point x="318" y="722"/>
	  <point x="387" y="722" type="curve" smooth="yes"/>
	  <point x="460" y="722"/>
	  <point x="530" y="681"/>
	  <point x="581" y="615" type="curve"/>
	  <point x="619" y="615" type="line"/>
	  <point x="619" y="769" type="line"/>
	  <point x="587" y="787"/>
	  <point x="501" y="806"/>
	  <point x="445" y="806" type="curve" smooth="yes"/>
	</contour>
	<contour>
	  <point x="31" y="391" type="line"/>
	  <point x="10" y="350" type="line"/>
	  <point x="459" y="350" type="line"/>
	  <point x="480" y="391" type="line"/>
	</contour>
  </outline>
</glyph>
<glyph name="yen" format="1">
  <advance width="803"/>
  <unicode hex="00A5"/>
  <outline>
	<contour>
	  <point x="87" y="342" type="line"/>
	  <point x="66" y="301" type="line"/>
	  <point x="711" y="301" type="line"/>
	  <point x="732" y="342" type="line"/>
	</contour>
	<contour>
	  <point x="87" y="202" type="line"/>
	  <point x="66" y="161" type="line"/>
	  <point x="711" y="161" type="line"/>
	  <point x="732" y="202" type="line"/>
	</contour>
	<component base="Y"/>
  </outline>
</glyph>
<glyph name="brokenbar" format="1">
  <advance width="373"/>
  <unicode hex="00A6"/>
  <outline>
    <contour>
      <point x="159" y="986" type="line"/>
      <point x="159" y="523" type="line"/>
      <point x="214" y="523" type="line"/>
      <point x="214" y="986" type="line"/>
    </contour>
    <contour>
      <point x="159" y="263" type="line"/>
      <point x="159" y="-200" type="line"/>
      <point x="214" y="-200" type="line"/>
      <point x="214" y="263" type="line"/>
    </contour>
  </outline>
</glyph>
<glyph name="section" format="1">
  <advance width="675"/>
  <unicode hex="00A7"/>
  <outline>
	<contour>
	  <point x="247" y="72"/>
	  <point x="226" y="39"/>
	  <point x="198" y="39" type="curve" smooth="yes"/>
	  <point x="163" y="39"/>
	  <point x="123" y="79"/>
	  <point x="98" y="140" type="curve"/>
	  <point x="60" y="140" type="line"/>
	  <point x="60" y="-34" type="line"/>
	  <point x="112" y="-57"/>
	  <point x="256" y="-81"/>
	  <point x="343" y="-81" type="curve" smooth="yes"/>
	  <point x="455" y="-81"/>
	  <point x="615" y="62"/>
	  <point x="615" y="163" type="curve" smooth="yes"/>
	  <point x="615" y="342"/>
	  <point x="433" y="464"/>
	  <point x="433" y="608" type="curve" smooth="yes"/>
	  <point x="433" y="652"/>
	  <point x="445" y="686"/>
	  <point x="467" y="686" type="curve" smooth="yes"/>
	  <point x="496" y="686"/>
	  <point x="528" y="654"/>
	  <point x="547" y="585" type="curve"/>
	  <point x="585" y="585" type="line"/>
	  <point x="585" y="759" type="line"/>
	  <point x="535" y="782"/>
	  <point x="404" y="806"/>
	  <point x="321" y="806" type="curve" smooth="yes"/>
	  <point x="216" y="806"/>
	  <point x="65" y="665"/>
	  <point x="65" y="562" type="curve" smooth="yes"/>
	  <point x="65" y="382"/>
	  <point x="247" y="254"/>
	  <point x="247" y="117" type="curve" smooth="yes"/>
	</contour>
	<contour>
	  <point x="331" y="456"/>
	  <point x="518" y="304"/>
	  <point x="518" y="151" type="curve" smooth="yes"/>
	  <point x="518" y="75"/>
	  <point x="415" y="-23"/>
	  <point x="346" y="-23" type="curve" smooth="yes"/>
	  <point x="300" y="-23"/>
	  <point x="262" y="-21"/>
	  <point x="233" y="-15" type="curve"/>
	  <point x="316" y="29"/>
	  <point x="345" y="71"/>
	  <point x="345" y="125" type="curve" smooth="yes"/>
	  <point x="345" y="262"/>
	  <point x="158" y="420"/>
	  <point x="158" y="574" type="curve" smooth="yes"/>
	  <point x="158" y="649"/>
	  <point x="257" y="748"/>
	  <point x="330" y="748" type="curve" smooth="yes"/>
	  <point x="376" y="748"/>
	  <point x="414" y="746"/>
	  <point x="443" y="740" type="curve"/>
	  <point x="360" y="696"/>
	  <point x="331" y="654"/>
	  <point x="331" y="600" type="curve" smooth="yes"/>
	</contour>
  </outline>
</glyph>
<glyph name="dieresis" format="1">
  <advance width="600"/>
  <unicode hex="00A8"/>
  <outline>
    <component base="period" xOffset="17" yOffset="699" xScale="0.9" yScale="0.95"/>
    <component base="period" xOffset="287" yOffset="699" xScale="0.9" yScale="0.95"/>
    <contour>
      <point x="305" y="531" type="move" name="_top"/>
    </contour>
  </outline>
</glyph>
<glyph name="copyright" format="1">
  <advance width="1009"/>
  <unicode hex="00A9"/>
  <outline>
	<contour>
	  <point x="345" y="806"/>
	  <point x="70" y="623"/>
	  <point x="70" y="375" type="curve" smooth="yes"/>
	  <point x="70" y="146"/>
	  <point x="230" y="-20"/>
	  <point x="469" y="-20" type="curve" smooth="yes"/>
	  <point x="664" y="-20"/>
	  <point x="939" y="163"/>
	  <point x="939" y="410" type="curve" smooth="yes"/>
	  <point x="939" y="639"/>
	  <point x="780" y="806"/>
	  <point x="540" y="806" type="curve" smooth="yes"/>
	</contour>
	<contour>
	  <point x="422" y="624"/>
	  <point x="288" y="515"/>
	  <point x="288" y="381" type="curve" smooth="yes"/>
	  <point x="288" y="267"/>
	  <point x="368" y="173"/>
	  <point x="478" y="173" type="curve" smooth="yes"/>
	  <point x="505" y="173"/>
	  <point x="539" y="174"/>
	  <point x="574" y="181" type="curve"/>
	  <point x="688" y="272" type="line"/>
	  <point x="658" y="310" type="line"/>
	  <point x="600" y="271"/>
	  <point x="561" y="258"/>
	  <point x="536" y="258" type="curve" smooth="yes"/>
	  <point x="457" y="258"/>
	  <point x="418" y="336"/>
	  <point x="418" y="429" type="curve" smooth="yes"/>
	  <point x="418" y="501"/>
	  <point x="437" y="540"/>
	  <point x="471" y="540" type="curve" smooth="yes"/>
	  <point x="528" y="540"/>
	  <point x="586" y="499"/>
	  <point x="625" y="433" type="curve"/>
	  <point x="663" y="433" type="line"/>
	  <point x="663" y="587" type="line"/>
	  <point x="639" y="605"/>
	  <point x="573" y="624"/>
	  <point x="529" y="624" type="curve" smooth="yes"/>
	</contour>
	<contour>
	  <point x="719" y="722"/>
	  <point x="824" y="554"/>
	  <point x="824" y="363" type="curve" smooth="yes"/>
	  <point x="824" y="190"/>
	  <point x="697" y="64"/>
	  <point x="527" y="64" type="curve" smooth="yes"/>
	  <point x="290" y="64"/>
	  <point x="185" y="234"/>
	  <point x="185" y="423" type="curve" smooth="yes"/>
	  <point x="185" y="596"/>
	  <point x="312" y="722"/>
	  <point x="482" y="722" type="curve" smooth="yes"/>
	</contour>
  </outline>
</glyph>
<glyph name="guillemotleft" format="1">
  <advance width="669"/>
  <unicode hex="00AB"/>
  <outline>
    <contour>
      <point x="330" y="267" type="line"/>
      <point x="521" y="86" type="line"/>
      <point x="556" y="111" type="line"/>
      <point x="468" y="357" type="line"/>
      <point x="458" y="217" type="line"/>
      <point x="556" y="423" type="line"/>
      <point x="521" y="448" type="line"/>
    </contour>
    <component base="guilsinglleft"/>
  </outline>
</glyph>
<glyph name="logicalnot" format="1">
  <advance width="578"/>
  <unicode hex="00AC"/>
  <outline>
	<contour>
	  <point x="447" y="309" type="line"/>
	  <point x="447" y="85" type="line"/>
	  <point x="488" y="85" type="line"/>
	  <point x="488" y="309" type="line"/>
	</contour>
	<component base="minus"/>
  </outline>
</glyph>
<glyph name="registered" format="1">
  <advance width="1009"/>
  <unicode hex="00AE"/>
  <outline>
    <contour>
      <point x="507" y="620"/>
      <point x="476" y="610"/>
      <point x="370" y="610" type="curve"/>
      <point x="427" y="499" type="line"/>
      <point x="441" y="535"/>
      <point x="459" y="556"/>
      <point x="486" y="556" type="curve" smooth="yes"/>
      <point x="548" y="556"/>
      <point x="578" y="522"/>
      <point x="578" y="477" type="curve" smooth="yes"/>
      <point x="578" y="436"/>
      <point x="553" y="413"/>
      <point x="511" y="413" type="curve" smooth="yes"/>
      <point x="465" y="413"/>
      <point x="428" y="430"/>
      <point x="409" y="456" type="curve"/>
      <point x="441" y="369" type="line"/>
      <point x="460" y="369"/>
      <point x="468" y="365"/>
      <point x="483" y="365" type="curve" smooth="yes"/>
      <point x="578" y="365"/>
      <point x="703" y="437"/>
      <point x="703" y="514" type="curve" smooth="yes"/>
      <point x="703" y="575"/>
      <point x="648" y="620"/>
      <point x="564" y="620" type="curve" smooth="yes"/>
    </contour>
    <contour>
      <point x="284" y="214" type="line"/>
      <point x="284" y="183" type="line"/>
      <point x="414" y="183" type="line"/>
      <point x="434" y="223" type="line"/>
      <point x="380" y="297" type="line"/>
    </contour>
    <contour>
      <point x="348" y="610" type="line"/>
      <point x="348" y="183" type="line"/>
      <point x="463" y="183" type="line"/>
      <point x="463" y="610" type="line"/>
    </contour>
    <contour>
      <point x="439" y="369" type="line"/>
      <point x="491" y="369"/>
      <point x="506" y="352"/>
      <point x="522" y="319" type="curve" smooth="yes"/>
      <point x="587" y="183" type="line"/>
      <point x="733" y="183" type="line"/>
      <point x="753" y="223" type="line"/>
      <point x="600" y="297" type="line"/>
      <point x="700" y="223" type="line"/>
      <point x="642" y="345" type="line"/>
      <point x="525" y="381" type="line"/>
    </contour>
    <contour>
      <point x="294" y="610" type="line"/>
      <point x="274" y="570" type="line"/>
      <point x="400" y="526" type="line"/>
      <point x="414" y="579" type="line"/>
      <point x="414" y="610" type="line"/>
    </contour>
    <contour>
      <point x="345" y="806"/>
      <point x="70" y="623"/>
      <point x="70" y="375" type="curve" smooth="yes"/>
      <point x="70" y="146"/>
      <point x="230" y="-20"/>
      <point x="469" y="-20" type="curve" smooth="yes"/>
      <point x="664" y="-20"/>
      <point x="939" y="163"/>
      <point x="939" y="410" type="curve" smooth="yes"/>
      <point x="939" y="639"/>
      <point x="780" y="806"/>
      <point x="540" y="806" type="curve" smooth="yes"/>
    </contour>
    <contour>
      <point x="719" y="722"/>
      <point x="824" y="554"/>
      <point x="824" y="363" type="curve" smooth="yes"/>
      <point x="824" y="190"/>
      <point x="697" y="64"/>
      <point x="527" y="64" type="curve" smooth="yes"/>
      <point x="290" y="64"/>
      <point x="185" y="234"/>
      <point x="185" y="423" type="curve" smooth="yes"/>
      <point x="185" y="596"/>
      <point x="312" y="722"/>
      <point x="482" y="722" type="curve" smooth="yes"/>
    </contour>
  </outline>
</glyph>
<glyph name="degree" format="1">
  <advance width="431"/>
  <unicode hex="00B0"/>
  <outline>
    <contour>
      <point x="144" y="883"/>
      <point x="40" y="813"/>
      <point x="40" y="709" type="curve" smooth="yes"/>
      <point x="40" y="637"/>
      <point x="89" y="572"/>
      <point x="176" y="572" type="curve" smooth="yes"/>
      <point x="266" y="572"/>
      <point x="371" y="641"/>
      <point x="371" y="747" type="curve" smooth="yes"/>
      <point x="371" y="819"/>
      <point x="322" y="883"/>
      <point x="235" y="883" type="curve" smooth="yes"/>
    </contour>
    <contour>
      <point x="258" y="819"/>
      <point x="291" y="763"/>
      <point x="291" y="716" type="curve" smooth="yes"/>
      <point x="291" y="666"/>
      <point x="254" y="636"/>
      <point x="212" y="636" type="curve" smooth="yes"/>
      <point x="156" y="636"/>
      <point x="120" y="691"/>
      <point x="120" y="741" type="curve" smooth="yes"/>
      <point x="120" y="792"/>
      <point x="157" y="819"/>
      <point x="198" y="819" type="curve" smooth="yes"/>
    </contour>
  </outline>
</glyph>
<glyph name="micro" format="1">
  <advance width="696"/>
  <unicode hex="00B5"/>
  <outline>
    <contour>
      <point x="210" y="550" type="line"/>
      <point x="70" y="481" type="line"/>
      <point x="104" y="443"/>
      <point x="129" y="395"/>
      <point x="128" y="359" type="curve" smooth="yes"/>
      <point x="128" y="144" type="line" smooth="yes"/>
      <point x="128" y="50"/>
      <point x="185" y="-10"/>
      <point x="276" y="-10" type="curve" smooth="yes"/>
      <point x="297" y="-10"/>
      <point x="313" y="-9"/>
      <point x="331" y="-2" type="curve"/>
      <point x="498" y="138" type="line"/>
      <point x="468" y="161" type="line"/>
      <point x="403" y="104"/>
      <point x="363" y="95"/>
      <point x="326" y="95" type="curve" smooth="yes"/>
      <point x="268" y="95"/>
      <point x="248" y="120"/>
      <point x="248" y="194" type="curve" smooth="yes"/>
      <point x="248" y="550" type="line"/>
    </contour>
    <contour>
      <point x="128" y="212" type="line"/>
      <point x="128" y="-254" type="line"/>
      <point x="166" y="-254" type="line"/>
      <point x="306" y="-185" type="line"/>
      <point x="272" y="-147"/>
      <point x="247" y="-99"/>
      <point x="248" y="-63" type="curve" smooth="yes"/>
      <point x="248" y="212" type="line"/>
    </contour>
    <contour>
      <point x="540" y="550" type="line"/>
      <point x="400" y="481" type="line"/>
      <point x="434" y="443"/>
      <point x="458" y="395"/>
      <point x="458" y="359" type="curve" smooth="yes"/>
      <point x="458" y="-10" type="line"/>
      <point x="496" y="-10" type="line"/>
      <point x="636" y="59" type="line"/>
      <point x="602" y="97"/>
      <point x="578" y="145"/>
      <point x="578" y="181" type="curve" smooth="yes"/>
      <point x="578" y="550" type="line"/>
    </contour>
  </outline>
</glyph>
<glyph name="paragraph" format="1">
  <advance width="832"/>
  <unicode hex="00B6"/>
  <outline>
    <contour>
      <point x="205" y="796"/>
      <point x="50" y="681"/>
      <point x="50" y="536" type="curve" smooth="yes"/>
      <point x="50" y="409"/>
      <point x="129" y="310"/>
      <point x="249" y="310" type="curve" smooth="yes"/>
      <point x="324" y="310"/>
      <point x="367" y="320"/>
      <point x="503" y="320" type="curve"/>
      <point x="502" y="786" type="line"/>
      <point x="413" y="786"/>
      <point x="391" y="796"/>
      <point x="320" y="796" type="curve" smooth="yes"/>
    </contour>
    <contour>
      <point x="348" y="-223" type="line"/>
      <point x="348" y="-254" type="line"/>
      <point x="490" y="-254" type="line"/>
      <point x="501" y="-103" type="line"/>
    </contour>
    <contour>
      <point x="652" y="-254" type="line"/>
      <point x="762" y="-254" type="line"/>
      <point x="782" y="-214" type="line"/>
      <point x="641" y="-166" type="line"/>
    </contour>
    <contour>
      <point x="472" y="786" type="line"/>
      <point x="472" y="-254" type="line"/>
      <point x="527" y="-254" type="line"/>
      <point x="527" y="786" type="line"/>
    </contour>
    <contour>
      <point x="622" y="786" type="line"/>
      <point x="622" y="-254" type="line"/>
      <point x="677" y="-254" type="line"/>
      <point x="677" y="786" type="line"/>
    </contour>
    <contour>
      <point x="657" y="786" type="line"/>
      <point x="666" y="672" type="line"/>
      <point x="772" y="755" type="line"/>
      <point x="772" y="786" type="line"/>
    </contour>
  </outline>
</glyph>
<glyph name="cedilla" format="1">
  <advance width="600"/>
  <unicode hex="00B8"/>
  <outline>
	<contour>
	  <point x="351" y="-257"/>
	  <point x="412" y="-225"/>
	  <point x="412" y="-163" type="curve" smooth="yes"/>
	  <point x="412" y="-123"/>
	  <point x="390" y="-94"/>
	  <point x="314" y="-36" type="curve"/>
	  <point x="310" y="-62" type="line"/>
	  <point x="342" y="-35"/>
	  <point x="404" y="14"/>
	  <point x="436" y="41" type="curve"/>
	  <point x="406" y="64" type="line"/>
	  <point x="363" y="28"/>
	  <point x="291" y="-30"/>
	  <point x="248" y="-66" type="curve"/>
	  <point x="296" y="-95"/>
	  <point x="313" y="-116"/>
	  <point x="313" y="-145" type="curve" smooth="yes"/>
	  <point x="313" y="-184"/>
	  <point x="282" y="-213"/>
	  <point x="220" y="-233" type="curve"/>
	  <point x="220" y="-264" type="line"/>
	</contour>
	<contour>
	  <point x="303" y="0" type="move" name="_bottom"/>
	</contour>
  </outline>
</glyph>
<glyph name="questiondown" format="1">
  <advance width="404"/>
  <unicode hex="00BF"/>
  <outline>
	<contour>
	  <point x="138" y="224" type="line"/>
	  <point x="138" y="193" type="line"/>
	  <point x="162" y="171"/>
	  <point x="180" y="146"/>
	  <point x="180" y="116" type="curve" smooth="yes"/>
	  <point x="180" y="61"/>
	  <point x="0" y="-1"/>
	  <point x="0" y="-96" type="curve" smooth="yes"/>
	  <point x="0" y="-179"/>
	  <point x="137" y="-264"/>
	  <point x="209" y="-264" type="curve" smooth="yes"/>
	  <point x="236" y="-264"/>
	  <point x="270" y="-263"/>
	  <point x="305" y="-256" type="curve"/>
	  <point x="404" y="-179" type="line"/>
	  <point x="374" y="-141" type="line"/>
	  <point x="322" y="-171"/>
	  <point x="289" y="-179"/>
	  <point x="267" y="-179" type="curve" smooth="yes"/>
	  <point x="191" y="-179"/>
	  <point x="113" y="-89"/>
	  <point x="113" y="-40" type="curve" smooth="yes"/>
	  <point x="113" y="19"/>
	  <point x="293" y="80"/>
	  <point x="293" y="172" type="curve" smooth="yes"/>
	  <point x="293" y="213"/>
	  <point x="272" y="247"/>
	  <point x="243" y="276" type="curve"/>
	</contour>
	<component base="period" xOffset="44" yOffset="386"/>
  </outline>
</glyph>
<glyph name="multiply" format="1">
  <advance width="509"/>
  <unicode hex="00D7"/>
  <outline>
	<contour>
	  <point x="469" y="123" type="line"/>
	  <point x="440" y="94" type="line"/>
	  <point x="40" y="494" type="line"/>
	  <point x="69" y="523" type="line"/>
	</contour>
	<contour>
	  <point x="469" y="494" type="line"/>
	  <point x="69" y="94" type="line"/>
	  <point x="40" y="123" type="line"/>
	  <point x="440" y="523" type="line"/>
	</contour>
  </outline>
</glyph>
<glyph name="Oslash" format="1">
  <advance width="929"/>
  <unicode hex="00D8"/>
  <outline>
	<contour>
	  <point x="753" y="935" type="line"/>
	  <point x="139" y="-128" type="line"/>
	  <point x="177" y="-150" type="line"/>
	  <point x="791" y="913" type="line"/>
	</contour>
	<component base="O" yOffset="-1"/>
  </outline>
</glyph>
<glyph name="Thorn" format="1">
  <advance width="779"/>
  <unicode hex="00DE"/>
  <outline>
	<contour>
	  <point x="60" y="31" type="line"/>
	  <point x="60" y="0" type="line"/>
	  <point x="364" y="0" type="line"/>
	  <point x="384" y="40" type="line"/>
	  <point x="166" y="114" type="line"/>
	</contour>
	<contour>
	  <point x="154" y="786" type="line"/>
	  <point x="154" y="0" type="line"/>
	  <point x="279" y="0" type="line"/>
	  <point x="279" y="786" type="line"/>
	</contour>
	<contour>
	  <point x="70" y="786" type="line"/>
	  <point x="50" y="746" type="line"/>
	  <point x="268" y="672" type="line"/>
	  <point x="374" y="755" type="line"/>
	  <point x="374" y="786" type="line"/>
	</contour>
	<contour>
	  <point x="584" y="296"/>
	  <point x="527" y="256"/>
	  <point x="437" y="256" type="curve" smooth="yes"/>
	  <point x="356" y="256" type="line"/>
	  <point x="336" y="216" type="line"/>
	  <point x="383" y="182" type="line"/>
	  <point x="537" y="173"/>
	  <point x="719" y="285"/>
	  <point x="719" y="412" type="curve" smooth="yes"/>
	  <point x="719" y="521"/>
	  <point x="624" y="608"/>
	  <point x="480" y="608" type="curve" smooth="yes"/>
	  <point x="393" y="608"/>
	  <point x="342" y="598"/>
	  <point x="186" y="598" type="curve"/>
	  <point x="203" y="417" type="line"/>
	  <point x="245" y="495"/>
	  <point x="317" y="544"/>
	  <point x="402" y="544" type="curve" smooth="yes"/>
	  <point x="527" y="544"/>
	  <point x="584" y="463"/>
	  <point x="584" y="365" type="curve" smooth="yes"/>
	</contour>
  </outline>
</glyph>
<glyph name="oslash" format="1">
  <advance width="671"/>
  <unicode hex="00F8"/>
  <outline>
    <contour>
      <point x="549" y="678" type="line"/>
      <point x="85" y="-126" type="line"/>
      <point x="121" y="-147" type="line"/>
      <point x="585" y="657" type="line"/>
    </contour>
    <component base="o"/>
  </outline>
</glyph>
<glyph name="thorn" format="1">
  <advance width="714"/>
  <unicode hex="00FE"/>
  <outline>
	<contour>
	  <point x="432" y="541"/>
	  <point x="405" y="540"/>
	  <point x="377" y="533" type="curve"/>
	  <point x="200" y="393" type="line"/>
	  <point x="230" y="370" type="line"/>
	  <point x="310" y="445"/>
	  <point x="356" y="456"/>
	  <point x="403" y="456" type="curve" smooth="yes"/>
	  <point x="477" y="456"/>
	  <point x="514" y="352"/>
	  <point x="514" y="235" type="curve" smooth="yes"/>
	  <point x="514" y="130"/>
	  <point x="477" y="74"/>
	  <point x="401" y="74" type="curve" smooth="yes"/>
	  <point x="294" y="74"/>
	  <point x="243" y="134"/>
	  <point x="243" y="203" type="curve"/>
	  <point x="143" y="248" type="line"/>
	  <point x="143" y="105"/>
	  <point x="226" y="-10"/>
	  <point x="343" y="-10" type="curve" smooth="yes"/>
	  <point x="474" y="-10"/>
	  <point x="644" y="121"/>
	  <point x="644" y="283" type="curve" smooth="yes"/>
	  <point x="644" y="427"/>
	  <point x="564" y="541"/>
	  <point x="454" y="541" type="curve" smooth="yes"/>
	</contour>
	<contour>
	  <point x="35" y="-223" type="line"/>
	  <point x="35" y="-254" type="line"/>
	  <point x="364" y="-254" type="line"/>
	  <point x="384" y="-214" type="line"/>
	  <point x="141" y="-140" type="line"/>
	</contour>
	<contour>
	  <point x="124" y="799" type="line"/>
	  <point x="124" y="-254" type="line"/>
	  <point x="244" y="-254" type="line"/>
	  <point x="244" y="873" type="line"/>
	</contour>
	<contour>
	  <point x="206" y="873" type="line"/>
	  <point x="35" y="809" type="line"/>
	  <point x="35" y="778" type="line"/>
	  <point x="207" y="658" type="line"/>
	  <point x="244" y="873" type="line"/>
	</contour>
  </outline>
</glyph>
<glyph name="Hbar" format="1">
  <advance width="954"/>
  <unicode hex="0126"/>
  <outline>
	<contour>
	  <point x="954" y="594" type="line"/>
	  <point x="0" y="594" type="line"/>
	  <point x="0" y="549" type="line"/>
	  <point x="954" y="549" type="line"/>
	</contour>
	<component base="H"/>
  </outline>
</glyph>
<glyph name="Lslash" format="1">
  <advance width="784"/>
  <unicode hex="0141"/>
  <outline>
    <contour>
      <point x="215" y="283" type="line"/>
      <point x="556" y="552" type="line"/>
      <point x="556" y="609" type="line"/>
      <point x="215" y="340" type="line"/>
    </contour>
    <contour>
      <point x="215" y="384" type="line"/>
      <point x="0" y="214" type="line"/>
      <point x="0" y="157" type="line"/>
      <point x="215" y="327" type="line"/>
    </contour>
    <component base="L"/>
  </outline>
</glyph>
<glyph name="eng" format="1">
  <advance width="719"/>
  <unicode hex="014B"/>
  <outline>
    <contour>
      <point x="435" y="541"/>
      <point x="419" y="540"/>
      <point x="401" y="533" type="curve"/>
      <point x="224" y="393" type="line"/>
      <point x="254" y="370" type="line"/>
      <point x="324" y="427"/>
      <point x="366" y="436"/>
      <point x="406" y="436" type="curve" smooth="yes"/>
      <point x="464" y="436"/>
      <point x="484" y="411"/>
      <point x="484" y="337" type="curve" smooth="yes"/>
      <point x="484" y="11" type="line" smooth="yes"/>
      <point x="484" y="-87"/>
      <point x="463" y="-139"/>
      <point x="383" y="-234" type="curve"/>
      <point x="421" y="-264" type="line"/>
      <point x="613" y="-20" type="line"/>
      <point x="608" y="-4"/>
      <point x="604" y="45"/>
      <point x="604" y="99" type="curve" smooth="yes"/>
      <point x="604" y="387" type="line" smooth="yes"/>
      <point x="604" y="481"/>
      <point x="547" y="541"/>
      <point x="456" y="541" type="curve" smooth="yes"/>
    </contour>
    <contour>
      <point x="55" y="31" type="line"/>
      <point x="55" y="0" type="line"/>
      <point x="334" y="0" type="line"/>
      <point x="354" y="40" type="line"/>
      <point x="161" y="114" type="line"/>
    </contour>
    <contour>
      <point x="144" y="0" type="line"/>
      <point x="264" y="0" type="line"/>
      <point x="264" y="399" type="line"/>
      <point x="144" y="456" type="line"/>
    </contour>
    <contour>
      <point x="55" y="466" type="line"/>
      <point x="55" y="435" type="line"/>
      <point x="227" y="335" type="line"/>
      <point x="264" y="399" type="line"/>
      <point x="226" y="550" type="line"/>
    </contour>
    <contour>
      <point x="350" y="531" type="move" name="top"/>
    </contour>
  </outline>
</glyph>
<glyph name="oe" format="1">
  <advance width="972"/>
  <unicode hex="0153"/>
  <outline>
	<contour>
	  <point x="228" y="541"/>
	  <point x="70" y="410"/>
	  <point x="70" y="248" type="curve" smooth="yes"/>
	  <point x="70" y="104"/>
	  <point x="158" y="-10"/>
	  <point x="280" y="-10" type="curve" smooth="yes"/>
	  <point x="403" y="-10"/>
	  <point x="561" y="121"/>
	  <point x="561" y="283" type="curve" smooth="yes"/>
	  <point x="561" y="426"/>
	  <point x="474" y="541"/>
	  <point x="351" y="541" type="curve" smooth="yes"/>
	</contour>
	<contour>
	  <point x="386" y="457"/>
	  <point x="431" y="354"/>
	  <point x="431" y="236" type="curve" smooth="yes"/>
	  <point x="431" y="130"/>
	  <point x="400" y="74"/>
	  <point x="338" y="74" type="curve" smooth="yes"/>
	  <point x="245" y="74"/>
	  <point x="200" y="178"/>
	  <point x="200" y="296" type="curve" smooth="yes"/>
	  <point x="200" y="401"/>
	  <point x="231" y="457"/>
	  <point x="293" y="457" type="curve" smooth="yes"/>
	</contour>
	<contour>
	  <point x="595" y="541"/>
	  <point x="431" y="410"/>
	  <point x="431" y="248" type="curve" smooth="yes"/>
	  <point x="431" y="104"/>
	  <point x="523" y="-10"/>
	  <point x="646" y="-10" type="curve" smooth="yes"/>
	  <point x="673" y="-10"/>
	  <point x="707" y="-9"/>
	  <point x="742" y="-2" type="curve"/>
	  <point x="900" y="124" type="line"/>
	  <point x="870" y="162" type="line"/>
	  <point x="795" y="101"/>
	  <point x="740" y="75"/>
	  <point x="704" y="75" type="curve" smooth="yes"/>
	  <point x="609" y="75"/>
	  <point x="561" y="178"/>
	  <point x="561" y="296" type="curve" smooth="yes"/>
	  <point x="561" y="401"/>
	  <point x="595" y="457"/>
	  <point x="664" y="457" type="curve" smooth="yes"/>
	  <point x="751" y="457"/>
	  <point x="754" y="385"/>
	  <point x="768" y="293" type="curve"/>
	  <point x="803" y="309" type="line"/>
	  <point x="524" y="309" type="line"/>
	  <point x="524" y="268" type="line"/>
	  <point x="902" y="268" type="line"/>
	  <point x="902" y="428"/>
	  <point x="839" y="541"/>
	  <point x="722" y="541" type="curve" smooth="yes"/>
	</contour>
  </outline>
</glyph>
<glyph name="Tbar" format="1">
  <advance width="832"/>
  <unicode hex="0166"/>
  <outline>
    <contour>
      <point x="667" y="414" type="line"/>
      <point x="165" y="414" type="line"/>
      <point x="165" y="369" type="line"/>
      <point x="667" y="369" type="line"/>
    </contour>
    <component base="T"/>
  </outline>
</glyph>
<glyph name="Uogonek" format="1">
  <advance width="898"/>
  <unicode hex="0172"/>
  <outline>
    <contour>
      <point x="444" y="-112" type="line"/>
      <point x="437" y="-130"/>
      <point x="436" y="-146"/>
      <point x="436" y="-167" type="curve" smooth="yes"/>
      <point x="436" y="-211"/>
      <point x="469" y="-246"/>
      <point x="524" y="-264" type="curve"/>
      <point x="607" y="-198" type="line"/>
      <point x="607" y="-160" type="line"/>
      <point x="567" y="-153"/>
      <point x="551" y="-137"/>
      <point x="551" y="-107" type="curve" smooth="yes"/>
      <point x="551" y="-81"/>
      <point x="559" y="-49"/>
      <point x="684" y="82" type="curve"/>
      <point x="656" y="107" type="line"/>
    </contour>
    <component base="U"/>
  </outline>
</glyph>
<glyph name="florin" format="1">
  <advance width="619"/>
  <unicode hex="0192"/>
  <outline>
	<contour>
	  <point x="316" y="806"/>
	  <point x="164" y="675"/>
	  <point x="164" y="513" type="curve" smooth="yes"/>
	  <point x="164" y="196" type="line"/>
	  <point x="284" y="196" type="line"/>
	  <point x="284" y="561" type="line" smooth="yes"/>
	  <point x="284" y="666"/>
	  <point x="315" y="722"/>
	  <point x="377" y="722" type="curve" smooth="yes"/>
	  <point x="426" y="722"/>
	  <point x="478" y="689"/>
	  <point x="511" y="635" type="curve"/>
	  <point x="549" y="635" type="line"/>
	  <point x="549" y="789" type="line"/>
	  <point x="529" y="797"/>
	  <point x="473" y="806"/>
	  <point x="435" y="806" type="curve" smooth="yes"/>
	</contour>
	<contour>
	  <point x="164" y="11" type="line" smooth="yes"/>
	  <point x="164" y="-87"/>
	  <point x="143" y="-139"/>
	  <point x="63" y="-234" type="curve"/>
	  <point x="101" y="-264" type="line"/>
	  <point x="293" y="-20" type="line"/>
	  <point x="288" y="-4"/>
	  <point x="284" y="45"/>
	  <point x="284" y="99" type="curve" smooth="yes"/>
	  <point x="284" y="399" type="line"/>
	  <point x="164" y="416" type="line"/>
	</contour>
	<contour>
	  <point x="31" y="391" type="line"/>
	  <point x="10" y="350" type="line"/>
	  <point x="528" y="350" type="line"/>
	  <point x="549" y="391" type="line"/>
	</contour>
  </outline>
</glyph>
<glyph name="apostrophemod" format="1">
  <advance width="580"/>
  <unicode hex="02BC"/>
  <outline>
	<contour>
	  <point x="244" y="806" type="line"/>
	  <point x="115" y="550" type="line"/>
	  <point x="197" y="510" type="line"/>
	  <point x="235" y="510" type="line"/>
	  <point x="364" y="766" type="line"/>
	  <point x="282" y="806" type="line"/>
	</contour>
  </outline>
</glyph>
<glyph name="caron" format="1">
  <advance width="568"/>
  <unicode hex="02C7"/>
  <outline>
    <contour>
      <point x="283" y="729" type="line"/>
      <point x="332" y="745" type="line"/>
      <point x="203" y="892" type="line"/>
      <point x="79" y="873" type="line"/>
      <point x="60" y="849" type="line"/>
      <point x="287" y="670" type="line"/>
      <point x="508" y="845" type="line"/>
      <point x="478" y="883" type="line"/>
    </contour>
    <contour>
      <point x="284" y="531" type="move" name="_top"/>
    </contour>
  </outline>
</glyph>
<glyph name="breve" format="1">
  <advance width="489"/>
  <unicode hex="02D8"/>
  <outline>
	<contour>
	  <point x="338" y="817" type="line"/>
	  <point x="338" y="786"/>
	  <point x="309" y="759"/>
	  <point x="264" y="759" type="curve" smooth="yes"/>
	  <point x="223" y="759"/>
	  <point x="181" y="782"/>
	  <point x="143" y="873" type="curve"/>
	  <point x="46" y="796" type="line"/>
	  <point x="84" y="722"/>
	  <point x="173" y="699"/>
	  <point x="239" y="699" type="curve" smooth="yes"/>
	  <point x="336" y="699"/>
	  <point x="451" y="797"/>
	  <point x="451" y="873" type="curve"/>
	</contour>
	<contour>
	  <point x="245" y="531" type="move" name="_top"/>
	</contour>
  </outline>
</glyph>
<glyph name="ring" format="1">
  <advance width="411"/>
  <unicode hex="02DA"/>
  <outline>
	<contour>
	  <point x="160" y="883"/>
	  <point x="60" y="823"/>
	  <point x="60" y="750" type="curve" smooth="yes"/>
	  <point x="60" y="696"/>
	  <point x="108" y="652"/>
	  <point x="170" y="652" type="curve" smooth="yes"/>
	  <point x="251" y="652"/>
	  <point x="351" y="712"/>
	  <point x="351" y="785" type="curve" smooth="yes"/>
	  <point x="351" y="839"/>
	  <point x="304" y="883"/>
	  <point x="241" y="883" type="curve" smooth="yes"/>
	</contour>
	<contour>
	  <point x="248" y="839"/>
	  <point x="281" y="794"/>
	  <point x="281" y="738" type="curve" smooth="yes"/>
	  <point x="281" y="711"/>
	  <point x="262" y="696"/>
	  <point x="228" y="696" type="curve" smooth="yes"/>
	  <point x="163" y="696"/>
	  <point x="130" y="742"/>
	  <point x="130" y="798" type="curve" smooth="yes"/>
	  <point x="130" y="825"/>
	  <point x="149" y="839"/>
	  <point x="183" y="839" type="curve" smooth="yes"/>
	</contour>
	<contour>
	  <point x="206" y="531" type="move" name="_top"/>
	</contour>
  </outline>
</glyph>
<glyph name="ogonek" format="1">
  <advance width="332"/>
  <unicode hex="02DB"/>
  <outline>
    <contour>
      <point x="71" y="-112" type="line"/>
      <point x="66" y="-123"/>
      <point x="63" y="-138"/>
      <point x="63" y="-152" type="curve" smooth="yes"/>
      <point x="63" y="-206"/>
      <point x="92" y="-242"/>
      <point x="151" y="-264" type="curve"/>
      <point x="234" y="-198" type="line"/>
      <point x="234" y="-160" type="line"/>
      <point x="202" y="-154"/>
      <point x="188" y="-141"/>
      <point x="188" y="-117" type="curve" smooth="yes"/>
      <point x="188" y="-87"/>
      <point x="212" y="-54"/>
      <point x="272" y="0" type="curve"/>
      <point x="244" y="25" type="line"/>
    </contour>
    <contour>
      <point x="272" y="0" type="move" name="_ogonek"/>
    </contour>
  </outline>
</glyph>
<glyph name="tilde" format="1">
  <advance width="545"/>
  <unicode hex="02DC"/>
  <outline>
	<contour>
	  <point x="60" y="756" type="line"/>
	  <point x="90" y="718" type="line"/>
	  <point x="122" y="742" type="line" smooth="yes"/>
	  <point x="178" y="784"/>
	  <point x="247" y="768"/>
	  <point x="324" y="690" type="curve"/>
	  <point x="485" y="817" type="line"/>
	  <point x="455" y="855" type="line"/>
	  <point x="421" y="829" type="line" smooth="yes"/>
	  <point x="367" y="788"/>
	  <point x="297" y="805"/>
	  <point x="221" y="883" type="curve"/>
	</contour>
	<contour>
	  <point x="273" y="531" type="move" name="_top"/>
	</contour>
  </outline>
</glyph>
<glyph name="hungarumlaut" format="1">
  <advance width="590"/>
  <unicode hex="02DD"/>
  <outline>
	<contour>
	  <point x="310" y="696" type="line"/>
	  <point x="350" y="676" type="line"/>
	  <point x="530" y="849" type="line"/>
	  <point x="511" y="873" type="line"/>
	  <point x="384" y="892" type="line"/>
	</contour>
	<contour>
	  <point x="60" y="696" type="line"/>
	  <point x="100" y="676" type="line"/>
	  <point x="280" y="849" type="line"/>
	  <point x="261" y="873" type="line"/>
	  <point x="134" y="892" type="line"/>
	</contour>
	<contour>
	  <point x="245" y="531" type="move" name="_top"/>
	</contour>
  </outline>
</glyph>
<glyph name="commaaccent" format="1">
  <advance width="359"/>
  <unicode hex="0326"/>
  <outline>
    <contour>
      <point x="70" y="-83" type="line"/>
      <point x="50" y="-123" type="line"/>
      <point x="157" y="-201" type="line"/>
      <point x="140" y="-119" type="line"/>
      <point x="102" y="-304" type="line"/>
      <point x="142" y="-304" type="line"/>
      <point x="269" y="-114" type="line"/>
      <point x="269" y="-83" type="line"/>
    </contour>
    <contour>
      <point x="149" y="0" type="move" name="_bottom"/>
    </contour>
    <contour>
      <point x="150" y="100" type="move" name="_g"/>
    </contour>
  </outline>
</glyph>
<glyph name="pi" format="1">
  <advance width="786"/>
  <unicode hex="03C0"/>
  <outline>
	<contour>
	  <point x="154" y="531" type="line"/>
	  <point x="0" y="409" type="line"/>
	  <point x="30" y="371" type="line"/>
	  <point x="103" y="404"/>
	  <point x="151" y="410"/>
	  <point x="182" y="410" type="curve" smooth="yes"/>
	  <point x="726" y="410" type="line"/>
	  <point x="726" y="531" type="line"/>
	</contour>
	<contour>
	  <point x="232" y="531" type="line"/>
	  <point x="232" y="153" type="line" smooth="yes"/>
	  <point x="232" y="117"/>
	  <point x="208" y="69"/>
	  <point x="174" y="31" type="curve"/>
	  <point x="174" y="0" type="line"/>
	  <point x="332" y="0" type="line"/>
	  <point x="332" y="531" type="line"/>
	</contour>
	<contour>
	  <point x="493" y="531" type="line"/>
	  <point x="493" y="-10" type="line"/>
	  <point x="531" y="-10" type="line"/>
	  <point x="651" y="49" type="line"/>
	  <point x="617" y="87"/>
	  <point x="593" y="135"/>
	  <point x="593" y="171" type="curve" smooth="yes"/>
	  <point x="593" y="531" type="line"/>
	</contour>
  </outline>
</glyph>
<glyph name="anusvaradeva" format="1">
  <advance width="260"/>
  <unicode hex="0902"/>
  <outline>
    <contour>
      <point x="70" y="1030" type="line"/>
      <point x="70" y="894" type="line"/>
      <point x="152" y="854" type="line"/>
      <point x="190" y="854" type="line"/>
      <point x="190" y="990" type="line"/>
      <point x="108" y="1030" type="line"/>
    </contour>
    <contour>
      <point x="131" y="942" type="move" name="_anusvara-deva"/>
    </contour>
    <contour>
      <point x="70" y="786" type="move" name="_top"/>
    </contour>
  </outline>
</glyph>
<glyph name="adeva" format="1">
  <advance width="954"/>
  <unicode hex="0905"/>
  <outline>
    <contour>
      <point x="251" y="796"/>
      <point x="183" y="763"/>
      <point x="126" y="714" type="curve"/>
      <point x="126" y="676" type="line"/>
      <point x="196" y="614" type="line"/>
      <point x="240" y="645"/>
      <point x="309" y="686"/>
      <point x="373" y="686" type="curve" smooth="yes"/>
      <point x="422" y="686"/>
      <point x="442" y="648"/>
      <point x="442" y="606" type="curve" smooth="yes"/>
      <point x="442" y="548"/>
      <point x="367" y="478"/>
      <point x="302" y="465" type="curve"/>
      <point x="302" y="427" type="line"/>
      <point x="495" y="309"/>
      <point x="553" y="257"/>
      <point x="553" y="198" type="curve" smooth="yes"/>
      <point x="553" y="146"/>
      <point x="492" y="97"/>
      <point x="429" y="97" type="curve" smooth="yes"/>
      <point x="354" y="97"/>
      <point x="298" y="120"/>
      <point x="226" y="182" type="curve" smooth="yes"/>
      <point x="106" y="285" type="line"/>
      <point x="74" y="247" type="line"/>
      <point x="365" y="-2" type="line"/>
      <point x="385" y="-7"/>
      <point x="420" y="-10"/>
      <point x="451" y="-10" type="curve" smooth="yes"/>
      <point x="552" y="-10"/>
      <point x="671" y="77"/>
      <point x="671" y="150" type="curve" smooth="yes"/>
      <point x="671" y="234"/>
      <point x="578" y="333"/>
      <point x="407" y="434" type="curve"/>
      <point x="426" y="391" type="line"/>
      <point x="515" y="408"/>
      <point x="572" y="469"/>
      <point x="572" y="541" type="curve"/>
      <point x="572" y="648"/>
      <point x="429" y="796"/>
      <point x="304" y="796" type="curve" smooth="yes"/>
    </contour>
    <contour>
      <point x="404" y="366" type="line"/>
      <point x="458" y="332"/>
      <point x="524" y="309"/>
      <point x="584" y="309" type="curve" smooth="yes"/>
      <point x="742" y="309"/>
      <point x="791" y="393"/>
      <point x="879" y="485" type="curve"/>
      <point x="782" y="544" type="line"/>
      <point x="687" y="455"/>
      <point x="634" y="389"/>
      <point x="524" y="389" type="curve" smooth="yes"/>
      <point x="487" y="389"/>
      <point x="460" y="396"/>
      <point x="442" y="408" type="curve"/>
    </contour>
    <component base="uni093E" xOffset="626"/>
  </outline>
</glyph>
<glyph name="aa-deva" format="1">
  <advance width="1342"/>
  <unicode hex="0906"/>
  <outline>
	<component base="a-deva"/>
	<component base="aaMatra-deva" xOffset="1014"/>
	<contour>
	  <point x="1152" y="786" type="move" name="top"/>
	</contour>
  </outline>
</glyph>
<glyph name="ideva" format="1">
  <advance width="672"/>
  <unicode hex="0907"/>
  <outline>
    <contour>
      <point x="177" y="31" type="line"/>
      <point x="391" y="-152" type="line" smooth="yes"/>
      <point x="491" y="-239"/>
      <point x="549" y="-264"/>
      <point x="646" y="-264" type="curve" smooth="yes"/>
      <point x="684" y="-264"/>
      <point x="722" y="-260"/>
      <point x="761" y="-252" type="curve"/>
      <point x="761" y="-214" type="line"/>
      <point x="691" y="-152" type="line"/>
      <point x="649" y="-161"/>
      <point x="616" y="-165"/>
      <point x="584" y="-165" type="curve" smooth="yes"/>
      <point x="512" y="-165"/>
      <point x="457" y="-144"/>
      <point x="403" y="-97" type="curve" smooth="yes"/>
      <point x="209" y="69" type="line"/>
    </contour>
    <component base="ddadeva"/>
  </outline>
</glyph>
<glyph name="iideva" format="1">
  <advance width="742"/>
  <unicode hex="0908"/>
  <outline>
    <contour>
      <point x="409" y="1133"/>
      <point x="313" y="1044"/>
      <point x="313" y="935" type="curve" smooth="yes"/>
      <point x="313" y="829"/>
      <point x="435" y="742"/>
      <point x="534" y="742" type="curve"/>
      <point x="536" y="786" type="line"/>
      <point x="474" y="786"/>
      <point x="443" y="821"/>
      <point x="443" y="887" type="curve" smooth="yes"/>
      <point x="443" y="975"/>
      <point x="494" y="1048"/>
      <point x="601" y="1048" type="curve" smooth="yes"/>
      <point x="634" y="1048"/>
      <point x="685" y="1027"/>
      <point x="763" y="966" type="curve"/>
      <point x="793" y="1004" type="line"/>
      <point x="639" y="1125" type="line"/>
      <point x="604" y="1132"/>
      <point x="570" y="1133"/>
      <point x="543" y="1133" type="curve" smooth="yes"/>
    </contour>
    <component base="ideva"/>
  </outline>
</glyph>
<glyph name="udeva" format="1">
  <advance width="694"/>
  <unicode hex="0909"/>
  <outline>
    <contour>
      <point x="392" y="415" type="line"/>
      <point x="500" y="346"/>
      <point x="552" y="288"/>
      <point x="552" y="238" type="curve" smooth="yes"/>
      <point x="552" y="166"/>
      <point x="471" y="97"/>
      <point x="388" y="97" type="curve" smooth="yes"/>
      <point x="323" y="97"/>
      <point x="248" y="129"/>
      <point x="191" y="182" type="curve" smooth="yes"/>
      <point x="75" y="285" type="line"/>
      <point x="43" y="247" type="line"/>
      <point x="324" y="-2" type="line"/>
      <point x="349" y="-7"/>
      <point x="385" y="-10"/>
      <point x="410" y="-10" type="curve" smooth="yes"/>
      <point x="531" y="-10"/>
      <point x="670" y="97"/>
      <point x="670" y="190" type="curve" smooth="yes"/>
      <point x="670" y="257"/>
      <point x="595" y="341"/>
      <point x="428" y="463" type="curve"/>
    </contour>
    <contour>
      <point x="311" y="686" type="line"/>
      <point x="362" y="686"/>
      <point x="392" y="649"/>
      <point x="392" y="586" type="curve" smooth="yes"/>
      <point x="392" y="515"/>
      <point x="353" y="472"/>
      <point x="287" y="472" type="curve" smooth="yes"/>
      <point x="276" y="472"/>
      <point x="264" y="473"/>
      <point x="252" y="475" type="curve"/>
      <point x="252" y="437" type="line"/>
      <point x="322" y="375" type="line"/>
      <point x="437" y="375"/>
      <point x="522" y="443"/>
      <point x="522" y="536" type="curve" smooth="yes"/>
      <point x="522" y="648"/>
      <point x="383" y="766"/>
      <point x="251" y="766" type="curve"/>
    </contour>
    <contour>
      <point x="-70" y="786" type="line"/>
      <point x="-70" y="748" type="line"/>
      <point x="0" y="686" type="line"/>
      <point x="764" y="686" type="line"/>
      <point x="764" y="724" type="line"/>
      <point x="694" y="786" type="line"/>
    </contour>
  </outline>
</glyph>
<glyph name="rVocalic-deva" format="1">
  <advance width="1245"/>
  <unicode hex="090B"/>
  <outline>
    <contour>
      <point x="832" y="331"/>
      <point x="748" y="260"/>
      <point x="748" y="173" type="curve" smooth="yes"/>
      <point x="748" y="45"/>
      <point x="900" y="-60"/>
      <point x="1019" y="-60" type="curve" smooth="yes"/>
      <point x="1103" y="-60"/>
      <point x="1148" y="-15"/>
      <point x="1186" y="59" type="curve"/>
      <point x="1186" y="97" type="line"/>
      <point x="1116" y="159" type="line"/>
      <point x="1073" y="79"/>
      <point x="1016" y="20"/>
      <point x="959" y="20" type="curve" smooth="yes"/>
      <point x="904" y="20"/>
      <point x="878" y="59"/>
      <point x="878" y="125" type="curve" smooth="yes"/>
      <point x="878" y="184"/>
      <point x="913" y="234"/>
      <point x="983" y="234" type="curve" smooth="yes"/>
      <point x="994" y="234"/>
      <point x="1006" y="233"/>
      <point x="1018" y="231" type="curve"/>
      <point x="1018" y="269" type="line"/>
      <point x="948" y="331" type="line"/>
    </contour>
    <contour>
      <point x="570" y="786" type="line"/>
      <point x="570" y="748" type="line"/>
      <point x="640" y="686" type="line"/>
      <point x="1318" y="686" type="line"/>
      <point x="1318" y="724" type="line"/>
      <point x="1248" y="786" type="line"/>
    </contour>
    <contour>
      <point x="836" y="506" type="line"/>
      <point x="792" y="470"/>
      <point x="747" y="448"/>
      <point x="684" y="448" type="curve" smooth="yes"/>
      <point x="647" y="448"/>
      <point x="620" y="451"/>
      <point x="602" y="457" type="curve"/>
      <point x="564" y="425" type="line"/>
      <point x="618" y="391"/>
      <point x="684" y="368"/>
      <point x="744" y="368" type="curve" smooth="yes"/>
      <point x="790" y="368"/>
      <point x="826" y="375"/>
      <point x="858" y="387" type="curve"/>
    </contour>
    <contour>
      <point x="1018" y="269" type="line"/>
      <point x="907" y="361"/>
      <point x="910" y="418"/>
      <point x="929" y="462" type="curve"/>
      <point x="887" y="395" type="line"/>
      <point x="1014" y="417"/>
      <point x="1105" y="440"/>
      <point x="1105" y="496" type="curve" smooth="yes"/>
      <point x="1105" y="555"/>
      <point x="992" y="627"/>
      <point x="923" y="627" type="curve" smooth="yes"/>
      <point x="862" y="627"/>
      <point x="776" y="542"/>
      <point x="776" y="417" type="curve" smooth="yes"/>
      <point x="776" y="374"/>
      <point x="807" y="305"/>
      <point x="867" y="250" type="curve"/>
    </contour>
    <component base="t_r-deva"/>
    <component base="aaMatra-deva" xOffset="377"/>
  </outline>
</glyph>
<glyph name="lVocalic-deva" format="1">
  <advance width="919"/>
  <unicode hex="090C"/>
  <outline>
    <contour>
      <point x="464" y="549"/>
      <point x="437" y="494"/>
      <point x="393" y="444" type="curve"/>
      <point x="393" y="406" type="line"/>
      <point x="463" y="344" type="line"/>
      <point x="496" y="390"/>
      <point x="534" y="469"/>
      <point x="611" y="469" type="curve" smooth="yes"/>
      <point x="668" y="469"/>
      <point x="694" y="425"/>
      <point x="694" y="377" type="curve" smooth="yes"/>
      <point x="694" y="287"/>
      <point x="516" y="213"/>
      <point x="516" y="112" type="curve" smooth="yes"/>
      <point x="516" y="15"/>
      <point x="646" y="-95"/>
      <point x="765" y="-95" type="curve" smooth="yes"/>
      <point x="820" y="-95"/>
      <point x="866" y="-58"/>
      <point x="899" y="4" type="curve"/>
      <point x="899" y="42" type="line"/>
      <point x="819" y="104" type="line"/>
      <point x="783" y="32"/>
      <point x="743" y="-15"/>
      <point x="699" y="-15" type="curve" smooth="yes"/>
      <point x="659" y="-15"/>
      <point x="641" y="14"/>
      <point x="641" y="65" type="curve" smooth="yes"/>
      <point x="641" y="181"/>
      <point x="824" y="245"/>
      <point x="824" y="326" type="curve" smooth="yes"/>
      <point x="824" y="435"/>
      <point x="677" y="549"/>
      <point x="551" y="549" type="curve" smooth="yes"/>
    </contour>
    <contour>
      <point x="174" y="550"/>
      <point x="97" y="479"/>
      <point x="97" y="390" type="curve" smooth="yes"/>
      <point x="97" y="376"/>
      <point x="99" y="347"/>
      <point x="105" y="326" type="curve"/>
      <point x="358" y="108" type="line"/>
      <point x="390" y="145" type="line"/>
      <point x="305" y="218" type="line" smooth="yes"/>
      <point x="246" y="268"/>
      <point x="227" y="307"/>
      <point x="227" y="350" type="curve" smooth="yes"/>
      <point x="227" y="412"/>
      <point x="266" y="470"/>
      <point x="336" y="470" type="curve" smooth="yes"/>
      <point x="371" y="470"/>
      <point x="392" y="453"/>
      <point x="400" y="418" type="curve"/>
      <point x="476" y="465" type="line"/>
      <point x="421" y="517"/>
      <point x="345" y="550"/>
      <point x="276" y="550" type="curve" smooth="yes"/>
    </contour>
    <contour>
      <point x="-60" y="786" type="line"/>
      <point x="-60" y="748" type="line"/>
      <point x="10" y="686" type="line"/>
      <point x="979" y="686" type="line"/>
      <point x="979" y="724" type="line"/>
      <point x="909" y="786" type="line"/>
    </contour>
    <contour>
      <point x="542" y="786" type="line"/>
      <point x="542" y="527" type="line"/>
      <point x="624" y="487" type="line"/>
      <point x="662" y="487" type="line"/>
      <point x="662" y="786" type="line"/>
    </contour>
    <contour>
      <point x="965" y="-120" type="move" name="halant"/>
    </contour>
    <contour>
      <point x="174" y="0" type="move" name="nukta"/>
    </contour>
    <contour>
      <point x="542" y="786" type="move" name="top"/>
    </contour>
    <contour>
      <point x="644" y="-103" type="move" name="bottom"/>
    </contour>
  </outline>
</glyph>
<glyph name="edeva" format="1">
  <advance width="710"/>
  <unicode hex="090F"/>
  <outline>
    <contour>
      <point x="76" y="720"/>
      <point x="64" y="677"/>
      <point x="64" y="625" type="curve" smooth="yes"/>
      <point x="64" y="566"/>
      <point x="95" y="504"/>
      <point x="161" y="431" type="curve" smooth="yes"/>
      <point x="452" y="108" type="line" smooth="yes"/>
      <point x="536" y="15"/>
      <point x="577" y="-99"/>
      <point x="571" y="-224" type="curve"/>
      <point x="653" y="-264" type="line"/>
      <point x="691" y="-264" type="line"/>
      <point x="692" y="-125"/>
      <point x="653" y="-35"/>
      <point x="539" y="91" type="curve" smooth="yes"/>
      <point x="273" y="387" type="line" smooth="yes"/>
      <point x="215" y="451"/>
      <point x="189" y="519"/>
      <point x="189" y="607" type="curve" smooth="yes"/>
      <point x="189" y="649"/>
      <point x="197" y="683"/>
      <point x="214" y="716" type="curve"/>
      <point x="99" y="750" type="line"/>
    </contour>
    <contour>
      <point x="438" y="786" type="line"/>
      <point x="453" y="675"/>
      <point x="458" y="622"/>
      <point x="458" y="574" type="curve" smooth="yes"/>
      <point x="458" y="515"/>
      <point x="443" y="480"/>
      <point x="408" y="458" type="curve"/>
      <point x="408" y="420" type="line"/>
      <point x="478" y="358" type="line"/>
      <point x="545" y="380"/>
      <point x="588" y="445"/>
      <point x="588" y="526" type="curve" smooth="yes"/>
      <point x="588" y="574"/>
      <point x="584" y="609"/>
      <point x="558" y="786" type="curve"/>
    </contour>
    <contour>
      <point x="-106" y="786" type="line"/>
      <point x="-106" y="748" type="line"/>
      <point x="-30" y="686" type="line"/>
      <point x="766" y="686" type="line"/>
      <point x="766" y="724" type="line"/>
      <point x="690" y="786" type="line"/>
    </contour>
    <contour>
      <point x="500" y="786" type="move" name="top"/>
    </contour>
  </outline>
</glyph>
<glyph name="ka-deva" format="1">
  <advance width="1037"/>
  <unicode hex="0915"/>
  <outline>
    <contour>
      <point x="553" y="549"/>
      <point x="520" y="460"/>
      <point x="456" y="363" type="curve" smooth="yes"/>
      <point x="417" y="308"/>
      <point x="384" y="238"/>
      <point x="306" y="238" type="curve" smooth="yes"/>
      <point x="251" y="238"/>
      <point x="225" y="277"/>
      <point x="225" y="343" type="curve" smooth="yes"/>
      <point x="225" y="402"/>
      <point x="260" y="452"/>
      <point x="330" y="452" type="curve" smooth="yes"/>
      <point x="341" y="452"/>
      <point x="353" y="451"/>
      <point x="365" y="449" type="curve"/>
      <point x="365" y="487" type="line"/>
      <point x="295" y="549" type="line"/>
      <point x="179" y="549"/>
      <point x="95" y="478"/>
      <point x="95" y="391" type="curve" smooth="yes"/>
      <point x="95" y="263"/>
      <point x="247" y="158"/>
      <point x="366" y="158" type="curve" smooth="yes"/>
      <point x="484" y="158"/>
      <point x="517" y="247"/>
      <point x="581" y="344" type="curve" smooth="yes"/>
      <point x="620" y="399"/>
      <point x="653" y="469"/>
      <point x="731" y="469" type="curve" smooth="yes"/>
      <point x="786" y="469"/>
      <point x="812" y="430"/>
      <point x="812" y="364" type="curve" smooth="yes"/>
      <point x="812" y="305"/>
      <point x="777" y="255"/>
      <point x="707" y="255" type="curve" smooth="yes"/>
      <point x="696" y="255"/>
      <point x="684" y="256"/>
      <point x="672" y="258" type="curve"/>
      <point x="672" y="220" type="line"/>
      <point x="742" y="158" type="line"/>
      <point x="858" y="158"/>
      <point x="942" y="229"/>
      <point x="942" y="316" type="curve" smooth="yes"/>
      <point x="942" y="444"/>
      <point x="790" y="549"/>
      <point x="671" y="549" type="curve" smooth="yes"/>
    </contour>
    <contour>
      <point x="-60" y="786" type="line"/>
      <point x="-60" y="748" type="line"/>
      <point x="10" y="686" type="line"/>
      <point x="1097" y="686" type="line"/>
      <point x="1097" y="724" type="line"/>
      <point x="1027" y="786" type="line"/>
    </contour>
    <component base="stem-deva" xOffset="320"/>
    <contour>
      <point x="852" y="50" type="move" name="halant"/>
    </contour>
    <contour>
      <point x="488" y="371" type="move" name="leg"/>
    </contour>
    <contour>
      <point x="196" y="0" type="move" name="nukta"/>
    </contour>
  </outline>
</glyph>
<glyph name="kha-deva" format="1">
  <advance width="1084"/>
  <unicode hex="0916"/>
  <outline>
    <component base="kh-deva"/>
    <component base="aaMatra-deva" xOffset="756"/>
    <contour>
      <point x="180" y="0" type="move" name="nukta"/>
    </contour>
  </outline>
</glyph>
<glyph name="gadeva" format="1">
  <advance width="698"/>
  <unicode hex="0917"/>
  <outline>
    <contour>
      <point x="232" y="698" type="line"/>
      <point x="232" y="438" type="line"/>
      <point x="110" y="468"/>
      <point x="48" y="443"/>
      <point x="48" y="410" type="curve" smooth="yes"/>
      <point x="48" y="343"/>
      <point x="161" y="234"/>
      <point x="228" y="234" type="curve" smooth="yes"/>
      <point x="278" y="234"/>
      <point x="352" y="316"/>
      <point x="352" y="382" type="curve" smooth="yes"/>
      <point x="352" y="698" type="line"/>
    </contour>
    <contour>
      <point x="-66" y="786" type="line"/>
      <point x="-66" y="748" type="line"/>
      <point x="10" y="686" type="line"/>
      <point x="516" y="686" type="line"/>
      <point x="516" y="724" type="line"/>
      <point x="440" y="786" type="line"/>
    </contour>
    <component base="uni093E" xOffset="370"/>
  </outline>
</glyph>
<glyph name="ghadeva" format="1">
  <advance width="854"/>
  <unicode hex="0918"/>
  <outline>
    <contour>
      <point x="664" y="786" type="line"/>
      <point x="664" y="30" type="line"/>
      <point x="746" y="-10" type="line"/>
      <point x="784" y="-10" type="line"/>
      <point x="784" y="786" type="line"/>
    </contour>
    <contour>
      <point x="-70" y="786" type="line"/>
      <point x="-70" y="748" type="line"/>
      <point x="0" y="686" type="line"/>
      <point x="944" y="686" type="line"/>
      <point x="944" y="724" type="line"/>
      <point x="874" y="786" type="line"/>
    </contour>
    <contour>
      <point x="312" y="168"/>
      <point x="283" y="199"/>
      <point x="283" y="253" type="curve" smooth="yes"/>
      <point x="283" y="307"/>
      <point x="332" y="351"/>
      <point x="435" y="351" type="curve" smooth="yes"/>
      <point x="445" y="351"/>
      <point x="459" y="351"/>
      <point x="471" y="349" type="curve"/>
      <point x="471" y="387" type="line"/>
      <point x="401" y="449" type="line"/>
      <point x="255" y="456"/>
      <point x="153" y="382"/>
      <point x="153" y="301" type="curve" smooth="yes"/>
      <point x="153" y="185"/>
      <point x="311" y="88"/>
      <point x="434" y="88" type="curve" smooth="yes"/>
      <point x="617" y="88"/>
      <point x="676" y="187"/>
      <point x="779" y="294" type="curve"/>
      <point x="682" y="353" type="line"/>
      <point x="567" y="246"/>
      <point x="504" y="168"/>
      <point x="374" y="168" type="curve" smooth="yes"/>
    </contour>
    <contour>
      <point x="263" y="626"/>
      <point x="259" y="626"/>
      <point x="254" y="626" type="curve" smooth="yes"/>
      <point x="140" y="626"/>
      <point x="57" y="564"/>
      <point x="57" y="489" type="curve" smooth="yes"/>
      <point x="57" y="392"/>
      <point x="194" y="313"/>
      <point x="301" y="313" type="curve"/>
      <point x="301" y="389" type="line"/>
      <point x="203" y="393"/>
      <point x="187" y="420"/>
      <point x="187" y="451" type="curve" smooth="yes"/>
      <point x="187" y="491"/>
      <point x="221" y="532"/>
      <point x="289" y="532" type="curve" smooth="yes"/>
      <point x="306" y="532"/>
      <point x="324" y="530"/>
      <point x="343" y="525" type="curve"/>
      <point x="343" y="563" type="line"/>
      <point x="273" y="625" type="line"/>
    </contour>
  </outline>
</glyph>
<glyph name="ngadeva" format="1">
  <advance width="912"/>
  <unicode hex="0919"/>
  <outline>
    <contour>
      <point x="745" y="556" type="line"/>
      <point x="745" y="420" type="line"/>
      <point x="827" y="380" type="line"/>
      <point x="865" y="380" type="line"/>
      <point x="865" y="516" type="line"/>
      <point x="783" y="556" type="line"/>
    </contour>
    <contour>
      <point x="584" y="786" type="line"/>
      <point x="584" y="748" type="line"/>
      <point x="654" y="686" type="line"/>
      <point x="1002" y="686" type="line"/>
      <point x="1002" y="724" type="line"/>
      <point x="932" y="786" type="line"/>
    </contour>
    <component base="ddadeva"/>
  </outline>
</glyph>
<glyph name="cadeva" format="1">
  <advance width="788"/>
  <unicode hex="091A"/>
  <outline>
    <component base="uni091A094D"/>
    <component base="uni093E" xOffset="460"/>
    <contour>
      <point x="230" y="0" type="move" name="nukta"/>
    </contour>
  </outline>
</glyph>
<glyph name="cha-deva" format="1">
  <advance width="994"/>
  <unicode hex="091B"/>
  <outline>
	<contour>
	  <point x="694" y="786" type="line"/>
	  <point x="694" y="536" type="line"/>
	  <point x="814" y="516" type="line"/>
	  <point x="814" y="786" type="line"/>
	</contour>
	<component base="ch-deva"/>
  </outline>
</glyph>
<glyph name="nya-deva" format="1">
  <advance width="798"/>
  <unicode hex="091E"/>
  <outline>
    <component base="ny-deva"/>
    <component base="aaMatra-deva" xOffset="470"/>
    <contour>
      <point x="618" y="324" type="move" name="leg"/>
    </contour>
  </outline>
</glyph>
<glyph name="ttadeva" format="1">
  <advance width="758"/>
  <unicode hex="091F"/>
  <outline>
    <contour>
      <point x="345" y="713" type="line"/>
      <point x="380" y="689"/>
      <point x="424" y="657"/>
      <point x="424" y="624" type="curve" smooth="yes"/>
      <point x="424" y="509"/>
      <point x="112" y="452"/>
      <point x="112" y="288" type="curve" smooth="yes"/>
      <point x="112" y="121"/>
      <point x="306" y="-10"/>
      <point x="453" y="-10" type="curve" smooth="yes"/>
      <point x="612" y="-10"/>
      <point x="723" y="105"/>
      <point x="723" y="253" type="curve"/>
      <point x="632" y="334" type="line"/>
      <point x="593" y="300" type="line"/>
      <point x="593" y="177"/>
      <point x="530" y="74"/>
      <point x="395" y="74" type="curve" smooth="yes"/>
      <point x="291" y="74"/>
      <point x="242" y="130"/>
      <point x="242" y="240" type="curve" smooth="yes"/>
      <point x="242" y="366"/>
      <point x="537" y="433"/>
      <point x="537" y="572" type="curve" smooth="yes"/>
      <point x="537" y="648"/>
      <point x="420" y="703"/>
      <point x="369" y="757" type="curve"/>
    </contour>
    <contour>
      <point x="-60" y="786" type="line"/>
      <point x="-60" y="748" type="line"/>
      <point x="10" y="686" type="line"/>
      <point x="848" y="686" type="line"/>
      <point x="848" y="724" type="line"/>
      <point x="778" y="786" type="line"/>
    </contour>
  </outline>
</glyph>
<glyph name="ttha-deva" format="1">
  <advance width="815"/>
  <unicode hex="0920"/>
  <outline>
    <contour>
      <point x="430" y="467" type="line"/>
      <point x="533" y="467"/>
      <point x="583" y="412"/>
      <point x="583" y="301" type="curve" smooth="yes"/>
      <point x="583" y="162"/>
      <point x="506" y="74"/>
      <point x="385" y="74" type="curve" smooth="yes"/>
      <point x="296" y="74"/>
      <point x="232" y="129"/>
      <point x="232" y="240" type="curve" smooth="yes"/>
      <point x="232" y="355"/>
      <point x="294" y="430"/>
      <point x="389" y="430" type="curve" smooth="yes"/>
      <point x="497" y="430" type="line"/>
      <point x="497" y="530" type="line"/>
      <point x="326" y="530" type="line" smooth="yes"/>
      <point x="204" y="530"/>
      <point x="102" y="419"/>
      <point x="102" y="288" type="curve" smooth="yes"/>
      <point x="102" y="140"/>
      <point x="274" y="-10"/>
      <point x="443" y="-10" type="curve" smooth="yes"/>
      <point x="598" y="-10"/>
      <point x="713" y="102"/>
      <point x="713" y="253" type="curve" smooth="yes"/>
      <point x="713" y="380"/>
      <point x="586" y="508"/>
      <point x="444" y="542" type="curve"/>
    </contour>
    <contour>
      <point x="377" y="786" type="line"/>
      <point x="377" y="470" type="line"/>
      <point x="459" y="430" type="line"/>
      <point x="497" y="430" type="line"/>
      <point x="497" y="786" type="line"/>
    </contour>
    <contour>
      <point x="-60" y="786" type="line"/>
      <point x="-60" y="748" type="line"/>
      <point x="10" y="686" type="line"/>
      <point x="874" y="686" type="line"/>
      <point x="874" y="724" type="line"/>
      <point x="804" y="786" type="line"/>
    </contour>
    <contour>
      <point x="746" y="53" type="move" name="halant"/>
    </contour>
    <contour>
      <point x="120" y="-110" type="move" name="nukta"/>
    </contour>
    <contour>
      <point x="377" y="786" type="move" name="top"/>
    </contour>
    <contour>
      <point x="357" y="0" type="move" name="bottom"/>
    </contour>
  </outline>
</glyph>
<glyph name="ddadeva" format="1">
  <advance width="772"/>
  <unicode hex="0921"/>
  <outline>
    <contour>
      <point x="377" y="600" type="line" smooth="yes"/>
      <point x="283" y="600"/>
      <point x="204" y="538"/>
      <point x="204" y="464" type="curve" smooth="yes"/>
      <point x="204" y="377"/>
      <point x="343" y="251"/>
      <point x="452" y="239" type="curve"/>
      <point x="501" y="268"/>
      <point x="542" y="282"/>
      <point x="572" y="282" type="curve" smooth="yes"/>
      <point x="601" y="282"/>
      <point x="633" y="250"/>
      <point x="633" y="222" type="curve" smooth="yes"/>
      <point x="633" y="162"/>
      <point x="524" y="97"/>
      <point x="422" y="97" type="curve" smooth="yes"/>
      <point x="344" y="97"/>
      <point x="283" y="117"/>
      <point x="229" y="163" type="curve" smooth="yes"/>
      <point x="88" y="282" type="line"/>
      <point x="56" y="245" type="line"/>
      <point x="345" y="-2" type="line"/>
      <point x="378" y="-7"/>
      <point x="410" y="-10"/>
      <point x="441" y="-10" type="curve" smooth="yes"/>
      <point x="576" y="-10"/>
      <point x="751" y="90"/>
      <point x="751" y="167" type="curve" smooth="yes"/>
      <point x="751" y="267"/>
      <point x="613" y="392"/>
      <point x="503" y="392" type="curve" smooth="yes"/>
      <point x="470" y="392"/>
      <point x="429" y="374"/>
      <point x="361" y="329" type="curve"/>
      <point x="438" y="311" type="line"/>
      <point x="346" y="355"/>
      <point x="322" y="375"/>
      <point x="322" y="409" type="curve" smooth="yes"/>
      <point x="322" y="460"/>
      <point x="374" y="500"/>
      <point x="440" y="500" type="curve" smooth="yes"/>
      <point x="658" y="500" type="line"/>
      <point x="658" y="600" type="line"/>
    </contour>
    <contour>
      <point x="-60" y="786" type="line"/>
      <point x="-60" y="748" type="line"/>
      <point x="10" y="686" type="line"/>
      <point x="858" y="686" type="line"/>
      <point x="858" y="724" type="line"/>
      <point x="788" y="786" type="line"/>
    </contour>
    <contour>
      <point x="538" y="786" type="line"/>
      <point x="538" y="540" type="line"/>
      <point x="620" y="500" type="line"/>
      <point x="658" y="500" type="line"/>
      <point x="658" y="786" type="line"/>
    </contour>
    <contour>
      <point x="742" y="17" type="move" name="halant"/>
    </contour>
    <contour>
      <point x="170" y="-110" type="move" name="nukta"/>
    </contour>
    <contour>
      <point x="538" y="786" type="move" name="top"/>
    </contour>
    <contour>
      <point x="441" y="0" type="move" name="bottom"/>
    </contour>
  </outline>
</glyph>
<glyph name="ddhadeva" format="1">
  <advance width="758"/>
  <unicode hex="0922"/>
  <outline>
    <contour>
      <point x="-60" y="786" type="line"/>
      <point x="-60" y="748" type="line"/>
      <point x="10" y="686" type="line"/>
      <point x="848" y="686" type="line"/>
      <point x="848" y="724" type="line"/>
      <point x="778" y="786" type="line"/>
    </contour>
    <contour>
      <point x="612" y="-10"/>
      <point x="723" y="64"/>
      <point x="723" y="153" type="curve" smooth="yes"/>
      <point x="723" y="280"/>
      <point x="617" y="385"/>
      <point x="532" y="385" type="curve" smooth="yes"/>
      <point x="446" y="385"/>
      <point x="382" y="336"/>
      <point x="382" y="277" type="curve" smooth="yes"/>
      <point x="382" y="182"/>
      <point x="504" y="104"/>
      <point x="603" y="104" type="curve" smooth="yes"/>
      <point x="637" y="104"/>
      <point x="660" y="126"/>
      <point x="679" y="160" type="curve"/>
      <point x="653" y="299" type="line"/>
      <point x="626" y="248"/>
      <point x="601" y="184"/>
      <point x="543" y="184" type="curve" smooth="yes"/>
      <point x="523" y="184"/>
      <point x="512" y="200"/>
      <point x="512" y="229" type="curve" smooth="yes"/>
      <point x="512" y="271"/>
      <point x="530" y="305"/>
      <point x="562" y="305" type="curve" smooth="yes"/>
      <point x="583" y="305"/>
      <point x="594" y="263"/>
      <point x="593" y="190" type="curve" smooth="yes"/>
      <point x="592" y="133"/>
      <point x="539" y="74"/>
      <point x="425" y="74" type="curve" smooth="yes"/>
      <point x="300" y="74"/>
      <point x="242" y="130"/>
      <point x="242" y="240" type="curve" smooth="yes"/>
      <point x="242" y="366"/>
      <point x="537" y="433"/>
      <point x="537" y="572" type="curve" smooth="yes"/>
      <point x="537" y="648"/>
      <point x="420" y="703"/>
      <point x="369" y="757" type="curve"/>
      <point x="345" y="713" type="line"/>
      <point x="380" y="689"/>
      <point x="424" y="657"/>
      <point x="424" y="624" type="curve" smooth="yes"/>
      <point x="424" y="509"/>
      <point x="112" y="452"/>
      <point x="112" y="288" type="curve" smooth="yes"/>
      <point x="112" y="121"/>
      <point x="306" y="-10"/>
      <point x="453" y="-10" type="curve" smooth="yes"/>
    </contour>
  </outline>
</glyph>
<glyph name="nnadeva" format="1">
  <advance width="911"/>
  <unicode hex="0923"/>
  <outline>
    <contour>
      <point x="453" y="786" type="line"/>
      <point x="453" y="473" type="line" smooth="yes"/>
      <point x="454" y="378"/>
      <point x="368" y="338"/>
      <point x="298" y="338" type="curve" smooth="yes"/>
      <point x="236" y="338"/>
      <point x="207" y="382"/>
      <point x="207" y="457" type="curve" smooth="yes"/>
      <point x="208" y="786" type="line"/>
      <point x="88" y="786" type="line"/>
      <point x="87" y="491" type="line" smooth="yes"/>
      <point x="87" y="363"/>
      <point x="239" y="258"/>
      <point x="358" y="258" type="curve" smooth="yes"/>
      <point x="476" y="258"/>
      <point x="573" y="357"/>
      <point x="573" y="454" type="curve" smooth="yes"/>
      <point x="573" y="786" type="line"/>
    </contour>
    <contour>
      <point x="-60" y="786" type="line"/>
      <point x="-60" y="748" type="line"/>
      <point x="10" y="686" type="line"/>
      <point x="758" y="686" type="line"/>
      <point x="758" y="724" type="line"/>
      <point x="688" y="786" type="line"/>
    </contour>
    <component base="uni093E" xOffset="583"/>
  </outline>
</glyph>
<glyph name="tadeva" format="1">
  <advance width="604"/>
  <unicode hex="0924"/>
  <outline>
    <contour>
      <point x="212" y="478" type="line" smooth="yes"/>
      <point x="116" y="478"/>
      <point x="44" y="403"/>
      <point x="44" y="303" type="curve" smooth="yes"/>
      <point x="44" y="281"/>
      <point x="47" y="258"/>
      <point x="52" y="242" type="curve"/>
      <point x="218" y="-19" type="line"/>
      <point x="258" y="11" type="line"/>
      <point x="171" y="148" type="line" smooth="yes"/>
      <point x="141" y="195"/>
      <point x="128" y="240"/>
      <point x="128" y="275" type="curve" smooth="yes"/>
      <point x="128" y="327"/>
      <point x="166" y="368"/>
      <point x="229" y="368" type="curve" smooth="yes"/>
      <point x="469" y="368" type="line"/>
      <point x="469" y="478" type="line"/>
    </contour>
    <contour>
      <point x="-60" y="786" type="line"/>
      <point x="-60" y="748" type="line"/>
      <point x="14" y="686" type="line"/>
      <point x="420" y="686" type="line"/>
      <point x="420" y="724" type="line"/>
      <point x="346" y="786" type="line"/>
    </contour>
    <component base="uni093E" xOffset="276"/>
  </outline>
</glyph>
<glyph name="thadeva" format="1">
  <advance width="782"/>
  <unicode hex="0925"/>
  <outline>
    <contour>
      <point x="592" y="786" type="line"/>
      <point x="592" y="30" type="line"/>
      <point x="674" y="-10" type="line"/>
      <point x="712" y="-10" type="line"/>
      <point x="712" y="786" type="line"/>
    </contour>
    <contour>
      <point x="414" y="786" type="line"/>
      <point x="414" y="748" type="line"/>
      <point x="484" y="686" type="line"/>
      <point x="872" y="686" type="line"/>
      <point x="872" y="724" type="line"/>
      <point x="802" y="786" type="line"/>
    </contour>
    <contour>
      <point x="95" y="394"/>
      <point x="83" y="395"/>
      <point x="71" y="397" type="curve"/>
      <point x="71" y="359" type="line"/>
      <point x="81" y="273"/>
      <point x="283" y="168"/>
      <point x="442" y="168" type="curve" smooth="yes"/>
      <point x="585" y="168"/>
      <point x="628" y="257"/>
      <point x="707" y="354" type="curve"/>
      <point x="610" y="413" type="line"/>
      <point x="527" y="318"/>
      <point x="480" y="248"/>
      <point x="382" y="248" type="curve" smooth="yes"/>
      <point x="250" y="248"/>
      <point x="191" y="292"/>
      <point x="191" y="367" type="curve"/>
      <point x="157" y="305" type="line"/>
      <point x="315" y="305"/>
      <point x="427" y="396"/>
      <point x="427" y="513" type="curve" smooth="yes"/>
      <point x="427" y="671"/>
      <point x="311" y="806"/>
      <point x="216" y="806" type="curve" smooth="yes"/>
      <point x="124" y="806"/>
      <point x="56" y="744"/>
      <point x="56" y="668" type="curve" smooth="yes"/>
      <point x="56" y="556"/>
      <point x="184" y="465"/>
      <point x="287" y="465" type="curve" smooth="yes"/>
      <point x="321" y="465"/>
      <point x="344" y="487"/>
      <point x="363" y="521" type="curve"/>
      <point x="337" y="660" type="line"/>
      <point x="310" y="609"/>
      <point x="285" y="545"/>
      <point x="227" y="545" type="curve" smooth="yes"/>
      <point x="200" y="545"/>
      <point x="186" y="572"/>
      <point x="186" y="620" type="curve" smooth="yes"/>
      <point x="186" y="679"/>
      <point x="211" y="726"/>
      <point x="256" y="726" type="curve" smooth="yes"/>
      <point x="283" y="726"/>
      <point x="297" y="663"/>
      <point x="297" y="561" type="curve" smooth="yes"/>
      <point x="297" y="466"/>
      <point x="235" y="394"/>
      <point x="106" y="394" type="curve" smooth="yes"/>
    </contour>
  </outline>
</glyph>
<glyph name="dadeva" format="1">
  <advance width="758"/>
  <unicode hex="0926"/>
  <outline>
    <contour>
      <point x="345" y="713" type="line"/>
      <point x="400" y="675"/>
      <point x="424" y="648"/>
      <point x="424" y="624" type="curve" smooth="yes"/>
      <point x="424" y="509"/>
      <point x="112" y="452"/>
      <point x="112" y="288" type="curve" smooth="yes"/>
      <point x="112" y="121"/>
      <point x="306" y="-10"/>
      <point x="453" y="-10" type="curve" smooth="yes"/>
      <point x="528" y="-10"/>
      <point x="592" y="15"/>
      <point x="639" y="58" type="curve"/>
      <point x="537" y="132" type="line"/>
      <point x="504" y="96"/>
      <point x="457" y="74"/>
      <point x="395" y="74" type="curve" smooth="yes"/>
      <point x="291" y="74"/>
      <point x="242" y="130"/>
      <point x="242" y="240" type="curve" smooth="yes"/>
      <point x="242" y="366"/>
      <point x="537" y="433"/>
      <point x="537" y="572" type="curve" smooth="yes"/>
      <point x="537" y="648"/>
      <point x="420" y="703"/>
      <point x="369" y="757" type="curve"/>
    </contour>
    <contour>
      <point x="537" y="12" type="line"/>
      <point x="829" y="-233" type="line"/>
      <point x="862" y="-196" type="line"/>
      <point x="569" y="50" type="line"/>
    </contour>
    <contour>
      <point x="417" y="238"/>
      <point x="388" y="219"/>
      <point x="388" y="197" type="curve" smooth="yes"/>
      <point x="388" y="130"/>
      <point x="501" y="21"/>
      <point x="568" y="21" type="curve" smooth="yes"/>
      <point x="618" y="21"/>
      <point x="692" y="103"/>
      <point x="692" y="149" type="curve" smooth="yes"/>
      <point x="692" y="209"/>
      <point x="528" y="240"/>
      <point x="473" y="238" type="curve" smooth="yes"/>
    </contour>
    <contour>
      <point x="-60" y="786" type="line"/>
      <point x="-60" y="748" type="line"/>
      <point x="10" y="686" type="line"/>
      <point x="848" y="686" type="line"/>
      <point x="848" y="724" type="line"/>
      <point x="778" y="786" type="line"/>
    </contour>
  </outline>
</glyph>
<glyph name="dhadeva" format="1">
  <advance width="852"/>
  <unicode hex="0927"/>
  <outline>
    <contour>
      <point x="262" y="559"/>
      <point x="151" y="490"/>
      <point x="151" y="398" type="curve" smooth="yes"/>
      <point x="151" y="284"/>
      <point x="325" y="165"/>
      <point x="492" y="165" type="curve" smooth="yes"/>
      <point x="600" y="165"/>
      <point x="632" y="186"/>
      <point x="777" y="351" type="curve"/>
      <point x="680" y="410" type="line"/>
      <point x="541" y="265"/>
      <point x="511" y="245"/>
      <point x="432" y="245" type="curve" smooth="yes"/>
      <point x="333" y="245"/>
      <point x="281" y="281"/>
      <point x="281" y="350" type="curve" smooth="yes"/>
      <point x="281" y="425"/>
      <point x="343" y="471"/>
      <point x="443" y="471" type="curve" smooth="yes"/>
      <point x="455" y="471"/>
      <point x="465" y="470"/>
      <point x="478" y="469" type="curve"/>
      <point x="478" y="507" type="line"/>
      <point x="411" y="559" type="line"/>
    </contour>
    <contour>
      <point x="177" y="883"/>
      <point x="110" y="817"/>
      <point x="110" y="715" type="curve" smooth="yes"/>
      <point x="110" y="605"/>
      <point x="196" y="511"/>
      <point x="324" y="479" type="curve"/>
      <point x="351" y="529" type="line"/>
      <point x="271" y="572"/>
      <point x="240" y="614"/>
      <point x="240" y="677" type="curve" smooth="yes"/>
      <point x="240" y="751"/>
      <point x="280" y="798"/>
      <point x="342" y="798" type="curve" smooth="yes"/>
      <point x="368" y="798"/>
      <point x="381" y="788"/>
      <point x="381" y="768" type="curve" smooth="yes"/>
      <point x="381" y="737"/>
      <point x="360" y="717"/>
      <point x="329" y="717" type="curve" smooth="yes"/>
      <point x="316" y="717"/>
      <point x="305" y="719"/>
      <point x="295" y="724" type="curve"/>
      <point x="295" y="686" type="line"/>
      <point x="362" y="634" type="line"/>
      <point x="371" y="633"/>
      <point x="378" y="632"/>
      <point x="381" y="632" type="curve" smooth="yes"/>
      <point x="453" y="632"/>
      <point x="511" y="671"/>
      <point x="511" y="720" type="curve" smooth="yes"/>
      <point x="511" y="801"/>
      <point x="395" y="883"/>
      <point x="280" y="883" type="curve" smooth="yes"/>
    </contour>
    <contour>
      <point x="662" y="786" type="line"/>
      <point x="662" y="30" type="line"/>
      <point x="744" y="-10" type="line"/>
      <point x="782" y="-10" type="line"/>
      <point x="782" y="786" type="line"/>
    </contour>
    <contour>
      <point x="564" y="786" type="line"/>
      <point x="564" y="748" type="line"/>
      <point x="634" y="686" type="line"/>
      <point x="942" y="686" type="line"/>
      <point x="942" y="724" type="line"/>
      <point x="872" y="786" type="line"/>
    </contour>
  </outline>
</glyph>
<glyph name="nadeva" format="1">
  <advance width="678"/>
  <unicode hex="0928"/>
  <outline>
    <contour>
      <point x="543" y="338" type="line"/>
      <point x="543" y="448" type="line"/>
      <point x="262" y="448" type="line" smooth="yes"/>
      <point x="121" y="448"/>
      <point x="78" y="439"/>
      <point x="78" y="410" type="curve" smooth="yes"/>
      <point x="78" y="344"/>
      <point x="190" y="234"/>
      <point x="258" y="234" type="curve" smooth="yes"/>
      <point x="311" y="234"/>
      <point x="382" y="319"/>
      <point x="382" y="382" type="curve"/>
      <point x="345" y="338" type="line"/>
    </contour>
    <contour>
      <point x="-66" y="786" type="line"/>
      <point x="-66" y="748" type="line"/>
      <point x="10" y="686" type="line"/>
      <point x="496" y="686" type="line"/>
      <point x="496" y="724" type="line"/>
      <point x="420" y="786" type="line"/>
    </contour>
    <component base="uni093E" xOffset="350"/>
  </outline>
</glyph>
<glyph name="padeva" format="1">
  <advance width="668"/>
  <unicode hex="092A"/>
  <outline>
    <contour>
      <point x="458" y="786" type="line"/>
      <point x="458" y="30" type="line"/>
      <point x="540" y="-10" type="line"/>
      <point x="578" y="-10" type="line"/>
      <point x="578" y="786" type="line"/>
    </contour>
    <contour>
      <point x="-60" y="786" type="line"/>
      <point x="-60" y="748" type="line"/>
      <point x="10" y="686" type="line"/>
      <point x="758" y="686" type="line"/>
      <point x="758" y="724" type="line"/>
      <point x="688" y="786" type="line"/>
    </contour>
    <contour>
      <point x="208" y="786" type="line"/>
      <point x="88" y="786" type="line"/>
      <point x="87" y="501" type="line" smooth="yes"/>
      <point x="87" y="373"/>
      <point x="239" y="268"/>
      <point x="358" y="268" type="curve" smooth="yes"/>
      <point x="476" y="268"/>
      <point x="509" y="357"/>
      <point x="573" y="454" type="curve"/>
      <point x="476" y="513" type="line"/>
      <point x="413" y="418"/>
      <point x="376" y="348"/>
      <point x="298" y="348" type="curve" smooth="yes"/>
      <point x="236" y="348"/>
      <point x="207" y="392"/>
      <point x="207" y="467" type="curve" smooth="yes"/>
    </contour>
  </outline>
</glyph>
<glyph name="pha-deva" format="1">
  <advance width="1038"/>
  <unicode hex="092B"/>
  <outline>
    <contour>
      <point x="553" y="549"/>
      <point x="520" y="460"/>
      <point x="485" y="402" type="curve"/>
      <point x="559" y="308" type="line"/>
      <point x="620" y="399"/>
      <point x="653" y="469"/>
      <point x="731" y="469" type="curve" smooth="yes"/>
      <point x="786" y="469"/>
      <point x="812" y="430"/>
      <point x="812" y="364" type="curve" smooth="yes"/>
      <point x="812" y="305"/>
      <point x="777" y="255"/>
      <point x="707" y="255" type="curve" smooth="yes"/>
      <point x="696" y="255"/>
      <point x="684" y="256"/>
      <point x="672" y="258" type="curve"/>
      <point x="672" y="220" type="line"/>
      <point x="742" y="158" type="line"/>
      <point x="858" y="158"/>
      <point x="942" y="229"/>
      <point x="942" y="316" type="curve" smooth="yes"/>
      <point x="942" y="444"/>
      <point x="790" y="549"/>
      <point x="671" y="549" type="curve" smooth="yes"/>
    </contour>
    <contour>
      <point x="440" y="786" type="line"/>
      <point x="440" y="748" type="line"/>
      <point x="510" y="686" type="line"/>
      <point x="1098" y="686" type="line"/>
      <point x="1098" y="724" type="line"/>
      <point x="1028" y="786" type="line"/>
    </contour>
    <component base="pa-deva"/>
    <contour>
      <point x="806" y="63" type="move" name="halant"/>
    </contour>
    <contour>
      <point x="416" y="399" type="move" name="leg"/>
    </contour>
    <contour>
      <point x="194" y="78" type="move" name="nukta"/>
    </contour>
  </outline>
</glyph>
<glyph name="bhadeva" format="1">
  <advance width="758"/>
  <unicode hex="092D"/>
  <outline>
    <contour>
      <point x="623" y="338" type="line"/>
      <point x="623" y="448" type="line"/>
      <point x="262" y="448" type="line" smooth="yes"/>
      <point x="121" y="448"/>
      <point x="78" y="439"/>
      <point x="78" y="410" type="curve" smooth="yes"/>
      <point x="78" y="344"/>
      <point x="190" y="234"/>
      <point x="258" y="234" type="curve" smooth="yes"/>
      <point x="311" y="234"/>
      <point x="382" y="319"/>
      <point x="382" y="382" type="curve"/>
      <point x="345" y="338" type="line"/>
    </contour>
    <contour>
      <point x="379" y="696"/>
      <point x="279" y="806"/>
      <point x="198" y="806" type="curve" smooth="yes"/>
      <point x="112" y="806"/>
      <point x="48" y="757"/>
      <point x="48" y="698" type="curve" smooth="yes"/>
      <point x="48" y="603"/>
      <point x="170" y="525"/>
      <point x="269" y="525" type="curve" smooth="yes"/>
      <point x="303" y="525"/>
      <point x="326" y="547"/>
      <point x="345" y="581" type="curve"/>
      <point x="319" y="720" type="line"/>
      <point x="292" y="669"/>
      <point x="267" y="605"/>
      <point x="209" y="605" type="curve" smooth="yes"/>
      <point x="189" y="605"/>
      <point x="178" y="621"/>
      <point x="178" y="650" type="curve" smooth="yes"/>
      <point x="178" y="692"/>
      <point x="196" y="726"/>
      <point x="228" y="726" type="curve" smooth="yes"/>
      <point x="249" y="726"/>
      <point x="259" y="684"/>
      <point x="259" y="611" type="curve" smooth="yes"/>
      <point x="259" y="427" type="line"/>
      <point x="341" y="387" type="line"/>
      <point x="379" y="387" type="line"/>
      <point x="379" y="563" type="line" smooth="yes"/>
    </contour>
    <contour>
      <point x="568" y="786" type="line"/>
      <point x="568" y="30" type="line"/>
      <point x="650" y="-10" type="line"/>
      <point x="688" y="-10" type="line"/>
      <point x="688" y="786" type="line"/>
    </contour>
    <contour>
      <point x="370" y="786" type="line"/>
      <point x="370" y="748" type="line"/>
      <point x="440" y="686" type="line"/>
      <point x="848" y="686" type="line"/>
      <point x="848" y="724" type="line"/>
      <point x="778" y="786" type="line"/>
    </contour>
  </outline>
</glyph>
<glyph name="madeva" format="1">
  <advance width="718"/>
  <unicode hex="092E"/>
  <outline>
    <contour>
      <point x="209" y="786" type="line"/>
      <point x="209" y="417" type="line"/>
      <point x="291" y="377" type="line"/>
      <point x="329" y="377" type="line"/>
      <point x="329" y="786" type="line"/>
    </contour>
    <contour>
      <point x="583" y="338" type="line"/>
      <point x="583" y="448" type="line"/>
      <point x="222" y="448" type="line" smooth="yes"/>
      <point x="81" y="448"/>
      <point x="38" y="439"/>
      <point x="38" y="410" type="curve" smooth="yes"/>
      <point x="38" y="344"/>
      <point x="150" y="234"/>
      <point x="218" y="234" type="curve" smooth="yes"/>
      <point x="271" y="234"/>
      <point x="342" y="319"/>
      <point x="342" y="382" type="curve"/>
      <point x="305" y="338" type="line"/>
    </contour>
    <contour>
      <point x="-106" y="786" type="line"/>
      <point x="-106" y="748" type="line"/>
      <point x="-32" y="686" type="line"/>
      <point x="534" y="686" type="line"/>
      <point x="534" y="724" type="line"/>
      <point x="460" y="786" type="line"/>
    </contour>
    <component base="uni093E" xOffset="390"/>
  </outline>
</glyph>
<glyph name="uni092F" format="1">
  <advance width="762"/>
  <unicode hex="092F"/>
  <outline>
    <contour>
      <point x="552" y="786" type="line"/>
      <point x="552" y="30" type="line"/>
      <point x="634" y="-10" type="line"/>
      <point x="672" y="-10" type="line"/>
      <point x="672" y="786" type="line"/>
    </contour>
    <contour>
      <point x="-66" y="786" type="line"/>
      <point x="-66" y="748" type="line"/>
      <point x="4" y="686" type="line"/>
      <point x="852" y="686" type="line"/>
      <point x="852" y="724" type="line"/>
      <point x="782" y="786" type="line"/>
    </contour>
    <contour>
      <point x="283" y="395"/>
      <point x="367" y="466"/>
      <point x="367" y="553" type="curve" smooth="yes"/>
      <point x="367" y="681"/>
      <point x="215" y="786"/>
      <point x="96" y="786" type="curve"/>
      <point x="156" y="706" type="line"/>
      <point x="211" y="706"/>
      <point x="237" y="667"/>
      <point x="237" y="601" type="curve" smooth="yes"/>
      <point x="237" y="534"/>
      <point x="203" y="480"/>
      <point x="135" y="480" type="curve" smooth="yes"/>
      <point x="118" y="480"/>
      <point x="100" y="482"/>
      <point x="81" y="487" type="curve"/>
      <point x="81" y="449" type="line"/>
      <point x="91" y="363"/>
      <point x="245" y="258"/>
      <point x="372" y="258" type="curve" smooth="yes"/>
      <point x="530" y="258"/>
      <point x="579" y="347"/>
      <point x="667" y="444" type="curve"/>
      <point x="570" y="503" type="line"/>
      <point x="475" y="408"/>
      <point x="422" y="338"/>
      <point x="312" y="338" type="curve" smooth="yes"/>
      <point x="236" y="338"/>
      <point x="201" y="382"/>
      <point x="201" y="457" type="curve"/>
      <point x="167" y="395" type="line"/>
    </contour>
  </outline>
</glyph>
<glyph name="radeva" format="1">
  <advance width="446"/>
  <unicode hex="0930"/>
  <outline>
    <contour>
      <point x="200" y="717" type="line"/>
      <point x="250" y="658"/>
      <point x="285" y="495"/>
      <point x="244" y="399" type="curve"/>
      <point x="312" y="420" type="line"/>
      <point x="174" y="467"/>
      <point x="68" y="461"/>
      <point x="68" y="405" type="curve" smooth="yes"/>
      <point x="68" y="346"/>
      <point x="181" y="234"/>
      <point x="250" y="234" type="curve" smooth="yes"/>
      <point x="311" y="234"/>
      <point x="397" y="319"/>
      <point x="397" y="444" type="curve" smooth="yes"/>
      <point x="397" y="533"/>
      <point x="367" y="635"/>
      <point x="296" y="728" type="curve"/>
    </contour>
    <contour>
      <point x="145" y="286" type="line"/>
      <point x="498" y="-10" type="line"/>
      <point x="531" y="27" type="line"/>
      <point x="177" y="324" type="line"/>
    </contour>
    <contour>
      <point x="-106" y="786" type="line"/>
      <point x="-106" y="748" type="line"/>
      <point x="-30" y="686" type="line"/>
      <point x="536" y="686" type="line"/>
      <point x="536" y="724" type="line"/>
      <point x="460" y="786" type="line"/>
    </contour>
  </outline>
</glyph>
<glyph name="rra-deva" format="1">
  <advance width="446"/>
  <unicode hex="0931"/>
  <outline>
	<component base="ra-deva"/>
	<component base="nukta-deva" xOffset="50" yOffset="137"/>
	<contour>
	  <point x="202" y="-67" type="move" name="bottom"/>
	</contour>
  </outline>
</glyph>
<glyph name="lladeva" format="1">
  <advance width="952"/>
  <unicode hex="0933"/>
  <outline>
    <contour>
      <point x="525" y="499"/>
      <point x="492" y="410"/>
      <point x="428" y="313" type="curve" smooth="yes"/>
      <point x="389" y="258"/>
      <point x="356" y="188"/>
      <point x="278" y="188" type="curve" smooth="yes"/>
      <point x="223" y="188"/>
      <point x="197" y="227"/>
      <point x="197" y="293" type="curve" smooth="yes"/>
      <point x="197" y="360"/>
      <point x="231" y="414"/>
      <point x="299" y="414" type="curve" smooth="yes"/>
      <point x="333" y="414"/>
      <point x="385" y="403"/>
      <point x="464" y="328" type="curve"/>
      <point x="494" y="351" type="line"/>
      <point x="317" y="491" type="line"/>
      <point x="302" y="497"/>
      <point x="281" y="499"/>
      <point x="267" y="499" type="curve" smooth="yes"/>
      <point x="151" y="499"/>
      <point x="67" y="428"/>
      <point x="67" y="341" type="curve" smooth="yes"/>
      <point x="67" y="213"/>
      <point x="219" y="108"/>
      <point x="338" y="108" type="curve" smooth="yes"/>
      <point x="456" y="108"/>
      <point x="489" y="197"/>
      <point x="553" y="294" type="curve" smooth="yes"/>
      <point x="592" y="349"/>
      <point x="625" y="419"/>
      <point x="703" y="419" type="curve" smooth="yes"/>
      <point x="758" y="419"/>
      <point x="784" y="380"/>
      <point x="784" y="314" type="curve" smooth="yes"/>
      <point x="784" y="247"/>
      <point x="750" y="193"/>
      <point x="682" y="193" type="curve" smooth="yes"/>
      <point x="648" y="193"/>
      <point x="596" y="204"/>
      <point x="517" y="279" type="curve"/>
      <point x="487" y="256" type="line"/>
      <point x="664" y="116" type="line"/>
      <point x="679" y="110"/>
      <point x="700" y="108"/>
      <point x="714" y="108" type="curve" smooth="yes"/>
      <point x="830" y="108"/>
      <point x="914" y="179"/>
      <point x="914" y="266" type="curve" smooth="yes"/>
      <point x="914" y="394"/>
      <point x="762" y="499"/>
      <point x="643" y="499" type="curve" smooth="yes"/>
    </contour>
    <contour>
      <point x="-60" y="786" type="line"/>
      <point x="-60" y="748" type="line"/>
      <point x="10" y="686" type="line"/>
      <point x="1042" y="686" type="line"/>
      <point x="1042" y="724" type="line"/>
      <point x="972" y="786" type="line"/>
    </contour>
    <contour>
      <point x="612" y="786" type="line"/>
      <point x="612" y="480" type="line"/>
      <point x="694" y="440" type="line"/>
      <point x="732" y="440" type="line"/>
      <point x="732" y="786" type="line"/>
    </contour>
  </outline>
</glyph>
<glyph name="llla-deva" format="1">
  <advance width="1037"/>
  <unicode hex="0934"/>
  <outline>
	<component base="lla-deva"/>
	<component base="nukta-deva" xOffset="43" yOffset="137"/>
	<contour>
	  <point x="892" y="100" type="move" name="bottom"/>
	</contour>
  </outline>
</glyph>
<glyph name="vadeva" format="1">
  <advance width="668"/>
  <unicode hex="0935"/>
  <outline>
    <contour>
      <point x="171" y="549"/>
      <point x="87" y="478"/>
      <point x="87" y="391" type="curve" smooth="yes"/>
      <point x="87" y="263"/>
      <point x="239" y="158"/>
      <point x="358" y="158" type="curve" smooth="yes"/>
      <point x="476" y="158"/>
      <point x="509" y="247"/>
      <point x="573" y="344" type="curve"/>
      <point x="476" y="403" type="line"/>
      <point x="413" y="308"/>
      <point x="376" y="238"/>
      <point x="298" y="238" type="curve" smooth="yes"/>
      <point x="243" y="238"/>
      <point x="217" y="277"/>
      <point x="217" y="343" type="curve" smooth="yes"/>
      <point x="217" y="402"/>
      <point x="252" y="452"/>
      <point x="322" y="452" type="curve" smooth="yes"/>
      <point x="333" y="452"/>
      <point x="345" y="451"/>
      <point x="357" y="449" type="curve"/>
      <point x="357" y="487" type="line"/>
      <point x="287" y="549" type="line"/>
    </contour>
    <contour>
      <point x="458" y="786" type="line"/>
      <point x="458" y="30" type="line"/>
      <point x="540" y="-10" type="line"/>
      <point x="578" y="-10" type="line"/>
      <point x="578" y="786" type="line"/>
    </contour>
    <contour>
      <point x="-60" y="786" type="line"/>
      <point x="-60" y="748" type="line"/>
      <point x="10" y="686" type="line"/>
      <point x="758" y="686" type="line"/>
      <point x="758" y="724" type="line"/>
      <point x="688" y="786" type="line"/>
    </contour>
  </outline>
</glyph>
<glyph name="sha-deva" format="1">
  <advance width="829"/>
  <unicode hex="0936"/>
  <outline>
	<contour>
	  <point x="159" y="806"/>
	  <point x="115" y="757"/>
	  <point x="115" y="698" type="curve" smooth="yes"/>
	  <point x="115" y="603"/>
	  <point x="237" y="525"/>
	  <point x="336" y="525" type="curve" smooth="yes"/>
	  <point x="370" y="525"/>
	  <point x="393" y="547"/>
	  <point x="412" y="581" type="curve"/>
	  <point x="386" y="720" type="line"/>
	  <point x="359" y="669"/>
	  <point x="334" y="605"/>
	  <point x="276" y="605" type="curve" smooth="yes"/>
	  <point x="256" y="605"/>
	  <point x="245" y="621"/>
	  <point x="245" y="650" type="curve" smooth="yes"/>
	  <point x="245" y="692"/>
	  <point x="263" y="726"/>
	  <point x="295" y="726" type="curve" smooth="yes"/>
	  <point x="316" y="726"/>
	  <point x="330" y="684"/>
	  <point x="330" y="534" type="curve" smooth="yes"/>
	  <point x="330" y="486"/>
	  <point x="323" y="457"/>
	  <point x="310" y="430" type="curve"/>
	  <point x="266" y="444"/>
	  <point x="228" y="449"/>
	  <point x="202" y="449" type="curve" smooth="yes"/>
	  <point x="149" y="449"/>
	  <point x="122" y="429"/>
	  <point x="122" y="397" type="curve" smooth="yes"/>
	  <point x="122" y="334"/>
	  <point x="230" y="224"/>
	  <point x="305" y="224" type="curve" smooth="yes"/>
	  <point x="388" y="224"/>
	  <point x="450" y="358"/>
	  <point x="450" y="497" type="curve" smooth="yes"/>
	  <point x="450" y="696"/>
	  <point x="346" y="806"/>
	  <point x="235" y="806" type="curve" smooth="yes"/>
	</contour>
	<contour>
	  <point x="248" y="384" type="line"/>
	  <point x="520" y="164" type="line"/>
	  <point x="553" y="201" type="line"/>
	  <point x="280" y="422" type="line"/>
	</contour>
	<component base="aaMatra-deva" xOffset="501"/>
	<contour>
	  <point x="302" y="0" type="move" name="nukta"/>
	</contour>
  </outline>
</glyph>
<glyph name="sadeva" format="1">
  <advance width="718"/>
  <unicode hex="0938"/>
  <outline>
    <contour>
      <point x="115" y="286" type="line"/>
      <point x="468" y="-10" type="line"/>
      <point x="501" y="27" type="line"/>
      <point x="147" y="324" type="line"/>
    </contour>
    <component base="madeva"/>
  </outline>
</glyph>
<glyph name="ha-deva" format="1">
  <advance width="578"/>
  <unicode hex="0939"/>
  <outline>
    <contour>
      <point x="154" y="325"/>
      <point x="85" y="248"/>
      <point x="85" y="142" type="curve" smooth="yes"/>
      <point x="85" y="124"/>
      <point x="88" y="99"/>
      <point x="92" y="84" type="curve"/>
      <point x="486" y="-264" type="line"/>
      <point x="518" y="-227" type="line"/>
      <point x="307" y="-40" type="line" smooth="yes"/>
      <point x="247" y="13"/>
      <point x="215" y="60"/>
      <point x="215" y="119" type="curve" smooth="yes"/>
      <point x="215" y="199"/>
      <point x="265" y="245"/>
      <point x="351" y="245" type="curve" smooth="yes"/>
      <point x="417" y="245"/>
      <point x="449" y="218"/>
      <point x="449" y="163" type="curve" smooth="yes"/>
      <point x="449" y="129"/>
      <point x="433" y="101"/>
      <point x="404" y="81" type="curve"/>
      <point x="404" y="43" type="line"/>
      <point x="474" y="-19" type="line"/>
      <point x="536" y="6"/>
      <point x="579" y="59"/>
      <point x="579" y="114" type="curve" smooth="yes"/>
      <point x="579" y="220"/>
      <point x="419" y="325"/>
      <point x="276" y="325" type="curve" smooth="yes"/>
    </contour>
    <contour>
      <point x="287" y="570" type="line" smooth="yes"/>
      <point x="193" y="570"/>
      <point x="114" y="509"/>
      <point x="114" y="430" type="curve" smooth="yes"/>
      <point x="114" y="415"/>
      <point x="117" y="391"/>
      <point x="122" y="378" type="curve"/>
      <point x="264" y="256" type="line"/>
      <point x="296" y="293" type="line"/>
      <point x="282" y="305" type="line" smooth="yes"/>
      <point x="260" y="324"/>
      <point x="244" y="361"/>
      <point x="244" y="394" type="curve" smooth="yes"/>
      <point x="244" y="443"/>
      <point x="279" y="470"/>
      <point x="340" y="470" type="curve" smooth="yes"/>
      <point x="468" y="470" type="line"/>
      <point x="468" y="570" type="line"/>
    </contour>
    <contour>
      <point x="348" y="786" type="line"/>
      <point x="348" y="510" type="line"/>
      <point x="430" y="470" type="line"/>
      <point x="468" y="470" type="line"/>
      <point x="468" y="786" type="line"/>
    </contour>
    <contour>
      <point x="0" y="786" type="line"/>
      <point x="0" y="748" type="line"/>
      <point x="70" y="686" type="line"/>
      <point x="668" y="686" type="line"/>
      <point x="668" y="724" type="line"/>
      <point x="598" y="786" type="line"/>
    </contour>
    <contour>
      <point x="141" y="-146" type="move" name="halant"/>
    </contour>
    <contour>
      <point x="152" y="-176" type="move" name="nukta"/>
    </contour>
    <contour>
      <point x="348" y="786" type="move" name="top"/>
    </contour>
    <contour>
      <point x="307" y="-40" type="move" name="outstroke"/>
    </contour>
    <contour>
      <point x="286" y="-82" type="move" name="bottom"/>
    </contour>
  </outline>
</glyph>
<glyph name="oeMatra-deva" format="1">
  <advance width="240"/>
  <unicode hex="093A"/>
  <outline>
	<contour>
	  <point x="60" y="1133" type="line"/>
	  <point x="98" y="1133" type="line"/>
	  <point x="180" y="1093" type="line"/>
	  <point x="180" y="712" type="line"/>
	  <point x="142" y="712" type="line"/>
	  <point x="60" y="752" type="line"/>
	</contour>
	<contour>
	  <point x="60" y="786" type="move" name="_top"/>
	</contour>
  </outline>
</glyph>
<glyph name="nukta-deva" format="1">
  <advance width="260"/>
  <unicode hex="093C"/>
  <outline>
    <contour>
      <point x="70" y="-49" type="line"/>
      <point x="70" y="-185" type="line"/>
      <point x="152" y="-225" type="line"/>
      <point x="190" y="-225" type="line"/>
      <point x="190" y="-89" type="line"/>
      <point x="108" y="-49" type="line"/>
    </contour>
    <contour>
      <point x="130" y="-137" type="move" name="_nukta"/>
    </contour>
  </outline>
</glyph>
<glyph name="avagraha-deva" format="1">
  <advance width="628"/>
  <unicode hex="093D"/>
  <outline>
    <contour>
      <point x="390" y="786" type="line" smooth="yes"/>
      <point x="287" y="786"/>
      <point x="170" y="699"/>
      <point x="170" y="623" type="curve" smooth="yes"/>
      <point x="170" y="495"/>
      <point x="497" y="317"/>
      <point x="497" y="209" type="curve" smooth="yes"/>
      <point x="497" y="153"/>
      <point x="430" y="107"/>
      <point x="355" y="107" type="curve" smooth="yes"/>
      <point x="297" y="107"/>
      <point x="240" y="132"/>
      <point x="182" y="182" type="curve" smooth="yes"/>
      <point x="62" y="285" type="line"/>
      <point x="30" y="247" type="line"/>
      <point x="321" y="-2" type="line"/>
      <point x="339" y="-6"/>
      <point x="376" y="-10"/>
      <point x="400" y="-10" type="curve" smooth="yes"/>
      <point x="510" y="-10"/>
      <point x="627" y="74"/>
      <point x="627" y="154" type="curve" smooth="yes"/>
      <point x="627" y="285"/>
      <point x="300" y="449"/>
      <point x="300" y="568" type="curve" smooth="yes"/>
      <point x="300" y="629"/>
      <point x="386" y="686"/>
      <point x="441" y="686" type="curve" smooth="yes"/>
      <point x="778" y="686" type="line"/>
      <point x="778" y="724" type="line"/>
      <point x="708" y="786" type="line"/>
    </contour>
    <contour>
      <point x="386" y="786" type="move" name="top"/>
    </contour>
    <contour>
      <point x="394" y="0" type="move" name="bottom"/>
    </contour>
  </outline>
</glyph>
<glyph name="aaMatra-deva" format="1">
  <advance width="328"/>
  <unicode hex="093E"/>
  <outline>
	<contour>
	  <point x="0" y="786" type="line"/>
	  <point x="0" y="748" type="line"/>
	  <point x="70" y="686" type="line"/>
	  <point x="418" y="686" type="line"/>
	  <point x="418" y="724" type="line"/>
	  <point x="348" y="786" type="line"/>
	</contour>
	<component base="stem-deva"/>
  </outline>
</glyph>
<glyph name="uni093F" format="1">
  <advance width="328"/>
  <unicode hex="093F"/>
  <outline>
    <contour>
      <point x="319" y="1071"/>
      <point x="192" y="953"/>
      <point x="130" y="741" type="curve"/>
      <point x="250" y="701" type="line"/>
      <point x="298" y="902"/>
      <point x="397" y="972"/>
      <point x="526" y="972" type="curve" smooth="yes"/>
      <point x="632" y="972"/>
      <point x="760" y="924"/>
      <point x="930" y="738" type="curve"/>
      <point x="962" y="776" type="line"/>
      <point x="720" y="1027"/>
      <point x="594" y="1071"/>
      <point x="490" y="1071" type="curve" smooth="yes"/>
    </contour>
    <contour>
      <point x="138" y="786" type="line"/>
      <point x="138" y="30" type="line"/>
      <point x="220" y="-10" type="line"/>
      <point x="258" y="-10" type="line"/>
      <point x="258" y="786" type="line"/>
    </contour>
    <contour>
      <point x="-60" y="786" type="line"/>
      <point x="-60" y="748" type="line"/>
      <point x="10" y="686" type="line"/>
      <point x="180" y="686" type="line"/>
      <point x="183" y="786" type="line"/>
    </contour>
    <contour>
      <point x="198" y="786" type="move" name="top"/>
    </contour>
    <contour>
      <point x="198" y="0" type="move" name="bottom"/>
    </contour>
  </outline>
</glyph>
<glyph name="uuMatra-deva" format="1">
  <advance width="630"/>
  <unicode hex="0942"/>
  <outline>
	<contour>
	  <point x="175" y="-120"/>
	  <point x="50" y="-192"/>
	  <point x="50" y="-295" type="curve" smooth="yes"/>
	  <point x="50" y="-396"/>
	  <point x="172" y="-513"/>
	  <point x="277" y="-513" type="curve" smooth="yes"/>
	  <point x="313" y="-513"/>
	  <point x="355" y="-506"/>
	  <point x="384" y="-492" type="curve"/>
	  <point x="384" y="-454" type="line"/>
	  <point x="314" y="-392" type="line"/>
	  <point x="288" y="-416"/>
	  <point x="247" y="-429"/>
	  <point x="221" y="-429" type="curve" smooth="yes"/>
	  <point x="176" y="-429"/>
	  <point x="159" y="-392"/>
	  <point x="159" y="-356" type="curve" smooth="yes"/>
	  <point x="160" y="-280"/>
	  <point x="214" y="-227"/>
	  <point x="304" y="-227" type="curve" smooth="yes"/>
	  <point x="367" y="-227"/>
	  <point x="422" y="-252"/>
	  <point x="487" y="-309" type="curve" smooth="yes"/>
	  <point x="573" y="-385" type="line"/>
	  <point x="606" y="-348" type="line"/>
	  <point x="357" y="-128" type="line"/>
	  <point x="337" y="-123"/>
	  <point x="299" y="-120"/>
	  <point x="278" y="-120" type="curve" smooth="yes"/>
	</contour>
	<contour>
	  <point x="218" y="0" type="move" name="_bottom"/>
	</contour>
	<contour>
	  <point x="357" y="-128" type="move" name="_outstroke"/>
	</contour>
  </outline>
</glyph>
<glyph name="rVocalicMatra-deva" format="1">
  <advance width="600"/>
  <unicode hex="0943"/>
  <outline>
    <contour>
      <point x="196" y="-131"/>
      <point x="115" y="-195"/>
      <point x="115" y="-287" type="curve" smooth="yes"/>
      <point x="115" y="-403"/>
      <point x="246" y="-513"/>
      <point x="352" y="-513" type="curve" smooth="yes"/>
      <point x="407" y="-513"/>
      <point x="466" y="-484"/>
      <point x="500" y="-462" type="curve"/>
      <point x="500" y="-424" type="line"/>
      <point x="430" y="-362" type="line"/>
      <point x="394" y="-407"/>
      <point x="331" y="-434"/>
      <point x="294" y="-434" type="curve" smooth="yes"/>
      <point x="250" y="-434"/>
      <point x="235" y="-399"/>
      <point x="235" y="-350" type="curve" smooth="yes"/>
      <point x="235" y="-270"/>
      <point x="275" y="-213"/>
      <point x="353" y="-213" type="curve"/>
      <point x="353" y="-175" type="line"/>
      <point x="283" y="-113" type="line"/>
    </contour>
    <contour>
      <point x="242" y="0" type="move" name="_bottom"/>
    </contour>
    <contour>
      <point x="283" y="-113" type="move" name="_connect"/>
    </contour>
  </outline>
</glyph>
<glyph name="rrVocalicMatra-deva" format="1">
  <advance width="525"/>
  <unicode hex="0944"/>
  <outline>
    <contour>
      <point x="203" y="-313"/>
      <point x="107" y="-367"/>
      <point x="107" y="-435" type="curve" smooth="yes"/>
      <point x="107" y="-519"/>
      <point x="246" y="-608"/>
      <point x="378" y="-608" type="curve" smooth="yes"/>
      <point x="425" y="-608"/>
      <point x="479" y="-593"/>
      <point x="522" y="-557" type="curve"/>
      <point x="522" y="-519" type="line"/>
      <point x="452" y="-457" type="line"/>
      <point x="416" y="-503"/>
      <point x="363" y="-533"/>
      <point x="310" y="-534" type="curve" smooth="yes"/>
      <point x="256" y="-534"/>
      <point x="227" y="-520"/>
      <point x="227" y="-493" type="curve" smooth="yes"/>
      <point x="227" y="-435"/>
      <point x="293" y="-403"/>
      <point x="399" y="-402" type="curve"/>
      <point x="399" y="-364" type="line"/>
      <point x="332" y="-312" type="line"/>
    </contour>
    <contour>
      <point x="176" y="-119"/>
      <point x="97" y="-173"/>
      <point x="97" y="-246" type="curve" smooth="yes"/>
      <point x="97" y="-300"/>
      <point x="161" y="-349"/>
      <point x="236" y="-377" type="curve"/>
      <point x="302" y="-374" type="line"/>
      <point x="233" y="-348"/>
      <point x="216" y="-318"/>
      <point x="217" y="-294" type="curve" smooth="yes"/>
      <point x="218" y="-253"/>
      <point x="255" y="-213"/>
      <point x="329" y="-213" type="curve" smooth="yes"/>
      <point x="346" y="-213"/>
      <point x="364" y="-215"/>
      <point x="383" y="-220" type="curve"/>
      <point x="383" y="-182" type="line"/>
      <point x="313" y="-120" type="line"/>
    </contour>
    <contour>
      <point x="232" y="0" type="move" name="_bottom"/>
    </contour>
  </outline>
</glyph>
<glyph name="eCandraMatra-deva" format="1">
  <advance width="659"/>
  <unicode hex="0945"/>
  <outline>
	<contour>
	  <point x="48" y="1216" type="line"/>
	  <point x="43" y="1193"/>
	  <point x="40" y="1167"/>
	  <point x="40" y="1141" type="curve" smooth="yes"/>
	  <point x="40" y="1038"/>
	  <point x="207" y="933"/>
	  <point x="371" y="933" type="curve" smooth="yes"/>
	  <point x="521" y="933"/>
	  <point x="632" y="1021"/>
	  <point x="651" y="1136" type="curve"/>
	  <point x="560" y="1217" type="line"/>
	  <point x="521" y="1183" type="line"/>
	  <point x="502" y="1080"/>
	  <point x="428" y="1017"/>
	  <point x="313" y="1017" type="curve" smooth="yes"/>
	  <point x="217" y="1017"/>
	  <point x="170" y="1044"/>
	  <point x="170" y="1103" type="curve" smooth="yes"/>
	  <point x="170" y="1123"/>
	  <point x="174" y="1149"/>
	  <point x="178" y="1168" type="curve"/>
	  <point x="80" y="1253" type="line"/>
	</contour>
	<contour>
	  <point x="651" y="1136" type="move" name="_right"/>
	</contour>
	<contour>
	  <point x="276" y="1103" type="move" name="top"/>
	</contour>
	<contour>
	  <point x="40" y="1141" type="move" name="_left"/>
	</contour>
	<contour>
	  <point x="276" y="786" type="move" name="_top"/>
	</contour>
	<contour>
	  <point x="337" y="1226" type="move" name="anusvara"/>
	</contour>
  </outline>
</glyph>
<glyph name="eShortMatra-deva" format="1">
  <advance width="600"/>
  <unicode hex="0946"/>
  <outline>
	<contour>
	  <point x="-656" y="1214" type="line"/>
	  <point x="-495" y="1077" type="line" smooth="yes"/>
	  <point x="-394" y="991"/>
	  <point x="-337" y="965"/>
	  <point x="-240" y="965" type="curve" smooth="yes"/>
	  <point x="-147" y="965"/>
	  <point x="-108" y="990"/>
	  <point x="-18" y="990" type="curve" smooth="yes"/>
	  <point x="54" y="990"/>
	  <point x="109" y="969"/>
	  <point x="163" y="922" type="curve" smooth="yes"/>
	  <point x="376" y="738" type="line"/>
	  <point x="408" y="776" type="line"/>
	  <point x="175" y="977" type="line" smooth="yes"/>
	  <point x="75" y="1064"/>
	  <point x="17" y="1089"/>
	  <point x="-80" y="1089" type="curve" smooth="yes"/>
	  <point x="-173" y="1089"/>
	  <point x="-212" y="1064"/>
	  <point x="-302" y="1064" type="curve" smooth="yes"/>
	  <point x="-374" y="1064"/>
	  <point x="-430" y="1087"/>
	  <point x="-483" y="1132" type="curve" smooth="yes"/>
	  <point x="-624" y="1252" type="line"/>
	</contour>
	<contour>
	  <point x="199" y="1141" type="move" name="left"/>
	</contour>
	<contour>
	  <point x="319" y="786" type="move" name="_top"/>
	</contour>
  </outline>
</glyph>
<glyph name="eMatra-deva" format="1">
  <advance width="248"/>
  <unicode hex="0947"/>
  <outline>
	<contour>
	  <point x="-171" y="1133"/>
	  <point x="-209" y="1129"/>
	  <point x="-248" y="1121" type="curve"/>
	  <point x="-248" y="1083" type="line"/>
	  <point x="-178" y="1021" type="line"/>
	  <point x="-136" y="1030"/>
	  <point x="-103" y="1034"/>
	  <point x="-71" y="1034" type="curve" smooth="yes"/>
	  <point x="1" y="1034"/>
	  <point x="56" y="1013"/>
	  <point x="110" y="966" type="curve" smooth="yes"/>
	  <point x="376" y="738" type="line"/>
	  <point x="408" y="776" type="line"/>
	  <point x="122" y="1021" type="line" smooth="yes"/>
	  <point x="21" y="1107"/>
	  <point x="-36" y="1133"/>
	  <point x="-133" y="1133" type="curve" smooth="yes"/>
	</contour>
	<contour>
	  <point x="319" y="786" type="move" name="_top"/>
	</contour>
  </outline>
</glyph>
<glyph name="aivowelsigndeva" format="1">
  <advance width="600"/>
  <unicode hex="0948"/>
  <outline>
    <contour>
      <point x="-74" y="970"/>
      <point x="-112" y="966"/>
      <point x="-151" y="958" type="curve"/>
      <point x="-151" y="920" type="line"/>
      <point x="-81" y="858" type="line"/>
      <point x="-39" y="867"/>
      <point x="-6" y="871"/>
      <point x="26" y="871" type="curve" smooth="yes"/>
      <point x="98" y="871"/>
      <point x="197" y="862"/>
      <point x="295" y="794" type="curve" smooth="yes"/>
      <point x="376" y="738" type="line"/>
      <point x="408" y="776" type="line"/>
      <point x="290" y="860" type="line" smooth="yes"/>
      <point x="149" y="960"/>
      <point x="61" y="970"/>
      <point x="-36" y="970" type="curve" smooth="yes"/>
    </contour>
    <contour>
      <point x="28" y="1133"/>
      <point x="-10" y="1129"/>
      <point x="-49" y="1121" type="curve"/>
      <point x="-49" y="1083" type="line"/>
      <point x="21" y="1021" type="line"/>
      <point x="63" y="1030"/>
      <point x="96" y="1034"/>
      <point x="128" y="1034" type="curve" smooth="yes"/>
      <point x="200" y="1034"/>
      <point x="240" y="994"/>
      <point x="301" y="936" type="curve" smooth="yes"/>
      <point x="520" y="731" type="line"/>
      <point x="552" y="769" type="line"/>
      <point x="302" y="1011" type="line" smooth="yes"/>
      <point x="213" y="1098"/>
      <point x="163" y="1133"/>
      <point x="66" y="1133" type="curve" smooth="yes"/>
    </contour>
    <contour>
      <point x="528" y="786" type="move" name="anusvara-deva"/>
    </contour>
    <contour>
      <point x="383" y="786" type="move" name="_top"/>
    </contour>
  </outline>
</glyph>
<glyph name="halant-deva" format="1">
  <advance width="600"/>
  <unicode hex="094D"/>
  <outline>
    <contour>
      <point x="170" y="-156" type="line"/>
      <point x="432" y="-387" type="line"/>
      <point x="465" y="-350" type="line"/>
      <point x="202" y="-118" type="line"/>
    </contour>
    <contour>
      <point x="0" y="0" type="move" name="_bottom"/>
    </contour>
    <contour>
      <point x="202" y="-118" type="move" name="_halant"/>
    </contour>
  </outline>
</glyph>
<glyph name="prishthaMatraE-deva" format="1">
  <advance width="328"/>
  <unicode hex="094E"/>
  <outline>
    <contour>
      <point x="163" y="786" type="line"/>
      <point x="163" y="748" type="line"/>
      <point x="233" y="686" type="line"/>
      <point x="418" y="686" type="line"/>
      <point x="418" y="724" type="line"/>
      <point x="348" y="786" type="line"/>
    </contour>
    <component base="stem-deva"/>
  </outline>
</glyph>
<glyph name="om-deva" format="1">
  <advance width="1186"/>
  <unicode hex="0950"/>
  <outline>
    <contour>
      <point x="253" y="796"/>
      <point x="187" y="767"/>
      <point x="126" y="714" type="curve"/>
      <point x="126" y="676" type="line"/>
      <point x="196" y="614" type="line"/>
      <point x="256" y="657"/>
      <point x="325" y="686"/>
      <point x="369" y="686" type="curve" smooth="yes"/>
      <point x="413" y="686"/>
      <point x="442" y="657"/>
      <point x="442" y="612" type="curve" smooth="yes"/>
      <point x="442" y="550"/>
      <point x="377" y="482"/>
      <point x="302" y="465" type="curve"/>
      <point x="302" y="427" type="line"/>
      <point x="485" y="314"/>
      <point x="541" y="264"/>
      <point x="541" y="210" type="curve" smooth="yes"/>
      <point x="541" y="152"/>
      <point x="474" y="107"/>
      <point x="388" y="107" type="curve" smooth="yes"/>
      <point x="334" y="107"/>
      <point x="282" y="134"/>
      <point x="226" y="182" type="curve" smooth="yes"/>
      <point x="106" y="285" type="line"/>
      <point x="74" y="247" type="line"/>
      <point x="365" y="-2" type="line"/>
      <point x="383" y="-6"/>
      <point x="420" y="-10"/>
      <point x="444" y="-10" type="curve" smooth="yes"/>
      <point x="556" y="-10"/>
      <point x="671" y="74"/>
      <point x="671" y="156" type="curve" smooth="yes"/>
      <point x="671" y="233"/>
      <point x="571" y="338"/>
      <point x="407" y="434" type="curve"/>
      <point x="426" y="391" type="line"/>
      <point x="494" y="408"/>
      <point x="572" y="478"/>
      <point x="572" y="541" type="curve" smooth="yes"/>
      <point x="572" y="653"/>
      <point x="423" y="796"/>
      <point x="307" y="796" type="curve" smooth="yes"/>
    </contour>
    <contour>
      <point x="833" y="689"/>
      <point x="793" y="653"/>
      <point x="675" y="463" type="curve" smooth="yes"/>
      <point x="613" y="366"/>
      <point x="580" y="338"/>
      <point x="526" y="338" type="curve"/>
      <point x="586" y="258" type="line"/>
      <point x="670" y="258"/>
      <point x="699" y="283"/>
      <point x="802" y="444" type="curve" smooth="yes"/>
      <point x="887" y="578"/>
      <point x="923" y="609"/>
      <point x="993" y="609" type="curve" smooth="yes"/>
      <point x="1070" y="609"/>
      <point x="1112" y="558"/>
      <point x="1112" y="464" type="curve" smooth="yes"/>
      <point x="1112" y="351"/>
      <point x="1054" y="275"/>
      <point x="967" y="275" type="curve" smooth="yes"/>
      <point x="956" y="275"/>
      <point x="944" y="276"/>
      <point x="932" y="278" type="curve"/>
      <point x="932" y="240" type="line"/>
      <point x="1002" y="178" type="line"/>
      <point x="1136" y="178"/>
      <point x="1242" y="279"/>
      <point x="1242" y="408" type="curve" smooth="yes"/>
      <point x="1242" y="551"/>
      <point x="1087" y="689"/>
      <point x="926" y="689" type="curve" smooth="yes"/>
    </contour>
    <component base="candraBindu-deva" xOffset="387" yOffset="-75"/>
  </outline>
</glyph>
<glyph name="udattadeva" format="1">
  <advance width="240"/>
  <unicode hex="0951"/>
  <outline>
    <contour>
      <point x="60" y="1133" type="line"/>
      <point x="60" y="732" type="line"/>
      <point x="180" y="732" type="line"/>
      <point x="180" y="1093" type="line"/>
      <point x="98" y="1133" type="line"/>
    </contour>
    <contour>
      <point x="119" y="786" type="move" name="_top"/>
    </contour>
  </outline>
</glyph>
<glyph name="anudatta-deva" format="1">
  <advance width="422"/>
  <unicode hex="0952"/>
  <outline>
	<contour>
	  <point x="-110" y="-65" type="line"/>
	  <point x="-110" y="-103" type="line"/>
	  <point x="-34" y="-165" type="line"/>
	  <point x="532" y="-165" type="line"/>
	  <point x="532" y="-127" type="line"/>
	  <point x="456" y="-65" type="line"/>
	</contour>
	<contour>
	  <point x="151" y="0" type="move" name="_bottom"/>
	</contour>
  </outline>
</glyph>
